<svg width="512" height="456" viewBox="0 0 512 456" fill="none" xmlns="http://www.w3.org/2000/svg">
<g filter="url(#filter0_d_11_10)">
<path d="M135.2 85.4L109.1 160H402.9L376.8 85.4C372.3 72.6 360.2 64 346.6 64H165.4C151.8 64 139.7 72.6 135.2 85.4ZM39.6 164.8L74.8 64.3C88.3 25.8 124.6 0 165.4 0H346.6C387.4 0 423.7 25.8 437.2 64.3L472.4 164.8C495.6 174.4 512 197.3 512 224V368V416C512 433.7 497.7 448 480 448H448C430.3 448 416 433.7 416 416V368H96V416C96 433.7 81.7 448 64 448H32C14.3 448 0 433.7 0 416V368V224C0 197.3 16.4 174.4 39.6 164.8ZM128 256C128 247.513 124.629 239.374 118.627 233.373C112.626 227.371 104.487 224 96 224C87.5131 224 79.3737 227.371 73.3726 233.373C67.3714 239.374 64 247.513 64 256C64 264.487 67.3714 272.626 73.3726 278.627C79.3737 284.629 87.5131 288 96 288C104.487 288 112.626 284.629 118.627 278.627C124.629 272.626 128 264.487 128 256ZM416 288C424.487 288 432.626 284.629 438.627 278.627C444.629 272.626 448 264.487 448 256C448 247.513 444.629 239.374 438.627 233.373C432.626 227.371 424.487 224 416 224C407.513 224 399.374 227.371 393.373 233.373C387.371 239.374 384 247.513 384 256C384 264.487 387.371 272.626 393.373 278.627C399.374 284.629 407.513 288 416 288Z" fill="#3E81D1"/>
</g>
<defs>
<filter id="filter0_d_11_10" x="-4" y="0" width="520" height="456" filterUnits="userSpaceOnUse" color-interpolation-filters="sRGB">
<feFlood flood-opacity="0" result="BackgroundImageFix"/>
<feColorMatrix in="SourceAlpha" type="matrix" values="0 0 0 0 0 0 0 0 0 0 0 0 0 0 0 0 0 0 127 0" result="hardAlpha"/>
<feOffset dy="4"/>
<feGaussianBlur stdDeviation="2"/>
<feComposite in2="hardAlpha" operator="out"/>
<feColorMatrix type="matrix" values="0 0 0 0 0 0 0 0 0 0 0 0 0 0 0 0 0 0 0.25 0"/>
<feBlend mode="normal" in2="BackgroundImageFix" result="effect1_dropShadow_11_10"/>
<feBlend mode="normal" in="SourceGraphic" in2="effect1_dropShadow_11_10" result="shape"/>
</filter>
</defs>
</svg>
