<svg width="24" height="24" viewBox="0 0 24 24" fill="none" xmlns="http://www.w3.org/2000/svg">
<path fill-rule="evenodd" clip-rule="evenodd" d="M4.05295 9.90583C4.18655 9.80274 4.33047 9.71645 4.48201 9.64846C4.2786 9.27943 4.13696 8.8712 4.06254 8.44346C3.96028 7.85566 3.9872 7.24439 4.13971 6.66223C4.29222 6.0801 4.56696 5.54004 4.94376 5.09088C5.32068 4.64156 5.79057 4.29437 6.31616 4.08745C6.72688 3.92575 7.16 3.85444 7.59089 3.87844C7.81809 3.12458 8.47614 2.5 9.49999 2.5C9.96879 2.5 10.361 2.59795 10.6753 2.79533C10.993 2.99487 11.1911 3.27096 11.311 3.55638C11.5107 4.032 11.5044 4.58166 11.5008 4.89739C11.5004 4.93497 11.5 4.96958 11.5 5V21.499C11.5 21.7751 11.2761 22 11 22C9.94352 22 9.17332 21.5181 8.78183 20.8151L8.76962 20.7929C8.43457 20.8695 8.08353 20.868 7.73981 20.7928C7.33144 20.7034 6.94476 20.5125 6.61089 20.2428C6.27702 19.9731 6.00242 19.63 5.80951 19.2434C5.63163 18.8869 5.52631 18.4997 5.50398 18.1095C5.14708 18.0524 4.80539 17.9208 4.50141 17.7226C4.14573 17.4907 3.85263 17.1748 3.64806 16.8027C3.44348 16.4306 3.33373 16.0138 3.32855 15.5893C3.32337 15.1648 3.42293 14.7455 3.61847 14.3688C3.71906 14.175 3.84344 13.9955 3.98818 13.8343C3.75884 13.6286 3.56832 13.3783 3.4257 13.0985C3.24636 12.7468 3.14636 12.3558 3.13313 11.9592C3.1199 11.5626 3.19374 11.1681 3.35187 10.8105C3.51008 10.4527 3.74909 10.1403 4.05295 9.90583ZM7.89693 12.4231C7.50083 12.4603 7.10678 12.3906 6.7527 12.2162C6.50498 12.0942 6.40306 11.7945 6.52507 11.5467C6.64708 11.299 6.94681 11.1971 7.19453 11.3191C7.37767 11.4093 7.58583 11.4479 7.80359 11.4275C8.02209 11.407 8.24641 11.3272 8.45465 11.1875C8.66306 11.0476 8.84607 10.8538 8.98389 10.6211C9.12172 10.3884 9.20758 10.1283 9.23458 9.86557C9.26157 9.60283 9.2285 9.3501 9.14448 9.12925C9.0463 8.87116 9.17593 8.58233 9.43402 8.48414C9.69212 8.38595 9.98094 8.51558 10.0791 8.77368C10.2219 9.14883 10.2713 9.55915 10.2293 9.96777C10.1874 10.3764 10.0549 10.7752 9.84428 11.1307C9.6337 11.4862 9.34901 11.7916 9.01187 12.0179C8.67456 12.2442 8.2923 12.3861 7.89693 12.4231ZM9.84396 17.9307C10.1201 17.9304 10.3437 17.7063 10.3434 17.4301C10.3431 17.154 10.119 16.9304 9.84288 16.9307C9.45587 16.9311 9.07649 17.0196 8.7399 17.1947C8.40281 17.37 8.11955 17.6267 7.92065 17.9454C7.72158 18.2644 7.61675 18.6301 7.61383 19.0073C7.6117 19.2835 7.83383 19.5091 8.10996 19.5112C8.3861 19.5133 8.61167 19.2912 8.6138 19.0151C8.61531 18.8195 8.66917 18.6348 8.769 18.4748C8.86901 18.3146 9.01564 18.1784 9.20135 18.0818C9.38755 17.985 9.60773 17.9309 9.84396 17.9307ZM5.6068 14.17C5.60992 14.4462 5.83628 14.6675 6.11241 14.6644C6.19756 14.6634 6.27216 14.6841 6.33278 14.7189C6.39313 14.7536 6.44351 14.8046 6.47933 14.8704C6.51544 14.9367 6.53745 15.0198 6.53648 15.1149C6.53368 15.3911 6.75525 15.6172 7.03138 15.62C7.30751 15.6228 7.53363 15.4012 7.53643 15.1251C7.53903 14.8696 7.47997 14.617 7.35757 14.3922C7.23487 14.1668 7.05418 13.9803 6.83137 13.8521C6.60882 13.7241 6.35691 13.6616 6.10113 13.6644C5.82501 13.6676 5.60369 13.8939 5.6068 14.17ZM9.90349 15.4417C10.1558 15.3294 10.2692 15.0339 10.1569 14.7816C10.0446 14.5293 9.74908 14.4158 9.4968 14.5281C9.30449 14.6138 9.13642 14.7475 9.01268 14.9213C8.88877 15.0953 8.81706 15.2988 8.80251 15.5108C8.788 15.7222 8.83087 15.9315 8.91989 16.1205C9.03757 16.3703 9.33549 16.4774 9.5853 16.3597C9.83511 16.242 9.94222 15.9441 9.82453 15.6943C9.80383 15.6504 9.79801 15.6107 9.80016 15.5793C9.80228 15.5485 9.81208 15.5227 9.82729 15.5013C9.84268 15.4797 9.86706 15.4579 9.90349 15.4417ZM6.67823 6.71774C6.89318 6.66242 7.11878 6.66566 7.3327 6.73166C7.59657 6.81306 7.74449 7.09296 7.66309 7.35683C7.58168 7.6207 7.30178 7.76862 7.03791 7.68722C7.00608 7.6774 6.96894 7.6755 6.92746 7.68618C6.88525 7.69704 6.83723 7.72148 6.79084 7.76465C6.7443 7.80795 6.70345 7.86657 6.67573 7.93672C6.64801 8.00686 6.63611 8.08179 6.64012 8.1533C6.64413 8.22478 6.66357 8.28607 6.69068 8.33321C6.82835 8.57259 6.7459 8.87825 6.50653 9.01592C6.26715 9.15359 5.96149 9.07114 5.82382 8.83177C5.7144 8.64151 5.65391 8.4272 5.64169 8.20929C5.62947 7.9914 5.66554 7.77208 5.74573 7.56917C5.82591 7.36627 5.94959 7.18148 6.10962 7.03257C6.26979 6.88352 6.464 6.77287 6.67823 6.71774ZM9.04408 5.61453C8.76944 5.58576 8.57012 5.33981 8.59889 5.06517C8.62765 4.79053 8.87361 4.5912 9.14825 4.61997C9.36717 4.6429 9.57725 4.72149 9.75607 4.85397C9.93514 4.98663 10.0719 5.16531 10.1549 5.37113C10.2376 5.57637 10.2627 5.79829 10.2352 6.01535C10.2006 6.28931 9.95043 6.48331 9.67647 6.44866C9.4025 6.41402 9.2085 6.16384 9.24315 5.88988C9.25048 5.83188 9.24258 5.7827 9.22732 5.74483C9.21229 5.70754 9.18928 5.67859 9.1608 5.6575C9.13208 5.63622 9.09329 5.61968 9.04408 5.61453Z" fill="#3E81D1"/>
<path opacity="0.5" fill-rule="evenodd" clip-rule="evenodd" d="M16.4064 3.86548C16.1754 3.11652 15.5181 2.5 14.5012 2.5C14.0324 2.5 13.6402 2.59795 13.3259 2.79533C13.0082 2.99487 12.8101 3.27096 12.6902 3.55638C12.4905 4.032 12.4968 4.58166 12.5004 4.89739C12.5008 4.9351 12.5012 4.96948 12.5012 5V21.4995C12.5012 21.5257 12.5032 21.5518 12.5071 21.5769C12.5416 21.8 12.7235 21.9744 12.9501 21.9974C12.9669 21.9991 12.984 22 13.0012 22C14.0577 22 14.8279 21.5181 15.2194 20.8151L15.2316 20.7929C15.5667 20.8695 15.9177 20.868 16.2614 20.7928C16.6698 20.7034 17.0565 20.5125 17.3904 20.2428C17.7242 19.9731 17.9988 19.63 18.1917 19.2434C18.3696 18.8869 18.4749 18.4997 18.4973 18.1095C18.8542 18.0524 19.1958 17.9208 19.4998 17.7226C19.8555 17.4907 20.1486 17.1748 20.3532 16.8027C20.5577 16.4306 20.6675 16.0138 20.6727 15.5893C20.6779 15.1648 20.5783 14.7455 20.3827 14.3688C20.2822 14.175 20.1578 13.9955 20.013 13.8343C20.2424 13.6286 20.4329 13.3783 20.5755 13.0985C20.7549 12.7468 20.8549 12.3558 20.8681 11.9592C20.8813 11.5626 20.8075 11.1681 20.6494 10.8105C20.4911 10.4527 20.2521 10.1403 19.9483 9.90583C19.8147 9.80274 19.6707 9.71645 19.5192 9.64846C19.7226 9.27943 19.8643 8.8712 19.9387 8.44346C20.0409 7.85566 20.014 7.24439 19.8615 6.66223C19.709 6.0801 19.4343 5.54004 19.0575 5.09088C18.6805 4.64156 18.2107 4.29437 17.6851 4.08745C17.2743 3.92575 16.8412 3.85444 16.4103 3.87844L16.4064 3.86548ZM17.1125 12.6337C17.5102 12.6446 17.8988 12.549 18.2406 12.3516C18.4797 12.2135 18.5616 11.9077 18.4235 11.6686C18.2853 11.4294 17.9795 11.3476 17.7404 11.4857C17.5636 11.5878 17.3585 11.6401 17.1398 11.6341C16.9205 11.6281 16.6914 11.5633 16.4743 11.4377C16.2571 11.3119 16.0617 11.1305 15.9088 10.9075C15.7559 10.6844 15.653 10.4306 15.6087 10.1702C15.5624 9.89794 15.3042 9.71481 15.032 9.76113C14.7597 9.80745 14.5766 10.0657 14.6229 10.3379C14.6918 10.7428 14.8504 11.1321 15.084 11.4729C15.3176 11.8137 15.6219 12.0996 15.9732 12.303C16.3248 12.5066 16.7156 12.6229 17.1125 12.6337ZM15.2994 13.7574C15.401 13.5007 15.2752 13.2101 15.0185 13.1085C14.7617 13.0069 14.4712 13.1326 14.3695 13.3894C14.2754 13.6272 14.2437 13.8848 14.2837 14.1384C14.3237 14.3923 14.4334 14.6278 14.5999 14.8229C14.7661 15.0176 14.981 15.1631 15.2205 15.252C15.4793 15.3481 15.7671 15.2162 15.8632 14.9573C15.9593 14.6984 15.8274 14.4107 15.5685 14.3146C15.4793 14.2814 15.4096 14.2312 15.3605 14.1737C15.3119 14.1168 15.2824 14.0515 15.2715 13.9827C15.2606 13.9137 15.268 13.8366 15.2994 13.7574ZM17.3999 7.31337C17.2734 7.13103 17.1005 6.98606 16.8954 6.89623C16.6425 6.78541 16.3476 6.90062 16.2368 7.15356C16.126 7.40649 16.2412 7.70136 16.4941 7.81218C16.5247 7.82555 16.554 7.84838 16.5784 7.88357C16.6033 7.91937 16.6237 7.96925 16.6306 8.03224C16.6375 8.09543 16.6301 8.1665 16.6052 8.23771C16.5804 8.30891 16.5404 8.37341 16.4907 8.42492C16.4409 8.47641 16.3862 8.5101 16.3348 8.52807C16.0742 8.6193 15.9369 8.90455 16.0281 9.16518C16.1193 9.42582 16.4046 9.56315 16.6652 9.47192C16.8724 9.39941 17.0582 9.27671 17.2098 9.11975C17.3615 8.9628 17.4775 8.77322 17.5494 8.56723C17.6213 8.36124 17.6484 8.14055 17.6246 7.92325C17.6008 7.70576 17.5261 7.49509 17.3999 7.31337ZM14.665 18.2355C14.7666 17.9788 14.6409 17.6882 14.3841 17.5866C14.1273 17.485 13.8368 17.6107 13.7352 17.8675C13.641 18.1053 13.6094 18.363 13.6493 18.6166C13.6894 18.8705 13.799 19.1059 13.9656 19.3011C14.1317 19.4958 14.3466 19.6412 14.5861 19.7302C14.845 19.8263 15.1327 19.6943 15.2288 19.4354C15.325 19.1765 15.193 18.8888 14.9341 18.7927C14.8449 18.7596 14.7752 18.7093 14.7262 18.6519C14.6776 18.5949 14.648 18.5296 14.6371 18.4609C14.6263 18.3918 14.6336 18.3147 14.665 18.2355ZM15.5005 17.0164C15.4888 16.7405 15.7029 16.5074 15.9788 16.4957C16.2148 16.4857 16.4326 16.4226 16.6146 16.3181C16.7962 16.2139 16.9371 16.0718 17.0304 15.9076C17.1235 15.7436 17.1697 15.5569 17.1632 15.3614C17.1539 15.0854 17.3701 14.8542 17.6461 14.8449C17.9221 14.8357 18.1533 15.0519 18.1626 15.3279C18.1753 15.705 18.0856 16.0746 17.8999 16.4016C17.7143 16.7282 17.4419 16.9964 17.1123 17.1855C16.7832 17.3743 16.4078 17.4784 16.0212 17.4948C15.7453 17.5065 15.5122 17.2923 15.5005 17.0164ZM15.1352 5.64556C15.4098 5.6168 15.6092 5.37084 15.5804 5.0962C15.5516 4.82156 15.3057 4.62224 15.031 4.651C14.7766 4.67765 14.5336 4.76883 14.3273 4.92166C14.1208 5.07467 13.9628 5.28083 13.867 5.51882C13.7713 5.75624 13.7418 6.01403 13.7738 6.26749C13.8085 6.54145 14.0587 6.73545 14.3326 6.70081C14.6066 6.66616 14.8006 6.41599 14.7659 6.14203C14.754 6.04762 14.7663 5.96257 14.7945 5.89252C14.8225 5.82305 14.8667 5.76663 14.9226 5.72519C14.9788 5.68356 15.0505 5.65443 15.1352 5.64556Z" fill="#3E81D1"/>
</svg>
