<svg width="448" height="512" viewBox="0 0 448 512" fill="none" xmlns="http://www.w3.org/2000/svg">
<path d="M96 0C43 0 0 43 0 96V352C0 400 35.2 439.7 81.1 446.9L35.1 492.9C28.1 499.9 33.1 512 43 512H82.7C91.2 512 99.3 508.6 105.3 502.6L160 448H288L342.6 502.6C348.6 508.6 356.7 512 365.2 512H404.9C414.9 512 419.9 499.9 412.8 492.9L366.8 446.9C412.8 439.8 447.9 400 447.9 352V96C447.9 43 404.9 0 351.9 0H96ZM64 128C64 110.3 78.3 96 96 96H176C193.7 96 208 110.3 208 128V224C208 241.7 193.7 256 176 256H96C78.3 256 64 241.7 64 224V128ZM272 96H352C369.7 96 384 110.3 384 128V224C384 241.7 369.7 256 352 256H272C254.3 256 240 241.7 240 224V128C240 110.3 254.3 96 272 96ZM64 352C64 343.513 67.3714 335.374 73.3726 329.373C79.3737 323.371 87.5131 320 96 320C104.487 320 112.626 323.371 118.627 329.373C124.629 335.374 128 343.513 128 352C128 360.487 124.629 368.626 118.627 374.627C112.626 380.629 104.487 384 96 384C87.5131 384 79.3737 380.629 73.3726 374.627C67.3714 368.626 64 360.487 64 352ZM352 320C360.487 320 368.626 323.371 374.627 329.373C380.629 335.374 384 343.513 384 352C384 360.487 380.629 368.626 374.627 374.627C368.626 380.629 360.487 384 352 384C343.513 384 335.374 380.629 329.373 374.627C323.371 368.626 320 360.487 320 352C320 343.513 323.371 335.374 329.373 329.373C335.374 323.371 343.513 320 352 320Z" fill="#3E81D1"/>
</svg>
