<svg width="257" height="58" viewBox="0 0 257 58" fill="none" xmlns="http://www.w3.org/2000/svg">
<path d="M72.8913 23.0977V12.7766H75.233V23.0977H72.8913ZM68.9016 19.108V16.7663H79.2227V19.108H68.9016ZM91.9767 24.2013C91.0768 24.2013 90.2714 23.9702 89.5605 23.5078C88.8495 23.0455 88.2877 22.3743 87.8751 21.4943C87.4624 20.6143 87.2561 19.5455 87.2561 18.2876C87.2561 17.0149 87.4649 15.9411 87.8825 15.0661C88.3051 14.1861 88.8744 13.5224 89.5903 13.0749C90.3062 12.6225 91.1041 12.3963 91.9841 12.3963C92.6553 12.3963 93.2071 12.5107 93.6396 12.7393C94.0722 12.9631 94.4152 13.234 94.6688 13.5522C94.9223 13.8654 95.1187 14.1612 95.2579 14.4396H95.3698V8.72727H98.0768V24H95.422V22.1953H95.2579C95.1187 22.4737 94.9173 22.7695 94.6539 23.0827C94.3904 23.391 94.0423 23.6545 93.6098 23.8732C93.1773 24.092 92.6329 24.2013 91.9767 24.2013ZM92.7298 21.9865C93.3016 21.9865 93.7888 21.8324 94.1915 21.5241C94.5942 21.2109 94.8999 20.7759 95.1088 20.2191C95.3176 19.6623 95.422 19.0135 95.422 18.2727C95.422 17.532 95.3176 16.8881 95.1088 16.3413C94.9049 15.7944 94.6017 15.3693 94.199 15.0661C93.8012 14.7628 93.3115 14.6112 92.7298 14.6112C92.1283 14.6112 91.6262 14.7678 91.2235 15.081C90.8208 15.3942 90.5175 15.8267 90.3137 16.3786C90.1098 16.9304 90.0079 17.5618 90.0079 18.2727C90.0079 18.9886 90.1098 19.6275 90.3137 20.1893C90.5225 20.7461 90.8282 21.1861 91.2309 21.5092C91.6386 21.8274 92.1382 21.9865 92.7298 21.9865ZM106.025 24.2237C104.876 24.2237 103.884 23.9851 103.049 23.5078C102.219 23.0256 101.58 22.3445 101.132 21.4645C100.685 20.5795 100.461 19.538 100.461 18.3398C100.461 17.1616 100.685 16.1275 101.132 15.2376C101.585 14.3427 102.216 13.6467 103.027 13.1495C103.837 12.6474 104.789 12.3963 105.883 12.3963C106.589 12.3963 107.255 12.5107 107.881 12.7393C108.513 12.9631 109.07 13.3111 109.552 13.7834C110.039 14.2557 110.422 14.8572 110.7 15.5881C110.979 16.3139 111.118 17.179 111.118 18.1832V19.011H101.729V17.1914H108.53C108.525 16.6744 108.413 16.2145 108.195 15.8118C107.976 15.4041 107.67 15.0835 107.277 14.8498C106.89 14.6161 106.437 14.4993 105.92 14.4993C105.368 14.4993 104.884 14.6335 104.466 14.902C104.048 15.1655 103.723 15.5135 103.489 15.946C103.26 16.3736 103.143 16.8434 103.138 17.3555V18.9439C103.138 19.6101 103.26 20.1818 103.504 20.6591C103.748 21.1314 104.088 21.4943 104.526 21.7479C104.963 21.9964 105.475 22.1207 106.062 22.1207C106.455 22.1207 106.81 22.0661 107.128 21.9567C107.446 21.8423 107.722 21.6758 107.956 21.457C108.19 21.2383 108.366 20.9673 108.485 20.6442L111.006 20.9276C110.847 21.5937 110.544 22.1754 110.096 22.6726C109.654 23.1648 109.087 23.5476 108.396 23.821C107.705 24.0895 106.914 24.2237 106.025 24.2237ZM124.793 8.72727V24H122.026V11.4194H121.937L118.365 13.7013V11.1658L122.16 8.72727H124.793ZM134.316 24.2908C133.088 24.2908 132.034 23.9801 131.154 23.3587C130.279 22.7322 129.605 21.8299 129.133 20.6516C128.666 19.4684 128.432 18.044 128.432 16.3786C128.437 14.7131 128.673 13.2962 129.141 12.1278C129.613 10.9545 130.286 10.0597 131.161 9.44318C132.041 8.8267 133.093 8.51847 134.316 8.51847C135.539 8.51847 136.59 8.8267 137.47 9.44318C138.35 10.0597 139.024 10.9545 139.491 12.1278C139.964 13.3011 140.2 14.718 140.2 16.3786C140.2 18.049 139.964 19.4759 139.491 20.6591C139.024 21.8374 138.35 22.7372 137.47 23.3587C136.595 23.9801 135.544 24.2908 134.316 24.2908ZM134.316 21.9567C135.271 21.9567 136.024 21.4869 136.576 20.5472C137.132 19.6026 137.411 18.2131 137.411 16.3786C137.411 15.1655 137.284 14.1463 137.03 13.321C136.777 12.4957 136.419 11.8743 135.957 11.4567C135.494 11.0341 134.947 10.8228 134.316 10.8228C133.366 10.8228 132.616 11.2951 132.064 12.2397C131.512 13.1793 131.234 14.5589 131.229 16.3786C131.224 17.5966 131.345 18.6207 131.594 19.451C131.848 20.2812 132.206 20.9077 132.668 21.3303C133.13 21.7479 133.68 21.9567 134.316 21.9567ZM151.213 24.2312C150.487 24.2312 149.833 24.1019 149.251 23.8434C148.675 23.5799 148.217 23.1921 147.879 22.68C147.546 22.168 147.379 21.5366 147.379 20.7859C147.379 20.1396 147.499 19.6051 147.737 19.1825C147.976 18.7599 148.302 18.4219 148.714 18.1683C149.127 17.9148 149.592 17.7234 150.109 17.5941C150.631 17.4599 151.17 17.3629 151.727 17.3033C152.398 17.2337 152.943 17.1715 153.36 17.1168C153.778 17.0572 154.081 16.9677 154.27 16.8484C154.464 16.7241 154.561 16.5327 154.561 16.2741V16.2294C154.561 15.6676 154.394 15.2326 154.061 14.9244C153.728 14.6161 153.248 14.462 152.622 14.462C151.961 14.462 151.436 14.6062 151.048 14.8945C150.666 15.1829 150.407 15.5234 150.273 15.9162L147.752 15.5582C147.951 14.8622 148.279 14.2805 148.737 13.8132C149.194 13.3409 149.753 12.9879 150.415 12.7543C151.076 12.5156 151.807 12.3963 152.607 12.3963C153.159 12.3963 153.708 12.4609 154.255 12.5902C154.802 12.7195 155.302 12.9332 155.754 13.2315C156.206 13.5249 156.569 13.9251 156.843 14.4322C157.121 14.9393 157.26 15.5732 157.26 16.3338V24H154.665V22.4265H154.576C154.412 22.7447 154.181 23.043 153.882 23.3214C153.589 23.5948 153.219 23.8161 152.771 23.9851C152.329 24.1491 151.809 24.2312 151.213 24.2312ZM151.914 22.2475C152.455 22.2475 152.925 22.1406 153.323 21.9268C153.721 21.7081 154.026 21.4197 154.24 21.0618C154.459 20.7038 154.568 20.3136 154.568 19.891V18.5412C154.484 18.6108 154.34 18.6754 154.136 18.7351C153.937 18.7947 153.713 18.8469 153.465 18.8917C153.216 18.9364 152.97 18.9762 152.726 19.011C152.483 19.0458 152.271 19.0756 152.093 19.1005C151.69 19.1552 151.329 19.2447 151.011 19.369C150.693 19.4933 150.442 19.6673 150.258 19.891C150.074 20.1097 149.982 20.3931 149.982 20.7411C149.982 21.2383 150.164 21.6136 150.526 21.8672C150.889 22.1207 151.352 22.2475 151.914 22.2475ZM162.675 17.2884V24H159.975V12.5455H162.555V14.4918H162.689C162.953 13.8505 163.373 13.3409 163.95 12.9631C164.531 12.5852 165.25 12.3963 166.105 12.3963C166.895 12.3963 167.584 12.5653 168.171 12.9034C168.762 13.2415 169.22 13.7312 169.543 14.3725C169.871 15.0138 170.032 15.7919 170.028 16.7067V24H167.328V17.1243C167.328 16.3587 167.129 15.7596 166.731 15.3271C166.339 14.8945 165.794 14.6783 165.098 14.6783C164.626 14.6783 164.206 14.7827 163.838 14.9915C163.475 15.1953 163.189 15.4911 162.98 15.8789C162.776 16.2667 162.675 16.7365 162.675 17.2884ZM177.768 24.2237C176.65 24.2237 175.68 23.9776 174.86 23.4854C174.04 22.9933 173.403 22.3047 172.951 21.4197C172.503 20.5348 172.28 19.5007 172.28 18.3175C172.28 17.1342 172.503 16.0977 172.951 15.2077C173.403 14.3178 174.04 13.6268 174.86 13.1346C175.68 12.6424 176.65 12.3963 177.768 12.3963C178.887 12.3963 179.856 12.6424 180.677 13.1346C181.497 13.6268 182.131 14.3178 182.578 15.2077C183.031 16.0977 183.257 17.1342 183.257 18.3175C183.257 19.5007 183.031 20.5348 182.578 21.4197C182.131 22.3047 181.497 22.9933 180.677 23.4854C179.856 23.9776 178.887 24.2237 177.768 24.2237ZM177.783 22.0611C178.39 22.0611 178.897 21.8945 179.305 21.5614C179.712 21.2234 180.015 20.771 180.214 20.2042C180.418 19.6374 180.52 19.006 180.52 18.31C180.52 17.609 180.418 16.9751 180.214 16.4084C180.015 15.8366 179.712 15.3817 179.305 15.0437C178.897 14.7056 178.39 14.5366 177.783 14.5366C177.162 14.5366 176.645 14.7056 176.232 15.0437C175.824 15.3817 175.519 15.8366 175.315 16.4084C175.116 16.9751 175.017 17.609 175.017 18.31C175.017 19.006 175.116 19.6374 175.315 20.2042C175.519 20.771 175.824 21.2234 176.232 21.5614C176.645 21.8945 177.162 22.0611 177.783 22.0611ZM194.601 15.5732L192.141 15.8416C192.071 15.593 191.949 15.3594 191.775 15.1406C191.606 14.9219 191.377 14.7454 191.089 14.6112C190.801 14.4769 190.448 14.4098 190.03 14.4098C189.468 14.4098 188.996 14.5316 188.613 14.7752C188.235 15.0188 188.049 15.3345 188.054 15.7223C188.049 16.0554 188.171 16.3263 188.419 16.5352C188.673 16.744 189.09 16.9155 189.672 17.0497L191.626 17.4673C192.71 17.701 193.515 18.0714 194.042 18.5785C194.574 19.0856 194.843 19.7493 194.848 20.5696C194.843 21.2905 194.631 21.9268 194.214 22.4787C193.801 23.0256 193.227 23.4531 192.491 23.7614C191.755 24.0696 190.91 24.2237 189.956 24.2237C188.554 24.2237 187.425 23.9304 186.57 23.3438C185.715 22.7521 185.205 21.9293 185.041 20.8754L187.674 20.6218C187.793 21.1388 188.046 21.5291 188.434 21.7926C188.822 22.0561 189.327 22.1879 189.948 22.1879C190.589 22.1879 191.104 22.0561 191.492 21.7926C191.884 21.5291 192.081 21.2035 192.081 20.8157C192.081 20.4876 191.954 20.2166 191.701 20.0028C191.452 19.7891 191.064 19.625 190.537 19.5107L188.583 19.1005C187.485 18.8718 186.672 18.4865 186.145 17.9446C185.618 17.3977 185.357 16.7067 185.362 15.8714C185.357 15.1655 185.548 14.554 185.936 14.0369C186.329 13.5149 186.873 13.1122 187.569 12.8288C188.27 12.5405 189.078 12.3963 189.993 12.3963C191.335 12.3963 192.392 12.6822 193.162 13.2539C193.938 13.8256 194.418 14.5987 194.601 15.5732ZM206.533 24.2013C205.633 24.2013 204.828 23.9702 204.117 23.5078C203.406 23.0455 202.844 22.3743 202.432 21.4943C202.019 20.6143 201.813 19.5455 201.813 18.2876C201.813 17.0149 202.022 15.9411 202.439 15.0661C202.862 14.1861 203.431 13.5224 204.147 13.0749C204.863 12.6225 205.661 12.3963 206.541 12.3963C207.212 12.3963 207.764 12.5107 208.196 12.7393C208.629 12.9631 208.972 13.234 209.225 13.5522C209.479 13.8654 209.675 14.1612 209.815 14.4396H209.926V8.72727H212.633V24H209.979V22.1953H209.815C209.675 22.4737 209.474 22.7695 209.21 23.0827C208.947 23.391 208.599 23.6545 208.166 23.8732C207.734 24.092 207.19 24.2013 206.533 24.2013ZM207.286 21.9865C207.858 21.9865 208.345 21.8324 208.748 21.5241C209.151 21.2109 209.457 20.7759 209.665 20.2191C209.874 19.6623 209.979 19.0135 209.979 18.2727C209.979 17.532 209.874 16.8881 209.665 16.3413C209.462 15.7944 209.158 15.3693 208.756 15.0661C208.358 14.7628 207.868 14.6112 207.286 14.6112C206.685 14.6112 206.183 14.7678 205.78 15.081C205.377 15.3942 205.074 15.8267 204.87 16.3786C204.666 16.9304 204.565 17.5618 204.565 18.2727C204.565 18.9886 204.666 19.6275 204.87 20.1893C205.079 20.7461 205.385 21.1861 205.788 21.5092C206.195 21.8274 206.695 21.9865 207.286 21.9865ZM220.581 24.2237C219.433 24.2237 218.441 23.9851 217.606 23.5078C216.775 23.0256 216.137 22.3445 215.689 21.4645C215.242 20.5795 215.018 19.538 215.018 18.3398C215.018 17.1616 215.242 16.1275 215.689 15.2376C216.142 14.3427 216.773 13.6467 217.583 13.1495C218.394 12.6474 219.346 12.3963 220.439 12.3963C221.145 12.3963 221.812 12.5107 222.438 12.7393C223.069 12.9631 223.626 13.3111 224.108 13.7834C224.596 14.2557 224.979 14.8572 225.257 15.5881C225.535 16.3139 225.675 17.179 225.675 18.1832V19.011H216.286V17.1914H223.087C223.082 16.6744 222.97 16.2145 222.751 15.8118C222.532 15.4041 222.227 15.0835 221.834 14.8498C221.446 14.6161 220.994 14.4993 220.477 14.4993C219.925 14.4993 219.44 14.6335 219.023 14.902C218.605 15.1655 218.279 15.5135 218.046 15.946C217.817 16.3736 217.7 16.8434 217.695 17.3555V18.9439C217.695 19.6101 217.817 20.1818 218.061 20.6591C218.304 21.1314 218.645 21.4943 219.082 21.7479C219.52 21.9964 220.032 22.1207 220.618 22.1207C221.011 22.1207 221.367 22.0661 221.685 21.9567C222.003 21.8423 222.279 21.6758 222.513 21.457C222.746 21.2383 222.923 20.9673 223.042 20.6442L225.563 20.9276C225.404 21.5937 225.1 22.1754 224.653 22.6726C224.21 23.1648 223.644 23.5476 222.953 23.821C222.262 24.0895 221.471 24.2237 220.581 24.2237ZM73.4581 49.2237C72.3097 49.2237 71.3178 48.9851 70.4826 48.5078C69.6523 48.0256 69.0135 47.3445 68.5661 46.4645C68.1186 45.5795 67.8949 44.538 67.8949 43.3398C67.8949 42.1616 68.1186 41.1275 68.5661 40.2376C69.0185 39.3427 69.6499 38.6467 70.4602 38.1495C71.2706 37.6474 72.2227 37.3963 73.3164 37.3963C74.0224 37.3963 74.6886 37.5107 75.315 37.7393C75.9464 37.9631 76.5032 38.3111 76.9854 38.7834C77.4727 39.2557 77.8555 39.8572 78.1339 40.5881C78.4123 41.3139 78.5515 42.179 78.5515 43.1832V44.011H69.1626V42.1914H75.9638C75.9588 41.6744 75.8469 41.2145 75.6282 40.8118C75.4094 40.4041 75.1037 40.0835 74.7109 39.8498C74.3232 39.6161 73.8707 39.4993 73.3537 39.4993C72.8018 39.4993 72.3171 39.6335 71.8995 39.902C71.4819 40.1655 71.1563 40.5135 70.9226 40.946C70.6939 41.3736 70.5771 41.8434 70.5721 42.3555V43.9439C70.5721 44.6101 70.6939 45.1818 70.9375 45.6591C71.1811 46.1314 71.5217 46.4943 71.9592 46.7479C72.3967 46.9964 72.9087 47.1207 73.4954 47.1207C73.8881 47.1207 74.2436 47.0661 74.5618 46.9567C74.88 46.8423 75.1559 46.6758 75.3896 46.457C75.6232 46.2383 75.7997 45.9673 75.919 45.6442L78.4396 45.9276C78.2805 46.5937 77.9773 47.1754 77.5298 47.6726C77.0874 48.1648 76.5206 48.5476 75.8295 48.821C75.1385 49.0895 74.348 49.2237 73.4581 49.2237ZM82.7966 37.5455L85.1084 41.7738L87.4575 37.5455H90.3137L86.8609 43.2727L90.3733 49H87.532L85.1084 44.8761L82.7071 49H79.8435L83.3335 43.2727L79.933 37.5455H82.7966ZM92.4017 53.2955V37.5455H95.0566V39.4396H95.2132C95.3524 39.1612 95.5487 38.8654 95.8023 38.5522C96.0558 38.234 96.3989 37.9631 96.8314 37.7393C97.2639 37.5107 97.8158 37.3963 98.4869 37.3963C99.3719 37.3963 100.17 37.6225 100.881 38.0749C101.597 38.5224 102.163 39.1861 102.581 40.0661C103.004 40.9411 103.215 42.0149 103.215 43.2876C103.215 44.5455 103.009 45.6143 102.596 46.4943C102.183 47.3743 101.622 48.0455 100.911 48.5078C100.2 48.9702 99.3943 49.2013 98.4944 49.2013C97.8382 49.2013 97.2938 49.092 96.8612 48.8732C96.4287 48.6545 96.0807 48.391 95.8172 48.0827C95.5587 47.7695 95.3573 47.4737 95.2132 47.1953H95.1013V53.2955H92.4017ZM95.0491 43.2727C95.0491 44.0135 95.1535 44.6623 95.3623 45.2191C95.5761 45.7759 95.8818 46.2109 96.2796 46.5241C96.6823 46.8324 97.1695 46.9865 97.7412 46.9865C98.3378 46.9865 98.8374 46.8274 99.2401 46.5092C99.6428 46.1861 99.9461 45.7461 100.15 45.1893C100.359 44.6275 100.463 43.9886 100.463 43.2727C100.463 42.5618 100.361 41.9304 100.157 41.3786C99.9536 40.8267 99.6503 40.3942 99.2476 40.081C98.8449 39.7678 98.3428 39.6112 97.7412 39.6112C97.1645 39.6112 96.6748 39.7628 96.2721 40.0661C95.8694 40.3693 95.5637 40.7944 95.3548 41.3413C95.151 41.8881 95.0491 42.532 95.0491 43.2727ZM110.598 49.2237C109.449 49.2237 108.457 48.9851 107.622 48.5078C106.792 48.0256 106.153 47.3445 105.706 46.4645C105.258 45.5795 105.035 44.538 105.035 43.3398C105.035 42.1616 105.258 41.1275 105.706 40.2376C106.158 39.3427 106.79 38.6467 107.6 38.1495C108.41 37.6474 109.362 37.3963 110.456 37.3963C111.162 37.3963 111.828 37.5107 112.455 37.7393C113.086 37.9631 113.643 38.3111 114.125 38.7834C114.612 39.2557 114.995 39.8572 115.274 40.5881C115.552 41.3139 115.691 42.179 115.691 43.1832V44.011H106.302V42.1914H113.103C113.098 41.6744 112.987 41.2145 112.768 40.8118C112.549 40.4041 112.243 40.0835 111.851 39.8498C111.463 39.6161 111.01 39.4993 110.493 39.4993C109.941 39.4993 109.457 39.6335 109.039 39.902C108.622 40.1655 108.296 40.5135 108.062 40.946C107.834 41.3736 107.717 41.8434 107.712 42.3555V43.9439C107.712 44.6101 107.834 45.1818 108.077 45.6591C108.321 46.1314 108.661 46.4943 109.099 46.7479C109.536 46.9964 110.048 47.1207 110.635 47.1207C111.028 47.1207 111.383 47.0661 111.701 46.9567C112.02 46.8423 112.296 46.6758 112.529 46.457C112.763 46.2383 112.939 45.9673 113.059 45.6442L115.579 45.9276C115.42 46.5937 115.117 47.1754 114.669 47.6726C114.227 48.1648 113.66 48.5476 112.969 48.821C112.278 49.0895 111.488 49.2237 110.598 49.2237ZM117.975 49V37.5455H120.593V39.4545H120.712C120.921 38.7933 121.279 38.2837 121.786 37.9258C122.298 37.5629 122.882 37.3814 123.538 37.3814C123.687 37.3814 123.854 37.3888 124.038 37.4038C124.227 37.4137 124.383 37.4311 124.508 37.456V39.9393C124.393 39.8995 124.212 39.8647 123.963 39.8349C123.72 39.8001 123.483 39.7827 123.255 39.7827C122.763 39.7827 122.32 39.8896 121.927 40.1033C121.54 40.3121 121.234 40.603 121.01 40.9759C120.786 41.3487 120.675 41.7788 120.675 42.266V49H117.975ZM126.301 49V37.5455H129.001V49H126.301ZM127.658 35.9197C127.231 35.9197 126.863 35.7781 126.555 35.4947C126.246 35.2063 126.092 34.8608 126.092 34.4581C126.092 34.0504 126.246 33.7049 126.555 33.4215C126.863 33.1332 127.231 32.989 127.658 32.989C128.091 32.989 128.459 33.1332 128.762 33.4215C129.07 33.7049 129.224 34.0504 129.224 34.4581C129.224 34.8608 129.07 35.2063 128.762 35.4947C128.459 35.7781 128.091 35.9197 127.658 35.9197ZM136.848 49.2237C135.699 49.2237 134.707 48.9851 133.872 48.5078C133.042 48.0256 132.403 47.3445 131.956 46.4645C131.508 45.5795 131.285 44.538 131.285 43.3398C131.285 42.1616 131.508 41.1275 131.956 40.2376C132.408 39.3427 133.04 38.6467 133.85 38.1495C134.66 37.6474 135.612 37.3963 136.706 37.3963C137.412 37.3963 138.078 37.5107 138.705 37.7393C139.336 37.9631 139.893 38.3111 140.375 38.7834C140.862 39.2557 141.245 39.8572 141.524 40.5881C141.802 41.3139 141.941 42.179 141.941 43.1832V44.011H132.552V42.1914H139.353C139.348 41.6744 139.237 41.2145 139.018 40.8118C138.799 40.4041 138.493 40.0835 138.101 39.8498C137.713 39.6161 137.26 39.4993 136.743 39.4993C136.191 39.4993 135.707 39.6335 135.289 39.902C134.872 40.1655 134.546 40.5135 134.312 40.946C134.084 41.3736 133.967 41.8434 133.962 42.3555V43.9439C133.962 44.6101 134.084 45.1818 134.327 45.6591C134.571 46.1314 134.911 46.4943 135.349 46.7479C135.786 46.9964 136.298 47.1207 136.885 47.1207C137.278 47.1207 137.633 47.0661 137.951 46.9567C138.27 46.8423 138.546 46.6758 138.779 46.457C139.013 46.2383 139.189 45.9673 139.309 45.6442L141.829 45.9276C141.67 46.5937 141.367 47.1754 140.919 47.6726C140.477 48.1648 139.91 48.5476 139.219 48.821C138.528 49.0895 137.738 49.2237 136.848 49.2237ZM138.145 36.1733L136.631 34.2642L135.118 36.1733H132.754V36.0689L135.58 32.8473H137.69L140.509 36.0689V36.1733H138.145ZM146.925 42.2884V49H144.225V37.5455H146.805V39.4918H146.939C147.203 38.8505 147.623 38.3409 148.2 37.9631C148.781 37.5852 149.5 37.3963 150.355 37.3963C151.145 37.3963 151.834 37.5653 152.421 37.9034C153.012 38.2415 153.47 38.7312 153.793 39.3725C154.121 40.0138 154.282 40.7919 154.278 41.7067V49H151.578V42.1243C151.578 41.3587 151.379 40.7596 150.981 40.3271C150.589 39.8945 150.044 39.6783 149.348 39.6783C148.876 39.6783 148.456 39.7827 148.088 39.9915C147.725 40.1953 147.439 40.4911 147.23 40.8789C147.026 41.2667 146.925 41.7365 146.925 42.2884ZM162.018 49.2237C160.875 49.2237 159.893 48.9727 159.073 48.4705C158.257 47.9684 157.628 47.2749 157.186 46.3899C156.748 45.5 156.53 44.4759 156.53 43.3175C156.53 42.1541 156.753 41.1275 157.201 40.2376C157.648 39.3427 158.28 38.6467 159.095 38.1495C159.915 37.6474 160.885 37.3963 162.003 37.3963C162.933 37.3963 163.756 37.5678 164.472 37.9109C165.193 38.2489 165.767 38.7287 166.194 39.3501C166.622 39.9666 166.866 40.6875 166.925 41.5128H164.345C164.241 40.9609 163.992 40.5011 163.599 40.1332C163.211 39.7603 162.692 39.5739 162.041 39.5739C161.489 39.5739 161.004 39.723 160.586 40.0213C160.169 40.3146 159.843 40.7372 159.61 41.2891C159.381 41.8409 159.267 42.5021 159.267 43.2727C159.267 44.0533 159.381 44.7244 159.61 45.2862C159.838 45.843 160.159 46.2731 160.572 46.5763C160.989 46.8746 161.479 47.0238 162.041 47.0238C162.438 47.0238 162.794 46.9492 163.107 46.8001C163.425 46.646 163.691 46.4247 163.905 46.1364C164.119 45.848 164.265 45.4975 164.345 45.0849H166.925C166.861 45.8952 166.622 46.6136 166.209 47.2401C165.797 47.8615 165.235 48.3487 164.524 48.7017C163.813 49.0497 162.978 49.2237 162.018 49.2237ZM169.142 49V37.5455H171.842V49H169.142ZM170.499 35.9197C170.072 35.9197 169.704 35.7781 169.396 35.4947C169.087 35.2063 168.933 34.8608 168.933 34.4581C168.933 34.0504 169.087 33.7049 169.396 33.4215C169.704 33.1332 170.072 32.989 170.499 32.989C170.932 32.989 171.3 33.1332 171.603 33.4215C171.911 33.7049 172.065 34.0504 172.065 34.4581C172.065 34.8608 171.911 35.2063 171.603 35.4947C171.3 35.7781 170.932 35.9197 170.499 35.9197ZM177.914 49.2312C177.188 49.2312 176.534 49.1019 175.952 48.8434C175.376 48.5799 174.918 48.1921 174.58 47.68C174.247 47.168 174.081 46.5366 174.081 45.7859C174.081 45.1396 174.2 44.6051 174.439 44.1825C174.677 43.7599 175.003 43.4219 175.415 43.1683C175.828 42.9148 176.293 42.7234 176.81 42.5941C177.332 42.4599 177.871 42.3629 178.428 42.3033C179.099 42.2337 179.644 42.1715 180.061 42.1168C180.479 42.0572 180.782 41.9677 180.971 41.8484C181.165 41.7241 181.262 41.5327 181.262 41.2741V41.2294C181.262 40.6676 181.096 40.2326 180.762 39.9244C180.429 39.6161 179.95 39.462 179.323 39.462C178.662 39.462 178.137 39.6062 177.75 39.8945C177.367 40.1829 177.108 40.5234 176.974 40.9162L174.453 40.5582C174.652 39.8622 174.98 39.2805 175.438 38.8132C175.895 38.3409 176.455 37.9879 177.116 37.7543C177.777 37.5156 178.508 37.3963 179.308 37.3963C179.86 37.3963 180.409 37.4609 180.956 37.5902C181.503 37.7195 182.003 37.9332 182.455 38.2315C182.908 38.5249 183.271 38.9251 183.544 39.4322C183.822 39.9393 183.962 40.5732 183.962 41.3338V49H181.366V47.4265H181.277C181.113 47.7447 180.882 48.043 180.583 48.3214C180.29 48.5948 179.92 48.8161 179.472 48.9851C179.03 49.1491 178.51 49.2312 177.914 49.2312ZM178.615 47.2475C179.157 47.2475 179.626 47.1406 180.024 46.9268C180.422 46.7081 180.728 46.4197 180.941 46.0618C181.16 45.7038 181.27 45.3136 181.27 44.891V43.5412C181.185 43.6108 181.041 43.6754 180.837 43.7351C180.638 43.7947 180.414 43.8469 180.166 43.8917C179.917 43.9364 179.671 43.9762 179.428 44.011C179.184 44.0458 178.973 44.0756 178.794 44.1005C178.391 44.1552 178.031 44.2447 177.712 44.369C177.394 44.4933 177.143 44.6673 176.959 44.891C176.775 45.1097 176.683 45.3931 176.683 45.7411C176.683 46.2383 176.865 46.6136 177.228 46.8672C177.591 47.1207 178.053 47.2475 178.615 47.2475ZM196.882 49.2237C195.738 49.2237 194.756 48.9727 193.936 48.4705C193.121 47.9684 192.492 47.2749 192.049 46.3899C191.612 45.5 191.393 44.4759 191.393 43.3175C191.393 42.1541 191.617 41.1275 192.064 40.2376C192.512 39.3427 193.143 38.6467 193.958 38.1495C194.779 37.6474 195.748 37.3963 196.867 37.3963C197.796 37.3963 198.619 37.5678 199.335 37.9109C200.056 38.2489 200.63 38.7287 201.058 39.3501C201.485 39.9666 201.729 40.6875 201.789 41.5128H199.208C199.104 40.9609 198.855 40.5011 198.463 40.1332C198.075 39.7603 197.555 39.5739 196.904 39.5739C196.352 39.5739 195.867 39.723 195.45 40.0213C195.032 40.3146 194.706 40.7372 194.473 41.2891C194.244 41.8409 194.13 42.5021 194.13 43.2727C194.13 44.0533 194.244 44.7244 194.473 45.2862C194.702 45.843 195.022 46.2731 195.435 46.5763C195.852 46.8746 196.342 47.0238 196.904 47.0238C197.302 47.0238 197.657 46.9492 197.97 46.8001C198.289 46.646 198.555 46.4247 198.768 46.1364C198.982 45.848 199.129 45.4975 199.208 45.0849H201.789C201.724 45.8952 201.485 46.6136 201.073 47.2401C200.66 47.8615 200.098 48.3487 199.387 48.7017C198.676 49.0497 197.841 49.2237 196.882 49.2237ZM206.705 33.7273V49H204.005V33.7273H206.705ZM209.481 49V37.5455H212.18V49H209.481ZM209.801 36.0391L211.472 32.631H214.112L211.822 36.0391H209.801ZM217.656 42.2884V49H214.956V37.5455H217.537V39.4918H217.671C217.934 38.8505 218.354 38.3409 218.931 37.9631C219.513 37.5852 220.231 37.3963 221.086 37.3963C221.877 37.3963 222.565 37.5653 223.152 37.9034C223.744 38.2415 224.201 38.7312 224.524 39.3725C224.852 40.0138 225.014 40.7919 225.009 41.7067V49H222.309V42.1243C222.309 41.3587 222.111 40.7596 221.713 40.3271C221.32 39.8945 220.776 39.6783 220.08 39.6783C219.607 39.6783 219.187 39.7827 218.819 39.9915C218.456 40.1953 218.171 40.4911 217.962 40.8789C217.758 41.2667 217.656 41.7365 217.656 42.2884ZM227.753 49V37.5455H230.453V49H227.753ZM229.111 35.9197C228.683 35.9197 228.315 35.7781 228.007 35.4947C227.699 35.2063 227.544 34.8608 227.544 34.4581C227.544 34.0504 227.699 33.7049 228.007 33.4215C228.315 33.1332 228.683 32.989 229.111 32.989C229.543 32.989 229.911 33.1332 230.214 33.4215C230.522 33.7049 230.677 34.0504 230.677 34.4581C230.677 34.8608 230.522 35.2063 230.214 35.4947C229.911 35.7781 229.543 35.9197 229.111 35.9197ZM238.225 49.2237C237.082 49.2237 236.1 48.9727 235.28 48.4705C234.464 47.9684 233.835 47.2749 233.393 46.3899C232.955 45.5 232.737 44.4759 232.737 43.3175C232.737 42.1541 232.96 41.1275 233.408 40.2376C233.855 39.3427 234.487 38.6467 235.302 38.1495C236.122 37.6474 237.092 37.3963 238.21 37.3963C239.14 37.3963 239.963 37.5678 240.679 37.9109C241.4 38.2489 241.974 38.7287 242.401 39.3501C242.829 39.9666 243.073 40.6875 243.132 41.5128H240.552C240.448 40.9609 240.199 40.5011 239.806 40.1332C239.419 39.7603 238.899 39.5739 238.248 39.5739C237.696 39.5739 237.211 39.723 236.794 40.0213C236.376 40.3146 236.05 40.7372 235.817 41.2891C235.588 41.8409 235.474 42.5021 235.474 43.2727C235.474 44.0533 235.588 44.7244 235.817 45.2862C236.045 45.843 236.366 46.2731 236.779 46.5763C237.196 46.8746 237.686 47.0238 238.248 47.0238C238.645 47.0238 239.001 46.9492 239.314 46.8001C239.632 46.646 239.898 46.4247 240.112 46.1364C240.326 45.848 240.472 45.4975 240.552 45.0849H243.132C243.068 45.8952 242.829 46.6136 242.416 47.2401C242.004 47.8615 241.442 48.3487 240.731 48.7017C240.02 49.0497 239.185 49.2237 238.225 49.2237ZM248.645 49.2312C247.919 49.2312 247.266 49.1019 246.684 48.8434C246.107 48.5799 245.65 48.1921 245.312 47.68C244.979 47.168 244.812 46.5366 244.812 45.7859C244.812 45.1396 244.931 44.6051 245.17 44.1825C245.409 43.7599 245.734 43.4219 246.147 43.1683C246.56 42.9148 247.024 42.7234 247.541 42.5941C248.063 42.4599 248.603 42.3629 249.16 42.3033C249.831 42.2337 250.375 42.1715 250.793 42.1168C251.21 42.0572 251.514 41.9677 251.703 41.8484C251.897 41.7241 251.994 41.5327 251.994 41.2741V41.2294C251.994 40.6676 251.827 40.2326 251.494 39.9244C251.161 39.6161 250.681 39.462 250.055 39.462C249.393 39.462 248.869 39.6062 248.481 39.8945C248.098 40.1829 247.84 40.5234 247.706 40.9162L245.185 40.5582C245.384 39.8622 245.712 39.2805 246.169 38.8132C246.627 38.3409 247.186 37.9879 247.847 37.7543C248.508 37.5156 249.239 37.3963 250.04 37.3963C250.592 37.3963 251.141 37.4609 251.688 37.5902C252.235 37.7195 252.734 37.9332 253.187 38.2315C253.639 38.5249 254.002 38.9251 254.275 39.4322C254.554 39.9393 254.693 40.5732 254.693 41.3338V49H252.098V47.4265H252.008C251.844 47.7447 251.613 48.043 251.315 48.3214C251.022 48.5948 250.651 48.8161 250.204 48.9851C249.761 49.1491 249.242 49.2312 248.645 49.2312ZM249.346 47.2475C249.888 47.2475 250.358 47.1406 250.756 46.9268C251.153 46.7081 251.459 46.4197 251.673 46.0618C251.892 45.7038 252.001 45.3136 252.001 44.891V43.5412C251.916 43.6108 251.772 43.6754 251.568 43.7351C251.37 43.7947 251.146 43.8469 250.897 43.8917C250.649 43.9364 250.403 43.9762 250.159 44.011C249.915 44.0458 249.704 44.0756 249.525 44.1005C249.122 44.1552 248.762 44.2447 248.444 44.369C248.126 44.4933 247.875 44.6673 247.691 44.891C247.507 45.1097 247.415 45.3931 247.415 45.7411C247.415 46.2383 247.596 46.6136 247.959 46.8672C248.322 47.1207 248.784 47.2475 249.346 47.2475Z" fill="white"/>
<rect width="57" height="58" rx="10" fill="#F8F8F8"/>
<path d="M23.6562 10C25.9496 10 27.8125 11.8629 27.8125 14.1562V43.8438C27.8125 46.1371 25.9496 48 23.6562 48C21.5113 48 19.7449 46.3746 19.5223 44.2816C19.1363 44.3855 18.7281 44.4375 18.3125 44.4375C15.6926 44.4375 13.5625 42.3074 13.5625 39.6875C13.5625 39.1383 13.659 38.6039 13.8297 38.1141C11.5883 37.268 10 35.1008 10 32.5625C10 30.1949 11.3879 28.1465 13.3992 27.1965C12.7535 26.3875 12.375 25.3633 12.375 24.25C12.375 21.9715 13.9781 20.0715 16.1156 19.6039C15.9969 19.1957 15.9375 18.7578 15.9375 18.3125C15.9375 16.0934 17.4664 14.223 19.5223 13.7035C19.7449 11.6254 21.5113 10 23.6562 10ZM34.3438 10C36.4887 10 38.2477 11.6254 38.4777 13.7035C40.541 14.223 42.0625 16.0859 42.0625 18.3125C42.0625 18.7578 42.0031 19.1957 41.8844 19.6039C44.0219 20.0641 45.625 21.9715 45.625 24.25C45.625 25.3633 45.2465 26.3875 44.6008 27.1965C46.6121 28.1465 48 30.1949 48 32.5625C48 35.1008 46.4117 37.268 44.1703 38.1141C44.341 38.6039 44.4375 39.1383 44.4375 39.6875C44.4375 42.3074 42.3074 44.4375 39.6875 44.4375C39.2719 44.4375 38.8637 44.3855 38.4777 44.2816C38.2551 46.3746 36.4887 48 34.3438 48C32.0504 48 30.1875 46.1371 30.1875 43.8438V14.1562C30.1875 11.8629 32.0504 10 34.3438 10Z" fill="#71B1FD"/>
</svg>
