<svg width="254" height="58" viewBox="0 0 254 58" fill="none" xmlns="http://www.w3.org/2000/svg">
<path d="M69.8913 21.554V11.233H72.233V21.554H69.8913ZM65.9016 17.5643V15.2227H76.2227V17.5643H65.9016ZM79.4722 24L85.9676 11.1435V11.0391H78.4282V8.72727H88.8312V11.0913L82.3433 24H79.4722ZM96.5552 24.2908C95.3272 24.2908 94.2733 23.9801 93.3933 23.3587C92.5183 22.7322 91.8446 21.8299 91.3723 20.6516C90.905 19.4684 90.6713 18.044 90.6713 16.3786C90.6763 14.7131 90.9125 13.2962 91.3798 12.1278C91.8521 10.9545 92.5257 10.0597 93.4007 9.44318C94.2807 8.8267 95.3322 8.51847 96.5552 8.51847C97.7782 8.51847 98.8297 8.8267 99.7097 9.44318C100.59 10.0597 101.263 10.9545 101.731 12.1278C102.203 13.3011 102.439 14.718 102.439 16.3786C102.439 18.049 102.203 19.4759 101.731 20.6591C101.263 21.8374 100.59 22.7372 99.7097 23.3587C98.8347 23.9801 97.7832 24.2908 96.5552 24.2908ZM96.5552 21.9567C97.5098 21.9567 98.263 21.4869 98.8148 20.5472C99.3716 19.6026 99.65 18.2131 99.65 16.3786C99.65 15.1655 99.5233 14.1463 99.2697 13.321C99.0162 12.4957 98.6582 11.8743 98.1958 11.4567C97.7335 11.0341 97.1866 10.8228 96.5552 10.8228C95.6056 10.8228 94.8549 11.2951 94.3031 12.2397C93.7512 13.1793 93.4728 14.5589 93.4679 16.3786C93.4629 17.5966 93.5847 18.6207 93.8333 19.451C94.0868 20.2812 94.4448 20.9077 94.9071 21.3303C95.3695 21.7479 95.9189 21.9567 96.5552 21.9567ZM110.562 24.2908C109.334 24.2908 108.28 23.9801 107.4 23.3587C106.525 22.7322 105.851 21.8299 105.379 20.6516C104.912 19.4684 104.678 18.044 104.678 16.3786C104.683 14.7131 104.919 13.2962 105.387 12.1278C105.859 10.9545 106.533 10.0597 107.408 9.44318C108.288 8.8267 109.339 8.51847 110.562 8.51847C111.785 8.51847 112.837 8.8267 113.717 9.44318C114.597 10.0597 115.27 10.9545 115.737 12.1278C116.21 13.3011 116.446 14.718 116.446 16.3786C116.446 18.049 116.21 19.4759 115.737 20.6591C115.27 21.8374 114.597 22.7372 113.717 23.3587C112.842 23.9801 111.79 24.2908 110.562 24.2908ZM110.562 21.9567C111.517 21.9567 112.27 21.4869 112.822 20.5472C113.378 19.6026 113.657 18.2131 113.657 16.3786C113.657 15.1655 113.53 14.1463 113.277 13.321C113.023 12.4957 112.665 11.8743 112.203 11.4567C111.74 11.0341 111.193 10.8228 110.562 10.8228C109.612 10.8228 108.862 11.2951 108.31 12.2397C107.758 13.1793 107.48 14.5589 107.475 16.3786C107.47 17.5966 107.592 18.6207 107.84 19.451C108.094 20.2812 108.452 20.9077 108.914 21.3303C109.376 21.7479 109.926 21.9567 110.562 21.9567ZM124.569 24.2908C123.341 24.2908 122.287 23.9801 121.407 23.3587C120.532 22.7322 119.858 21.8299 119.386 20.6516C118.919 19.4684 118.685 18.044 118.685 16.3786C118.69 14.7131 118.926 13.2962 119.393 12.1278C119.866 10.9545 120.539 10.0597 121.414 9.44318C122.294 8.8267 123.346 8.51847 124.569 8.51847C125.792 8.51847 126.843 8.8267 127.723 9.44318C128.603 10.0597 129.277 10.9545 129.744 12.1278C130.217 13.3011 130.453 14.718 130.453 16.3786C130.453 18.049 130.217 19.4759 129.744 20.6591C129.277 21.8374 128.603 22.7372 127.723 23.3587C126.848 23.9801 125.797 24.2908 124.569 24.2908ZM124.569 21.9567C125.523 21.9567 126.277 21.4869 126.828 20.5472C127.385 19.6026 127.664 18.2131 127.664 16.3786C127.664 15.1655 127.537 14.1463 127.283 13.321C127.03 12.4957 126.672 11.8743 126.21 11.4567C125.747 11.0341 125.2 10.8228 124.569 10.8228C123.619 10.8228 122.869 11.2951 122.317 12.2397C121.765 13.1793 121.487 14.5589 121.482 16.3786C121.477 17.5966 121.598 18.6207 121.847 19.451C122.1 20.2812 122.458 20.9077 122.921 21.3303C123.383 21.7479 123.933 21.9567 124.569 21.9567ZM140.869 17.2884V24H138.169V8.72727H140.809V14.4918H140.943C141.212 13.8455 141.627 13.3359 142.189 12.9631C142.756 12.5852 143.476 12.3963 144.351 12.3963C145.147 12.3963 145.84 12.5629 146.432 12.896C147.024 13.229 147.481 13.7163 147.804 14.3576C148.132 14.9989 148.296 15.782 148.296 16.7067V24H145.597V17.1243C145.597 16.3537 145.398 15.7546 145 15.3271C144.608 14.8945 144.056 14.6783 143.345 14.6783C142.867 14.6783 142.44 14.7827 142.062 14.9915C141.689 15.1953 141.396 15.4911 141.182 15.8789C140.973 16.2667 140.869 16.7365 140.869 17.2884ZM156.045 24.2237C154.926 24.2237 153.957 23.9776 153.136 23.4854C152.316 22.9933 151.68 22.3047 151.227 21.4197C150.78 20.5348 150.556 19.5007 150.556 18.3175C150.556 17.1342 150.78 16.0977 151.227 15.2077C151.68 14.3178 152.316 13.6268 153.136 13.1346C153.957 12.6424 154.926 12.3963 156.045 12.3963C157.163 12.3963 158.133 12.6424 158.953 13.1346C159.773 13.6268 160.407 14.3178 160.855 15.2077C161.307 16.0977 161.533 17.1342 161.533 18.3175C161.533 19.5007 161.307 20.5348 160.855 21.4197C160.407 22.3047 159.773 22.9933 158.953 23.4854C158.133 23.9776 157.163 24.2237 156.045 24.2237ZM156.06 22.0611C156.666 22.0611 157.173 21.8945 157.581 21.5614C157.989 21.2234 158.292 20.771 158.491 20.2042C158.695 19.6374 158.796 19.006 158.796 18.31C158.796 17.609 158.695 16.9751 158.491 16.4084C158.292 15.8366 157.989 15.3817 157.581 15.0437C157.173 14.7056 156.666 14.5366 156.06 14.5366C155.438 14.5366 154.921 14.7056 154.508 15.0437C154.101 15.3817 153.795 15.8366 153.591 16.4084C153.392 16.9751 153.293 17.609 153.293 18.31C153.293 19.006 153.392 19.6374 153.591 20.2042C153.795 20.771 154.101 21.2234 154.508 21.5614C154.921 21.8945 155.438 22.0611 156.06 22.0611ZM163.825 24V12.5455H166.442V14.4545H166.561C166.77 13.7933 167.128 13.2837 167.635 12.9258C168.147 12.5629 168.732 12.3814 169.388 12.3814C169.537 12.3814 169.703 12.3888 169.887 12.4038C170.076 12.4137 170.233 12.4311 170.357 12.456V14.9393C170.243 14.8995 170.061 14.8647 169.813 14.8349C169.569 14.8001 169.333 14.7827 169.104 14.7827C168.612 14.7827 168.17 14.8896 167.777 15.1033C167.389 15.3121 167.083 15.603 166.86 15.9759C166.636 16.3487 166.524 16.7788 166.524 17.266V24H163.825ZM175.242 24.2312C174.516 24.2312 173.862 24.1019 173.281 23.8434C172.704 23.5799 172.246 23.1921 171.908 22.68C171.575 22.168 171.409 21.5366 171.409 20.7859C171.409 20.1396 171.528 19.6051 171.767 19.1825C172.005 18.7599 172.331 18.4219 172.744 18.1683C173.156 17.9148 173.621 17.7234 174.138 17.5941C174.66 17.4599 175.2 17.3629 175.756 17.3033C176.428 17.2337 176.972 17.1715 177.39 17.1168C177.807 17.0572 178.11 16.9677 178.299 16.8484C178.493 16.7241 178.59 16.5327 178.59 16.2741V16.2294C178.59 15.6676 178.424 15.2326 178.091 14.9244C177.757 14.6161 177.278 14.462 176.651 14.462C175.99 14.462 175.466 14.6062 175.078 14.8945C174.695 15.1829 174.436 15.5234 174.302 15.9162L171.782 15.5582C171.98 14.8622 172.309 14.2805 172.766 13.8132C173.223 13.3409 173.783 12.9879 174.444 12.7543C175.105 12.5156 175.836 12.3963 176.636 12.3963C177.188 12.3963 177.738 12.4609 178.284 12.5902C178.831 12.7195 179.331 12.9332 179.783 13.2315C180.236 13.5249 180.599 13.9251 180.872 14.4322C181.151 14.9393 181.29 15.5732 181.29 16.3338V24H178.695V22.4265H178.605C178.441 22.7447 178.21 23.043 177.912 23.3214C177.618 23.5948 177.248 23.8161 176.8 23.9851C176.358 24.1491 175.838 24.2312 175.242 24.2312ZM175.943 22.2475C176.485 22.2475 176.955 22.1406 177.352 21.9268C177.75 21.7081 178.056 21.4197 178.27 21.0618C178.488 20.7038 178.598 20.3136 178.598 19.891V18.5412C178.513 18.6108 178.369 18.6754 178.165 18.7351C177.966 18.7947 177.743 18.8469 177.494 18.8917C177.245 18.9364 176.999 18.9762 176.756 19.011C176.512 19.0458 176.301 19.0756 176.122 19.1005C175.719 19.1552 175.359 19.2447 175.04 19.369C174.722 19.4933 174.471 19.6673 174.287 19.891C174.103 20.1097 174.011 20.3931 174.011 20.7411C174.011 21.2383 174.193 21.6136 174.556 21.8672C174.919 22.1207 175.381 22.2475 175.943 22.2475ZM193.058 15.5732L190.597 15.8416C190.527 15.593 190.405 15.3594 190.231 15.1406C190.062 14.9219 189.833 14.7454 189.545 14.6112C189.257 14.4769 188.904 14.4098 188.486 14.4098C187.924 14.4098 187.452 14.5316 187.069 14.7752C186.691 15.0188 186.505 15.3345 186.51 15.7223C186.505 16.0554 186.627 16.3263 186.875 16.5352C187.129 16.744 187.547 16.9155 188.128 17.0497L190.082 17.4673C191.166 17.701 191.971 18.0714 192.498 18.5785C193.03 19.0856 193.299 19.7493 193.304 20.5696C193.299 21.2905 193.087 21.9268 192.67 22.4787C192.257 23.0256 191.683 23.4531 190.947 23.7614C190.211 24.0696 189.366 24.2237 188.412 24.2237C187.01 24.2237 185.881 23.9304 185.026 23.3438C184.171 22.7521 183.661 21.9293 183.497 20.8754L186.13 20.6218C186.249 21.1388 186.502 21.5291 186.89 21.7926C187.278 22.0561 187.783 22.1879 188.404 22.1879C189.045 22.1879 189.56 22.0561 189.948 21.7926C190.341 21.5291 190.537 21.2035 190.537 20.8157C190.537 20.4876 190.41 20.2166 190.157 20.0028C189.908 19.7891 189.52 19.625 188.993 19.5107L187.039 19.1005C185.941 18.8718 185.128 18.4865 184.601 17.9446C184.074 17.3977 183.813 16.7067 183.818 15.8714C183.813 15.1655 184.004 14.554 184.392 14.0369C184.785 13.5149 185.329 13.1122 186.025 12.8288C186.726 12.5405 187.534 12.3963 188.449 12.3963C189.791 12.3963 190.848 12.6822 191.618 13.2539C192.394 13.8256 192.874 14.5987 193.058 15.5732ZM204.989 24.2013C204.089 24.2013 203.284 23.9702 202.573 23.5078C201.862 23.0455 201.3 22.3743 200.888 21.4943C200.475 20.6143 200.269 19.5455 200.269 18.2876C200.269 17.0149 200.478 15.9411 200.895 15.0661C201.318 14.1861 201.887 13.5224 202.603 13.0749C203.319 12.6225 204.117 12.3963 204.997 12.3963C205.668 12.3963 206.22 12.5107 206.652 12.7393C207.085 12.9631 207.428 13.234 207.681 13.5522C207.935 13.8654 208.131 14.1612 208.271 14.4396H208.382V8.72727H211.089V24H208.435V22.1953H208.271C208.131 22.4737 207.93 22.7695 207.667 23.0827C207.403 23.391 207.055 23.6545 206.623 23.8732C206.19 24.092 205.646 24.2013 204.989 24.2013ZM205.743 21.9865C206.314 21.9865 206.801 21.8324 207.204 21.5241C207.607 21.2109 207.913 20.7759 208.121 20.2191C208.33 19.6623 208.435 19.0135 208.435 18.2727C208.435 17.532 208.33 16.8881 208.121 16.3413C207.918 15.7944 207.614 15.3693 207.212 15.0661C206.814 14.7628 206.324 14.6112 205.743 14.6112C205.141 14.6112 204.639 14.7678 204.236 15.081C203.833 15.3942 203.53 15.8267 203.326 16.3786C203.123 16.9304 203.021 17.5618 203.021 18.2727C203.021 18.9886 203.123 19.6275 203.326 20.1893C203.535 20.7461 203.841 21.1861 204.244 21.5092C204.651 21.8274 205.151 21.9865 205.743 21.9865ZM219.037 24.2237C217.889 24.2237 216.897 23.9851 216.062 23.5078C215.231 23.0256 214.593 22.3445 214.145 21.4645C213.698 20.5795 213.474 19.538 213.474 18.3398C213.474 17.1616 213.698 16.1275 214.145 15.2376C214.598 14.3427 215.229 13.6467 216.039 13.1495C216.85 12.6474 217.802 12.3963 218.896 12.3963C219.601 12.3963 220.268 12.5107 220.894 12.7393C221.525 12.9631 222.082 13.3111 222.565 13.7834C223.052 14.2557 223.435 14.8572 223.713 15.5881C223.991 16.3139 224.131 17.179 224.131 18.1832V19.011H214.742V17.1914H221.543C221.538 16.6744 221.426 16.2145 221.207 15.8118C220.989 15.4041 220.683 15.0835 220.29 14.8498C219.902 14.6161 219.45 14.4993 218.933 14.4993C218.381 14.4993 217.896 14.6335 217.479 14.902C217.061 15.1655 216.735 15.5135 216.502 15.946C216.273 16.3736 216.156 16.8434 216.151 17.3555V18.9439C216.151 19.6101 216.273 20.1818 216.517 20.6591C216.76 21.1314 217.101 21.4943 217.538 21.7479C217.976 21.9964 218.488 22.1207 219.074 22.1207C219.467 22.1207 219.823 22.0661 220.141 21.9567C220.459 21.8423 220.735 21.6758 220.969 21.457C221.202 21.2383 221.379 20.9673 221.498 20.6442L224.019 20.9276C223.86 21.5937 223.556 22.1754 223.109 22.6726C222.666 23.1648 222.1 23.5476 221.409 23.821C220.718 24.0895 219.927 24.2237 219.037 24.2237ZM70.4581 49.2237C69.3097 49.2237 68.3178 48.9851 67.4826 48.5078C66.6523 48.0256 66.0135 47.3445 65.5661 46.4645C65.1186 45.5795 64.8949 44.538 64.8949 43.3398C64.8949 42.1616 65.1186 41.1275 65.5661 40.2376C66.0185 39.3427 66.6499 38.6467 67.4602 38.1495C68.2706 37.6474 69.2227 37.3963 70.3164 37.3963C71.0224 37.3963 71.6886 37.5107 72.315 37.7393C72.9464 37.9631 73.5032 38.3111 73.9854 38.7834C74.4727 39.2557 74.8555 39.8572 75.1339 40.5881C75.4123 41.3139 75.5515 42.179 75.5515 43.1832V44.011H66.1626V42.1914H72.9638C72.9588 41.6744 72.8469 41.2145 72.6282 40.8118C72.4094 40.4041 72.1037 40.0835 71.7109 39.8498C71.3232 39.6161 70.8707 39.4993 70.3537 39.4993C69.8018 39.4993 69.3171 39.6335 68.8995 39.902C68.4819 40.1655 68.1563 40.5135 67.9226 40.946C67.6939 41.3736 67.5771 41.8434 67.5721 42.3555V43.9439C67.5721 44.6101 67.6939 45.1818 67.9375 45.6591C68.1811 46.1314 68.5217 46.4943 68.9592 46.7479C69.3967 46.9964 69.9087 47.1207 70.4954 47.1207C70.8881 47.1207 71.2436 47.0661 71.5618 46.9567C71.88 46.8423 72.1559 46.6758 72.3896 46.457C72.6232 46.2383 72.7997 45.9673 72.919 45.6442L75.4396 45.9276C75.2805 46.5937 74.9773 47.1754 74.5298 47.6726C74.0874 48.1648 73.5206 48.5476 72.8295 48.821C72.1385 49.0895 71.348 49.2237 70.4581 49.2237ZM79.7966 37.5455L82.1084 41.7738L84.4575 37.5455H87.3137L83.8609 43.2727L87.3733 49H84.532L82.1084 44.8761L79.7071 49H76.8435L80.3335 43.2727L76.933 37.5455H79.7966ZM89.4017 53.2955V37.5455H92.0566V39.4396H92.2132C92.3524 39.1612 92.5487 38.8654 92.8023 38.5522C93.0558 38.234 93.3989 37.9631 93.8314 37.7393C94.2639 37.5107 94.8158 37.3963 95.4869 37.3963C96.3719 37.3963 97.1698 37.6225 97.8808 38.0749C98.5967 38.5224 99.1634 39.1861 99.5811 40.0661C100.004 40.9411 100.215 42.0149 100.215 43.2876C100.215 44.5455 100.009 45.6143 99.596 46.4943C99.1833 47.3743 98.6215 48.0455 97.9106 48.5078C97.1997 48.9702 96.3943 49.2013 95.4944 49.2013C94.8382 49.2013 94.2938 49.092 93.8612 48.8732C93.4287 48.6545 93.0807 48.391 92.8172 48.0827C92.5587 47.7695 92.3573 47.4737 92.2132 47.1953H92.1013V53.2955H89.4017ZM92.0491 43.2727C92.0491 44.0135 92.1535 44.6623 92.3623 45.2191C92.5761 45.7759 92.8818 46.2109 93.2796 46.5241C93.6823 46.8324 94.1695 46.9865 94.7412 46.9865C95.3378 46.9865 95.8374 46.8274 96.2401 46.5092C96.6428 46.1861 96.9461 45.7461 97.1499 45.1893C97.3588 44.6275 97.4632 43.9886 97.4632 43.2727C97.4632 42.5618 97.3612 41.9304 97.1574 41.3786C96.9536 40.8267 96.6503 40.3942 96.2476 40.081C95.8449 39.7678 95.3428 39.6112 94.7412 39.6112C94.1645 39.6112 93.6748 39.7628 93.2721 40.0661C92.8694 40.3693 92.5637 40.7944 92.3548 41.3413C92.151 41.8881 92.0491 42.532 92.0491 43.2727ZM107.598 49.2237C106.449 49.2237 105.457 48.9851 104.622 48.5078C103.792 48.0256 103.153 47.3445 102.706 46.4645C102.258 45.5795 102.035 44.538 102.035 43.3398C102.035 42.1616 102.258 41.1275 102.706 40.2376C103.158 39.3427 103.79 38.6467 104.6 38.1495C105.41 37.6474 106.362 37.3963 107.456 37.3963C108.162 37.3963 108.828 37.5107 109.455 37.7393C110.086 37.9631 110.643 38.3111 111.125 38.7834C111.612 39.2557 111.995 39.8572 112.274 40.5881C112.552 41.3139 112.691 42.179 112.691 43.1832V44.011H103.302V42.1914H110.103C110.098 41.6744 109.987 41.2145 109.768 40.8118C109.549 40.4041 109.243 40.0835 108.851 39.8498C108.463 39.6161 108.01 39.4993 107.493 39.4993C106.941 39.4993 106.457 39.6335 106.039 39.902C105.622 40.1655 105.296 40.5135 105.062 40.946C104.834 41.3736 104.717 41.8434 104.712 42.3555V43.9439C104.712 44.6101 104.834 45.1818 105.077 45.6591C105.321 46.1314 105.661 46.4943 106.099 46.7479C106.536 46.9964 107.048 47.1207 107.635 47.1207C108.028 47.1207 108.383 47.0661 108.701 46.9567C109.02 46.8423 109.296 46.6758 109.529 46.457C109.763 46.2383 109.939 45.9673 110.059 45.6442L112.579 45.9276C112.42 46.5937 112.117 47.1754 111.669 47.6726C111.227 48.1648 110.66 48.5476 109.969 48.821C109.278 49.0895 108.488 49.2237 107.598 49.2237ZM114.975 49V37.5455H117.593V39.4545H117.712C117.921 38.7933 118.279 38.2837 118.786 37.9258C119.298 37.5629 119.882 37.3814 120.538 37.3814C120.687 37.3814 120.854 37.3888 121.038 37.4038C121.227 37.4137 121.383 37.4311 121.508 37.456V39.9393C121.393 39.8995 121.212 39.8647 120.963 39.8349C120.72 39.8001 120.483 39.7827 120.255 39.7827C119.763 39.7827 119.32 39.8896 118.927 40.1033C118.54 40.3121 118.234 40.603 118.01 40.9759C117.786 41.3487 117.675 41.7788 117.675 42.266V49H114.975ZM123.301 49V37.5455H126.001V49H123.301ZM124.658 35.9197C124.231 35.9197 123.863 35.7781 123.555 35.4947C123.246 35.2063 123.092 34.8608 123.092 34.4581C123.092 34.0504 123.246 33.7049 123.555 33.4215C123.863 33.1332 124.231 32.989 124.658 32.989C125.091 32.989 125.459 33.1332 125.762 33.4215C126.07 33.7049 126.224 34.0504 126.224 34.4581C126.224 34.8608 126.07 35.2063 125.762 35.4947C125.459 35.7781 125.091 35.9197 124.658 35.9197ZM133.848 49.2237C132.699 49.2237 131.707 48.9851 130.872 48.5078C130.042 48.0256 129.403 47.3445 128.956 46.4645C128.508 45.5795 128.285 44.538 128.285 43.3398C128.285 42.1616 128.508 41.1275 128.956 40.2376C129.408 39.3427 130.04 38.6467 130.85 38.1495C131.66 37.6474 132.612 37.3963 133.706 37.3963C134.412 37.3963 135.078 37.5107 135.705 37.7393C136.336 37.9631 136.893 38.3111 137.375 38.7834C137.862 39.2557 138.245 39.8572 138.524 40.5881C138.802 41.3139 138.941 42.179 138.941 43.1832V44.011H129.552V42.1914H136.353C136.348 41.6744 136.237 41.2145 136.018 40.8118C135.799 40.4041 135.493 40.0835 135.101 39.8498C134.713 39.6161 134.26 39.4993 133.743 39.4993C133.191 39.4993 132.707 39.6335 132.289 39.902C131.872 40.1655 131.546 40.5135 131.312 40.946C131.084 41.3736 130.967 41.8434 130.962 42.3555V43.9439C130.962 44.6101 131.084 45.1818 131.327 45.6591C131.571 46.1314 131.911 46.4943 132.349 46.7479C132.786 46.9964 133.298 47.1207 133.885 47.1207C134.278 47.1207 134.633 47.0661 134.951 46.9567C135.27 46.8423 135.546 46.6758 135.779 46.457C136.013 46.2383 136.189 45.9673 136.309 45.6442L138.829 45.9276C138.67 46.5937 138.367 47.1754 137.919 47.6726C137.477 48.1648 136.91 48.5476 136.219 48.821C135.528 49.0895 134.738 49.2237 133.848 49.2237ZM135.145 36.1733L133.631 34.2642L132.118 36.1733H129.754V36.0689L132.58 32.8473H134.69L137.509 36.0689V36.1733H135.145ZM143.925 42.2884V49H141.225V37.5455H143.805V39.4918H143.939C144.203 38.8505 144.623 38.3409 145.2 37.9631C145.781 37.5852 146.5 37.3963 147.355 37.3963C148.145 37.3963 148.834 37.5653 149.421 37.9034C150.012 38.2415 150.47 38.7312 150.793 39.3725C151.121 40.0138 151.282 40.7919 151.278 41.7067V49H148.578V42.1243C148.578 41.3587 148.379 40.7596 147.981 40.3271C147.589 39.8945 147.044 39.6783 146.348 39.6783C145.876 39.6783 145.456 39.7827 145.088 39.9915C144.725 40.1953 144.439 40.4911 144.23 40.8789C144.026 41.2667 143.925 41.7365 143.925 42.2884ZM159.018 49.2237C157.875 49.2237 156.893 48.9727 156.073 48.4705C155.257 47.9684 154.628 47.2749 154.186 46.3899C153.748 45.5 153.53 44.4759 153.53 43.3175C153.53 42.1541 153.753 41.1275 154.201 40.2376C154.648 39.3427 155.28 38.6467 156.095 38.1495C156.915 37.6474 157.885 37.3963 159.003 37.3963C159.933 37.3963 160.756 37.5678 161.472 37.9109C162.193 38.2489 162.767 38.7287 163.194 39.3501C163.622 39.9666 163.866 40.6875 163.925 41.5128H161.345C161.241 40.9609 160.992 40.5011 160.599 40.1332C160.211 39.7603 159.692 39.5739 159.041 39.5739C158.489 39.5739 158.004 39.723 157.586 40.0213C157.169 40.3146 156.843 40.7372 156.61 41.2891C156.381 41.8409 156.267 42.5021 156.267 43.2727C156.267 44.0533 156.381 44.7244 156.61 45.2862C156.838 45.843 157.159 46.2731 157.572 46.5763C157.989 46.8746 158.479 47.0238 159.041 47.0238C159.438 47.0238 159.794 46.9492 160.107 46.8001C160.425 46.646 160.691 46.4247 160.905 46.1364C161.119 45.848 161.265 45.4975 161.345 45.0849H163.925C163.861 45.8952 163.622 46.6136 163.209 47.2401C162.797 47.8615 162.235 48.3487 161.524 48.7017C160.813 49.0497 159.978 49.2237 159.018 49.2237ZM166.142 49V37.5455H168.842V49H166.142ZM167.499 35.9197C167.072 35.9197 166.704 35.7781 166.396 35.4947C166.087 35.2063 165.933 34.8608 165.933 34.4581C165.933 34.0504 166.087 33.7049 166.396 33.4215C166.704 33.1332 167.072 32.989 167.499 32.989C167.932 32.989 168.3 33.1332 168.603 33.4215C168.911 33.7049 169.065 34.0504 169.065 34.4581C169.065 34.8608 168.911 35.2063 168.603 35.4947C168.3 35.7781 167.932 35.9197 167.499 35.9197ZM174.914 49.2312C174.188 49.2312 173.534 49.1019 172.952 48.8434C172.376 48.5799 171.918 48.1921 171.58 47.68C171.247 47.168 171.081 46.5366 171.081 45.7859C171.081 45.1396 171.2 44.6051 171.439 44.1825C171.677 43.7599 172.003 43.4219 172.415 43.1683C172.828 42.9148 173.293 42.7234 173.81 42.5941C174.332 42.4599 174.871 42.3629 175.428 42.3033C176.099 42.2337 176.644 42.1715 177.061 42.1168C177.479 42.0572 177.782 41.9677 177.971 41.8484C178.165 41.7241 178.262 41.5327 178.262 41.2741V41.2294C178.262 40.6676 178.096 40.2326 177.762 39.9244C177.429 39.6161 176.95 39.462 176.323 39.462C175.662 39.462 175.137 39.6062 174.75 39.8945C174.367 40.1829 174.108 40.5234 173.974 40.9162L171.453 40.5582C171.652 39.8622 171.98 39.2805 172.438 38.8132C172.895 38.3409 173.455 37.9879 174.116 37.7543C174.777 37.5156 175.508 37.3963 176.308 37.3963C176.86 37.3963 177.409 37.4609 177.956 37.5902C178.503 37.7195 179.003 37.9332 179.455 38.2315C179.908 38.5249 180.271 38.9251 180.544 39.4322C180.822 39.9393 180.962 40.5732 180.962 41.3338V49H178.366V47.4265H178.277C178.113 47.7447 177.882 48.043 177.583 48.3214C177.29 48.5948 176.92 48.8161 176.472 48.9851C176.03 49.1491 175.51 49.2312 174.914 49.2312ZM175.615 47.2475C176.157 47.2475 176.626 47.1406 177.024 46.9268C177.422 46.7081 177.728 46.4197 177.941 46.0618C178.16 45.7038 178.27 45.3136 178.27 44.891V43.5412C178.185 43.6108 178.041 43.6754 177.837 43.7351C177.638 43.7947 177.414 43.8469 177.166 43.8917C176.917 43.9364 176.671 43.9762 176.428 44.011C176.184 44.0458 175.973 44.0756 175.794 44.1005C175.391 44.1552 175.031 44.2447 174.712 44.369C174.394 44.4933 174.143 44.6673 173.959 44.891C173.775 45.1097 173.683 45.3931 173.683 45.7411C173.683 46.2383 173.865 46.6136 174.228 46.8672C174.591 47.1207 175.053 47.2475 175.615 47.2475ZM193.882 49.2237C192.738 49.2237 191.756 48.9727 190.936 48.4705C190.121 47.9684 189.492 47.2749 189.049 46.3899C188.612 45.5 188.393 44.4759 188.393 43.3175C188.393 42.1541 188.617 41.1275 189.064 40.2376C189.512 39.3427 190.143 38.6467 190.958 38.1495C191.779 37.6474 192.748 37.3963 193.867 37.3963C194.796 37.3963 195.619 37.5678 196.335 37.9109C197.056 38.2489 197.63 38.7287 198.058 39.3501C198.485 39.9666 198.729 40.6875 198.789 41.5128H196.208C196.104 40.9609 195.855 40.5011 195.463 40.1332C195.075 39.7603 194.555 39.5739 193.904 39.5739C193.352 39.5739 192.867 39.723 192.45 40.0213C192.032 40.3146 191.706 40.7372 191.473 41.2891C191.244 41.8409 191.13 42.5021 191.13 43.2727C191.13 44.0533 191.244 44.7244 191.473 45.2862C191.702 45.843 192.022 46.2731 192.435 46.5763C192.852 46.8746 193.342 47.0238 193.904 47.0238C194.302 47.0238 194.657 46.9492 194.97 46.8001C195.289 46.646 195.555 46.4247 195.768 46.1364C195.982 45.848 196.129 45.4975 196.208 45.0849H198.789C198.724 45.8952 198.485 46.6136 198.073 47.2401C197.66 47.8615 197.098 48.3487 196.387 48.7017C195.676 49.0497 194.841 49.2237 193.882 49.2237ZM203.705 33.7273V49H201.005V33.7273H203.705ZM206.481 49V37.5455H209.18V49H206.481ZM206.801 36.0391L208.472 32.631H211.112L208.822 36.0391H206.801ZM214.656 42.2884V49H211.956V37.5455H214.537V39.4918H214.671C214.934 38.8505 215.354 38.3409 215.931 37.9631C216.513 37.5852 217.231 37.3963 218.086 37.3963C218.877 37.3963 219.565 37.5653 220.152 37.9034C220.744 38.2415 221.201 38.7312 221.524 39.3725C221.852 40.0138 222.014 40.7919 222.009 41.7067V49H219.309V42.1243C219.309 41.3587 219.111 40.7596 218.713 40.3271C218.32 39.8945 217.776 39.6783 217.08 39.6783C216.607 39.6783 216.187 39.7827 215.819 39.9915C215.456 40.1953 215.171 40.4911 214.962 40.8789C214.758 41.2667 214.656 41.7365 214.656 42.2884ZM224.753 49V37.5455H227.453V49H224.753ZM226.111 35.9197C225.683 35.9197 225.315 35.7781 225.007 35.4947C224.699 35.2063 224.544 34.8608 224.544 34.4581C224.544 34.0504 224.699 33.7049 225.007 33.4215C225.315 33.1332 225.683 32.989 226.111 32.989C226.543 32.989 226.911 33.1332 227.214 33.4215C227.522 33.7049 227.677 34.0504 227.677 34.4581C227.677 34.8608 227.522 35.2063 227.214 35.4947C226.911 35.7781 226.543 35.9197 226.111 35.9197ZM235.225 49.2237C234.082 49.2237 233.1 48.9727 232.28 48.4705C231.464 47.9684 230.835 47.2749 230.393 46.3899C229.955 45.5 229.737 44.4759 229.737 43.3175C229.737 42.1541 229.96 41.1275 230.408 40.2376C230.855 39.3427 231.487 38.6467 232.302 38.1495C233.122 37.6474 234.092 37.3963 235.21 37.3963C236.14 37.3963 236.963 37.5678 237.679 37.9109C238.4 38.2489 238.974 38.7287 239.401 39.3501C239.829 39.9666 240.073 40.6875 240.132 41.5128H237.552C237.448 40.9609 237.199 40.5011 236.806 40.1332C236.419 39.7603 235.899 39.5739 235.248 39.5739C234.696 39.5739 234.211 39.723 233.794 40.0213C233.376 40.3146 233.05 40.7372 232.817 41.2891C232.588 41.8409 232.474 42.5021 232.474 43.2727C232.474 44.0533 232.588 44.7244 232.817 45.2862C233.045 45.843 233.366 46.2731 233.779 46.5763C234.196 46.8746 234.686 47.0238 235.248 47.0238C235.645 47.0238 236.001 46.9492 236.314 46.8001C236.632 46.646 236.898 46.4247 237.112 46.1364C237.326 45.848 237.472 45.4975 237.552 45.0849H240.132C240.068 45.8952 239.829 46.6136 239.416 47.2401C239.004 47.8615 238.442 48.3487 237.731 48.7017C237.02 49.0497 236.185 49.2237 235.225 49.2237ZM245.645 49.2312C244.919 49.2312 244.266 49.1019 243.684 48.8434C243.107 48.5799 242.65 48.1921 242.312 47.68C241.979 47.168 241.812 46.5366 241.812 45.7859C241.812 45.1396 241.931 44.6051 242.17 44.1825C242.409 43.7599 242.734 43.4219 243.147 43.1683C243.56 42.9148 244.024 42.7234 244.541 42.5941C245.063 42.4599 245.603 42.3629 246.16 42.3033C246.831 42.2337 247.375 42.1715 247.793 42.1168C248.21 42.0572 248.514 41.9677 248.703 41.8484C248.897 41.7241 248.994 41.5327 248.994 41.2741V41.2294C248.994 40.6676 248.827 40.2326 248.494 39.9244C248.161 39.6161 247.681 39.462 247.055 39.462C246.393 39.462 245.869 39.6062 245.481 39.8945C245.098 40.1829 244.84 40.5234 244.706 40.9162L242.185 40.5582C242.384 39.8622 242.712 39.2805 243.169 38.8132C243.627 38.3409 244.186 37.9879 244.847 37.7543C245.508 37.5156 246.239 37.3963 247.04 37.3963C247.592 37.3963 248.141 37.4609 248.688 37.5902C249.235 37.7195 249.734 37.9332 250.187 38.2315C250.639 38.5249 251.002 38.9251 251.275 39.4322C251.554 39.9393 251.693 40.5732 251.693 41.3338V49H249.098V47.4265H249.008C248.844 47.7447 248.613 48.043 248.315 48.3214C248.022 48.5948 247.651 48.8161 247.204 48.9851C246.761 49.1491 246.242 49.2312 245.645 49.2312ZM246.346 47.2475C246.888 47.2475 247.358 47.1406 247.756 46.9268C248.153 46.7081 248.459 46.4197 248.673 46.0618C248.892 45.7038 249.001 45.3136 249.001 44.891V43.5412C248.916 43.6108 248.772 43.6754 248.568 43.7351C248.37 43.7947 248.146 43.8469 247.897 43.8917C247.649 43.9364 247.403 43.9762 247.159 44.011C246.915 44.0458 246.704 44.0756 246.525 44.1005C246.122 44.1552 245.762 44.2447 245.444 44.369C245.126 44.4933 244.875 44.6673 244.691 44.891C244.507 45.1097 244.415 45.3931 244.415 45.7411C244.415 46.2383 244.596 46.6136 244.959 46.8672C245.322 47.1207 245.784 47.2475 246.346 47.2475Z" fill="white"/>
<rect width="57" height="58" rx="10" fill="#F8F8F8"/>
<path d="M23.6562 10C25.9496 10 27.8125 11.8629 27.8125 14.1562V43.8438C27.8125 46.1371 25.9496 48 23.6562 48C21.5113 48 19.7449 46.3746 19.5223 44.2816C19.1363 44.3855 18.7281 44.4375 18.3125 44.4375C15.6926 44.4375 13.5625 42.3074 13.5625 39.6875C13.5625 39.1383 13.659 38.6039 13.8297 38.1141C11.5883 37.268 10 35.1008 10 32.5625C10 30.1949 11.3879 28.1465 13.3992 27.1965C12.7535 26.3875 12.375 25.3633 12.375 24.25C12.375 21.9715 13.9781 20.0715 16.1156 19.6039C15.9969 19.1957 15.9375 18.7578 15.9375 18.3125C15.9375 16.0934 17.4664 14.223 19.5223 13.7035C19.7449 11.6254 21.5113 10 23.6562 10ZM34.3438 10C36.4887 10 38.2477 11.6254 38.4777 13.7035C40.541 14.223 42.0625 16.0859 42.0625 18.3125C42.0625 18.7578 42.0031 19.1957 41.8844 19.6039C44.0219 20.0641 45.625 21.9715 45.625 24.25C45.625 25.3633 45.2465 26.3875 44.6008 27.1965C46.6121 28.1465 48 30.1949 48 32.5625C48 35.1008 46.4117 37.268 44.1703 38.1141C44.341 38.6039 44.4375 39.1383 44.4375 39.6875C44.4375 42.3074 42.3074 44.4375 39.6875 44.4375C39.2719 44.4375 38.8637 44.3855 38.4777 44.2816C38.2551 46.3746 36.4887 48 34.3438 48C32.0504 48 30.1875 46.1371 30.1875 43.8438V14.1562C30.1875 11.8629 32.0504 10 34.3438 10Z" fill="#71B1FD"/>
</svg>
