<svg width="297" height="58" viewBox="0 0 297 58" fill="none" xmlns="http://www.w3.org/2000/svg">
<path d="M65.5064 24V8.72727H71.2337C72.407 8.72727 73.3913 8.94602 74.1868 9.38352C74.9872 9.82102 75.5913 10.4226 75.9989 11.1882C76.4116 11.9489 76.6179 12.8139 76.6179 13.7834C76.6179 14.7628 76.4116 15.6328 75.9989 16.3935C75.5863 17.1541 74.9773 17.7532 74.1719 18.1907C73.3665 18.6232 72.3746 18.8395 71.1964 18.8395H67.4006V16.565H70.8235C71.5096 16.565 72.0714 16.4457 72.5089 16.207C72.9464 15.9684 73.2695 15.6403 73.4783 15.2227C73.6921 14.805 73.799 14.3253 73.799 13.7834C73.799 13.2415 73.6921 12.7642 73.4783 12.3516C73.2695 11.9389 72.9439 11.6183 72.5014 11.3896C72.0639 11.1559 71.4996 11.0391 70.8086 11.0391H68.2731V24H65.5064ZM87.955 15.5732L85.4941 15.8416C85.4244 15.593 85.3026 15.3594 85.1286 15.1406C84.9596 14.9219 84.7309 14.7454 84.4426 14.6112C84.1542 14.4769 83.8012 14.4098 83.3836 14.4098C82.8218 14.4098 82.3495 14.5316 81.9667 14.7752C81.5889 15.0188 81.4024 15.3345 81.4074 15.7223C81.4024 16.0554 81.5242 16.3263 81.7728 16.5352C82.0264 16.744 82.444 16.9155 83.0257 17.0497L84.9795 17.4673C86.0633 17.701 86.8687 18.0714 87.3957 18.5785C87.9276 19.0856 88.1961 19.7493 88.2011 20.5696C88.1961 21.2905 87.9848 21.9268 87.5672 22.4787C87.1546 23.0256 86.5803 23.4531 85.8445 23.7614C85.1088 24.0696 84.2636 24.2237 83.309 24.2237C81.907 24.2237 80.7785 23.9304 79.9234 23.3438C79.0683 22.7521 78.5587 21.9293 78.3946 20.8754L81.0271 20.6218C81.1464 21.1388 81.3999 21.5291 81.7877 21.7926C82.1755 22.0561 82.6801 22.1879 83.3016 22.1879C83.9429 22.1879 84.4575 22.0561 84.8453 21.7926C85.238 21.5291 85.4344 21.2035 85.4344 20.8157C85.4344 20.4876 85.3076 20.2166 85.0541 20.0028C84.8055 19.7891 84.4177 19.625 83.8907 19.5107L81.9369 19.1005C80.8382 18.8718 80.0253 18.4865 79.4983 17.9446C78.9713 17.3977 78.7103 16.7067 78.7153 15.8714C78.7103 15.1655 78.9017 14.554 79.2895 14.0369C79.6823 13.5149 80.2267 13.1122 80.9227 12.8288C81.6237 12.5405 82.4316 12.3963 83.3463 12.3963C84.6887 12.3963 85.7451 12.6822 86.5157 13.2539C87.2913 13.8256 87.771 14.5987 87.955 15.5732ZM90.4271 24V12.5455H93.1267V24H90.4271ZM91.7844 10.9197C91.3568 10.9197 90.9889 10.7781 90.6807 10.4947C90.3724 10.2063 90.2183 9.86079 90.2183 9.4581C90.2183 9.05043 90.3724 8.7049 90.6807 8.42152C90.9889 8.13317 91.3568 7.98899 91.7844 7.98899C92.2169 7.98899 92.5848 8.13317 92.8881 8.42152C93.1963 8.7049 93.3504 9.05043 93.3504 9.4581C93.3504 9.86079 93.1963 10.2063 92.8881 10.4947C92.5848 10.7781 92.2169 10.9197 91.7844 10.9197ZM100.899 24.2237C99.7557 24.2237 98.7738 23.9727 97.9535 23.4705C97.1381 22.9684 96.5092 22.2749 96.0668 21.3899C95.6293 20.5 95.4105 19.4759 95.4105 18.3175C95.4105 17.1541 95.6342 16.1275 96.0817 15.2376C96.5291 14.3427 97.1605 13.6467 97.9759 13.1495C98.7962 12.6474 99.7656 12.3963 100.884 12.3963C101.814 12.3963 102.637 12.5678 103.353 12.9109C104.074 13.2489 104.648 13.7287 105.075 14.3501C105.503 14.9666 105.746 15.6875 105.806 16.5128H103.226C103.121 15.9609 102.873 15.5011 102.48 15.1332C102.092 14.7603 101.573 14.5739 100.922 14.5739C100.37 14.5739 99.8849 14.723 99.4673 15.0213C99.0497 15.3146 98.7241 15.7372 98.4904 16.2891C98.2617 16.8409 98.1474 17.5021 98.1474 18.2727C98.1474 19.0533 98.2617 19.7244 98.4904 20.2862C98.7191 20.843 99.0398 21.2731 99.4524 21.5763C99.87 21.8746 100.36 22.0238 100.922 22.0238C101.319 22.0238 101.675 21.9492 101.988 21.8001C102.306 21.646 102.572 21.4247 102.786 21.1364C103 20.848 103.146 20.4975 103.226 20.0849H105.806C105.741 20.8952 105.503 21.6136 105.09 22.2401C104.678 22.8615 104.116 23.3487 103.405 23.7017C102.694 24.0497 101.859 24.2237 100.899 24.2237ZM111.319 24.2312C110.593 24.2312 109.939 24.1019 109.358 23.8434C108.781 23.5799 108.324 23.1921 107.986 22.68C107.652 22.168 107.486 21.5366 107.486 20.7859C107.486 20.1396 107.605 19.6051 107.844 19.1825C108.082 18.7599 108.408 18.4219 108.821 18.1683C109.233 17.9148 109.698 17.7234 110.215 17.5941C110.737 17.4599 111.277 17.3629 111.834 17.3033C112.505 17.2337 113.049 17.1715 113.467 17.1168C113.884 17.0572 114.188 16.9677 114.377 16.8484C114.57 16.7241 114.667 16.5327 114.667 16.2741V16.2294C114.667 15.6676 114.501 15.2326 114.168 14.9244C113.835 14.6161 113.355 14.462 112.728 14.462C112.067 14.462 111.543 14.6062 111.155 14.8945C110.772 15.1829 110.514 15.5234 110.379 15.9162L107.859 15.5582C108.058 14.8622 108.386 14.2805 108.843 13.8132C109.301 13.3409 109.86 12.9879 110.521 12.7543C111.182 12.5156 111.913 12.3963 112.714 12.3963C113.265 12.3963 113.815 12.4609 114.362 12.5902C114.908 12.7195 115.408 12.9332 115.861 13.2315C116.313 13.5249 116.676 13.9251 116.949 14.4322C117.228 14.9393 117.367 15.5732 117.367 16.3338V24H114.772V22.4265H114.682C114.518 22.7447 114.287 23.043 113.989 23.3214C113.695 23.5948 113.325 23.8161 112.878 23.9851C112.435 24.1491 111.916 24.2312 111.319 24.2312ZM112.02 22.2475C112.562 22.2475 113.032 22.1406 113.429 21.9268C113.827 21.7081 114.133 21.4197 114.347 21.0618C114.565 20.7038 114.675 20.3136 114.675 19.891V18.5412C114.59 18.6108 114.446 18.6754 114.242 18.7351C114.043 18.7947 113.82 18.8469 113.571 18.8917C113.323 18.9364 113.076 18.9762 112.833 19.011C112.589 19.0458 112.378 19.0756 112.199 19.1005C111.796 19.1552 111.436 19.2447 111.118 19.369C110.799 19.4933 110.548 19.6673 110.364 19.891C110.18 20.1097 110.089 20.3931 110.089 20.7411C110.089 21.2383 110.27 21.6136 110.633 21.8672C110.996 22.1207 111.458 22.2475 112.02 22.2475ZM122.781 17.2884V24H120.081V12.5455H122.662V14.4918H122.796C123.059 13.8505 123.479 13.3409 124.056 12.9631C124.638 12.5852 125.356 12.3963 126.211 12.3963C127.002 12.3963 127.69 12.5653 128.277 12.9034C128.869 13.2415 129.326 13.7312 129.649 14.3725C129.977 15.0138 130.139 15.7919 130.134 16.7067V24H127.434V17.1243C127.434 16.3587 127.236 15.7596 126.838 15.3271C126.445 14.8945 125.901 14.6783 125.205 14.6783C124.732 14.6783 124.312 14.7827 123.944 14.9915C123.581 15.1953 123.296 15.4911 123.087 15.8789C122.883 16.2667 122.781 16.7365 122.781 17.2884ZM136.174 24.2312C135.449 24.2312 134.795 24.1019 134.213 23.8434C133.636 23.5799 133.179 23.1921 132.841 22.68C132.508 22.168 132.341 21.5366 132.341 20.7859C132.341 20.1396 132.461 19.6051 132.699 19.1825C132.938 18.7599 133.264 18.4219 133.676 18.1683C134.089 17.9148 134.554 17.7234 135.071 17.5941C135.593 17.4599 136.132 17.3629 136.689 17.3033C137.36 17.2337 137.905 17.1715 138.322 17.1168C138.74 17.0572 139.043 16.9677 139.232 16.8484C139.426 16.7241 139.523 16.5327 139.523 16.2741V16.2294C139.523 15.6676 139.356 15.2326 139.023 14.9244C138.69 14.6161 138.21 14.462 137.584 14.462C136.923 14.462 136.398 14.6062 136.01 14.8945C135.628 15.1829 135.369 15.5234 135.235 15.9162L132.714 15.5582C132.913 14.8622 133.241 14.2805 133.699 13.8132C134.156 13.3409 134.715 12.9879 135.377 12.7543C136.038 12.5156 136.769 12.3963 137.569 12.3963C138.121 12.3963 138.67 12.4609 139.217 12.5902C139.764 12.7195 140.264 12.9332 140.716 13.2315C141.168 13.5249 141.531 13.9251 141.805 14.4322C142.083 14.9393 142.222 15.5732 142.222 16.3338V24H139.627V22.4265H139.538C139.374 22.7447 139.142 23.043 138.844 23.3214C138.551 23.5948 138.18 23.8161 137.733 23.9851C137.291 24.1491 136.771 24.2312 136.174 24.2312ZM136.875 22.2475C137.417 22.2475 137.887 22.1406 138.285 21.9268C138.683 21.7081 138.988 21.4197 139.202 21.0618C139.421 20.7038 139.53 20.3136 139.53 19.891V18.5412C139.446 18.6108 139.302 18.6754 139.098 18.7351C138.899 18.7947 138.675 18.8469 138.427 18.8917C138.178 18.9364 137.932 18.9762 137.688 19.011C137.445 19.0458 137.233 19.0756 137.054 19.1005C136.652 19.1552 136.291 19.2447 135.973 19.369C135.655 19.4933 135.404 19.6673 135.22 19.891C135.036 20.1097 134.944 20.3931 134.944 20.7411C134.944 21.2383 135.125 21.6136 135.488 21.8672C135.851 22.1207 136.314 22.2475 136.875 22.2475ZM147.636 8.72727V24H144.937V8.72727H147.636ZM150.412 24V12.5455H153.112V24H150.412ZM151.77 10.9197C151.342 10.9197 150.974 10.7781 150.666 10.4947C150.358 10.2063 150.204 9.86079 150.204 9.4581C150.204 9.05043 150.358 8.7049 150.666 8.42152C150.974 8.13317 151.342 7.98899 151.77 7.98899C152.202 7.98899 152.57 8.13317 152.873 8.42152C153.182 8.7049 153.336 9.05043 153.336 9.4581C153.336 9.86079 153.182 10.2063 152.873 10.4947C152.57 10.7781 152.202 10.9197 151.77 10.9197ZM164.941 15.5732L162.48 15.8416C162.411 15.593 162.289 15.3594 162.115 15.1406C161.946 14.9219 161.717 14.7454 161.429 14.6112C161.141 14.4769 160.788 14.4098 160.37 14.4098C159.808 14.4098 159.336 14.5316 158.953 14.7752C158.575 15.0188 158.389 15.3345 158.394 15.7223C158.389 16.0554 158.511 16.3263 158.759 16.5352C159.013 16.744 159.43 16.9155 160.012 17.0497L161.966 17.4673C163.05 17.701 163.855 18.0714 164.382 18.5785C164.914 19.0856 165.182 19.7493 165.187 20.5696C165.182 21.2905 164.971 21.9268 164.554 22.4787C164.141 23.0256 163.567 23.4531 162.831 23.7614C162.095 24.0696 161.25 24.2237 160.295 24.2237C158.893 24.2237 157.765 23.9304 156.91 23.3438C156.055 22.7521 155.545 21.9293 155.381 20.8754L158.013 20.6218C158.133 21.1388 158.386 21.5291 158.774 21.7926C159.162 22.0561 159.666 22.1879 160.288 22.1879C160.929 22.1879 161.444 22.0561 161.832 21.7926C162.224 21.5291 162.421 21.2035 162.421 20.8157C162.421 20.4876 162.294 20.2166 162.04 20.0028C161.792 19.7891 161.404 19.625 160.877 19.5107L158.923 19.1005C157.824 18.8718 157.012 18.4865 156.485 17.9446C155.958 17.3977 155.697 16.7067 155.702 15.8714C155.697 15.1655 155.888 14.554 156.276 14.0369C156.669 13.5149 157.213 13.1122 157.909 12.8288C158.61 12.5405 159.418 12.3963 160.333 12.3963C161.675 12.3963 162.731 12.6822 163.502 13.2539C164.278 13.8256 164.757 14.5987 164.941 15.5732ZM173.133 12.5455V14.6335H166.548V12.5455H173.133ZM168.174 9.80114H170.874V20.5547C170.874 20.9176 170.928 21.196 171.038 21.3899C171.152 21.5788 171.301 21.7081 171.485 21.7777C171.669 21.8473 171.873 21.8821 172.097 21.8821C172.266 21.8821 172.42 21.8697 172.559 21.8448C172.703 21.82 172.813 21.7976 172.887 21.7777L173.342 23.8881C173.198 23.9379 172.992 23.9925 172.723 24.0522C172.46 24.1119 172.136 24.1467 171.754 24.1566C171.078 24.1765 170.468 24.0746 169.927 23.8509C169.385 23.6222 168.955 23.2692 168.636 22.7919C168.323 22.3146 168.169 21.718 168.174 21.0021V9.80114ZM178.687 24.2312C177.961 24.2312 177.308 24.1019 176.726 23.8434C176.149 23.5799 175.692 23.1921 175.354 22.68C175.021 22.168 174.854 21.5366 174.854 20.7859C174.854 20.1396 174.973 19.6051 175.212 19.1825C175.451 18.7599 175.776 18.4219 176.189 18.1683C176.602 17.9148 177.066 17.7234 177.583 17.5941C178.105 17.4599 178.645 17.3629 179.202 17.3033C179.873 17.2337 180.417 17.1715 180.835 17.1168C181.252 17.0572 181.556 16.9677 181.745 16.8484C181.939 16.7241 182.036 16.5327 182.036 16.2741V16.2294C182.036 15.6676 181.869 15.2326 181.536 14.9244C181.203 14.6161 180.723 14.462 180.097 14.462C179.435 14.462 178.911 14.6062 178.523 14.8945C178.14 15.1829 177.882 15.5234 177.748 15.9162L175.227 15.5582C175.426 14.8622 175.754 14.2805 176.211 13.8132C176.669 13.3409 177.228 12.9879 177.889 12.7543C178.55 12.5156 179.281 12.3963 180.082 12.3963C180.634 12.3963 181.183 12.4609 181.73 12.5902C182.277 12.7195 182.776 12.9332 183.229 13.2315C183.681 13.5249 184.044 13.9251 184.317 14.4322C184.596 14.9393 184.735 15.5732 184.735 16.3338V24H182.14V22.4265H182.05C181.886 22.7447 181.655 23.043 181.357 23.3214C181.064 23.5948 180.693 23.8161 180.246 23.9851C179.803 24.1491 179.284 24.2312 178.687 24.2312ZM179.388 22.2475C179.93 22.2475 180.4 22.1406 180.798 21.9268C181.195 21.7081 181.501 21.4197 181.715 21.0618C181.934 20.7038 182.043 20.3136 182.043 19.891V18.5412C181.958 18.6108 181.814 18.6754 181.61 18.7351C181.412 18.7947 181.188 18.8469 180.939 18.8917C180.691 18.9364 180.445 18.9762 180.201 19.011C179.957 19.0458 179.746 19.0756 179.567 19.1005C179.164 19.1552 178.804 19.2447 178.486 19.369C178.168 19.4933 177.917 19.6673 177.733 19.891C177.549 20.1097 177.457 20.3931 177.457 20.7411C177.457 21.2383 177.638 21.6136 178.001 21.8672C178.364 22.1207 178.826 22.2475 179.388 22.2475ZM196.909 24.2013C196.009 24.2013 195.204 23.9702 194.493 23.5078C193.782 23.0455 193.22 22.3743 192.808 21.4943C192.395 20.6143 192.189 19.5455 192.189 18.2876C192.189 17.0149 192.398 15.9411 192.815 15.0661C193.238 14.1861 193.807 13.5224 194.523 13.0749C195.239 12.6225 196.037 12.3963 196.917 12.3963C197.588 12.3963 198.14 12.5107 198.572 12.7393C199.005 12.9631 199.348 13.234 199.601 13.5522C199.855 13.8654 200.051 14.1612 200.191 14.4396H200.302V8.72727H203.009V24H200.355V22.1953H200.191C200.051 22.4737 199.85 22.7695 199.586 23.0827C199.323 23.391 198.975 23.6545 198.542 23.8732C198.11 24.092 197.566 24.2013 196.909 24.2013ZM197.662 21.9865C198.234 21.9865 198.721 21.8324 199.124 21.5241C199.527 21.2109 199.833 20.7759 200.041 20.2191C200.25 19.6623 200.355 19.0135 200.355 18.2727C200.355 17.532 200.25 16.8881 200.041 16.3413C199.838 15.7944 199.534 15.3693 199.132 15.0661C198.734 14.7628 198.244 14.6112 197.662 14.6112C197.061 14.6112 196.559 14.7678 196.156 15.081C195.753 15.3942 195.45 15.8267 195.246 16.3786C195.042 16.9304 194.941 17.5618 194.941 18.2727C194.941 18.9886 195.042 19.6275 195.246 20.1893C195.455 20.7461 195.761 21.1861 196.164 21.5092C196.571 21.8274 197.071 21.9865 197.662 21.9865ZM210.883 24.2237C209.764 24.2237 208.794 23.9776 207.974 23.4854C207.154 22.9933 206.517 22.3047 206.065 21.4197C205.618 20.5348 205.394 19.5007 205.394 18.3175C205.394 17.1342 205.618 16.0977 206.065 15.2077C206.517 14.3178 207.154 13.6268 207.974 13.1346C208.794 12.6424 209.764 12.3963 210.883 12.3963C212.001 12.3963 212.971 12.6424 213.791 13.1346C214.611 13.6268 215.245 14.3178 215.693 15.2077C216.145 16.0977 216.371 17.1342 216.371 18.3175C216.371 19.5007 216.145 20.5348 215.693 21.4197C215.245 22.3047 214.611 22.9933 213.791 23.4854C212.971 23.9776 212.001 24.2237 210.883 24.2237ZM210.897 22.0611C211.504 22.0611 212.011 21.8945 212.419 21.5614C212.826 21.2234 213.13 20.771 213.329 20.2042C213.532 19.6374 213.634 19.006 213.634 18.31C213.634 17.609 213.532 16.9751 213.329 16.4084C213.13 15.8366 212.826 15.3817 212.419 15.0437C212.011 14.7056 211.504 14.5366 210.897 14.5366C210.276 14.5366 209.759 14.7056 209.346 15.0437C208.939 15.3817 208.633 15.8366 208.429 16.4084C208.23 16.9751 208.131 17.609 208.131 18.31C208.131 19.006 208.23 19.6374 208.429 20.2042C208.633 20.771 208.939 21.2234 209.346 21.5614C209.759 21.8945 210.276 22.0611 210.897 22.0611ZM228.868 24.2237C227.724 24.2237 226.743 23.9727 225.922 23.4705C225.107 22.9684 224.478 22.2749 224.036 21.3899C223.598 20.5 223.379 19.4759 223.379 18.3175C223.379 17.1541 223.603 16.1275 224.05 15.2376C224.498 14.3427 225.129 13.6467 225.945 13.1495C226.765 12.6474 227.734 12.3963 228.853 12.3963C229.783 12.3963 230.605 12.5678 231.321 12.9109C232.042 13.2489 232.616 13.7287 233.044 14.3501C233.472 14.9666 233.715 15.6875 233.775 16.5128H231.195C231.09 15.9609 230.842 15.5011 230.449 15.1332C230.061 14.7603 229.542 14.5739 228.89 14.5739C228.338 14.5739 227.854 14.723 227.436 15.0213C227.018 15.3146 226.693 15.7372 226.459 16.2891C226.23 16.8409 226.116 17.5021 226.116 18.2727C226.116 19.0533 226.23 19.7244 226.459 20.2862C226.688 20.843 227.009 21.2731 227.421 21.5763C227.839 21.8746 228.328 22.0238 228.89 22.0238C229.288 22.0238 229.643 21.9492 229.957 21.8001C230.275 21.646 230.541 21.4247 230.755 21.1364C230.968 20.848 231.115 20.4975 231.195 20.0849H233.775C233.71 20.8952 233.472 21.6136 233.059 22.2401C232.646 22.8615 232.085 23.3487 231.374 23.7017C230.663 24.0497 229.827 24.2237 228.868 24.2237ZM239.288 24.2312C238.562 24.2312 237.908 24.1019 237.326 23.8434C236.75 23.5799 236.292 23.1921 235.954 22.68C235.621 22.168 235.455 21.5366 235.455 20.7859C235.455 20.1396 235.574 19.6051 235.813 19.1825C236.051 18.7599 236.377 18.4219 236.79 18.1683C237.202 17.9148 237.667 17.7234 238.184 17.5941C238.706 17.4599 239.245 17.3629 239.802 17.3033C240.473 17.2337 241.018 17.1715 241.435 17.1168C241.853 17.0572 242.156 16.9677 242.345 16.8484C242.539 16.7241 242.636 16.5327 242.636 16.2741V16.2294C242.636 15.6676 242.47 15.2326 242.136 14.9244C241.803 14.6161 241.324 14.462 240.697 14.462C240.036 14.462 239.511 14.6062 239.124 14.8945C238.741 15.1829 238.482 15.5234 238.348 15.9162L235.828 15.5582C236.026 14.8622 236.354 14.2805 236.812 13.8132C237.269 13.3409 237.829 12.9879 238.49 12.7543C239.151 12.5156 239.882 12.3963 240.682 12.3963C241.234 12.3963 241.783 12.4609 242.33 12.5902C242.877 12.7195 243.377 12.9332 243.829 13.2315C244.282 13.5249 244.645 13.9251 244.918 14.4322C245.196 14.9393 245.336 15.5732 245.336 16.3338V24H242.741V22.4265H242.651C242.487 22.7447 242.256 23.043 241.957 23.3214C241.664 23.5948 241.294 23.8161 240.846 23.9851C240.404 24.1491 239.884 24.2312 239.288 24.2312ZM239.989 22.2475C240.531 22.2475 241 22.1406 241.398 21.9268C241.796 21.7081 242.102 21.4197 242.315 21.0618C242.534 20.7038 242.644 20.3136 242.644 19.891V18.5412C242.559 18.6108 242.415 18.6754 242.211 18.7351C242.012 18.7947 241.788 18.8469 241.54 18.8917C241.291 18.9364 241.045 18.9762 240.802 19.011C240.558 19.0458 240.347 19.0756 240.168 19.1005C239.765 19.1552 239.405 19.2447 239.086 19.369C238.768 19.4933 238.517 19.6673 238.333 19.891C238.149 20.1097 238.057 20.3931 238.057 20.7411C238.057 21.2383 238.239 21.6136 238.602 21.8672C238.965 22.1207 239.427 22.2475 239.989 22.2475ZM248.05 24V12.5455H250.63V14.4918H250.765C251.003 13.8356 251.399 13.3235 251.95 12.9556C252.502 12.5827 253.161 12.3963 253.927 12.3963C254.702 12.3963 255.356 12.5852 255.888 12.9631C256.425 13.3359 256.803 13.8455 257.021 14.4918H257.141C257.394 13.8555 257.822 13.3484 258.423 12.9705C259.03 12.5877 259.748 12.3963 260.579 12.3963C261.633 12.3963 262.493 12.7294 263.159 13.3956C263.825 14.0618 264.158 15.0337 264.158 16.3114V24H261.451V16.729C261.451 16.0181 261.262 15.4986 260.884 15.1705C260.506 14.8374 260.044 14.6708 259.497 14.6708C258.846 14.6708 258.336 14.8746 257.968 15.2823C257.606 15.685 257.424 16.2095 257.424 16.8558V24H254.777V16.6172C254.777 16.0256 254.598 15.5533 254.24 15.2003C253.887 14.8473 253.424 14.6708 252.853 14.6708C252.465 14.6708 252.112 14.7702 251.794 14.9691C251.476 15.163 251.222 15.4389 251.033 15.7969C250.844 16.1499 250.75 16.5625 250.75 17.0348V24H248.05ZM266.897 28.2955V12.5455H269.552V14.4396H269.708C269.847 14.1612 270.044 13.8654 270.297 13.5522C270.551 13.234 270.894 12.9631 271.327 12.7393C271.759 12.5107 272.311 12.3963 272.982 12.3963C273.867 12.3963 274.665 12.6225 275.376 13.0749C276.092 13.5224 276.659 14.1861 277.076 15.0661C277.499 15.9411 277.71 17.0149 277.71 18.2876C277.71 19.5455 277.504 20.6143 277.091 21.4943C276.678 22.3743 276.117 23.0455 275.406 23.5078C274.695 23.9702 273.889 24.2013 272.99 24.2013C272.333 24.2013 271.789 24.092 271.356 23.8732C270.924 23.6545 270.576 23.391 270.312 23.0827C270.054 22.7695 269.852 22.4737 269.708 22.1953H269.596V28.2955H266.897ZM269.544 18.2727C269.544 19.0135 269.649 19.6623 269.857 20.2191C270.071 20.7759 270.377 21.2109 270.775 21.5241C271.177 21.8324 271.665 21.9865 272.236 21.9865C272.833 21.9865 273.333 21.8274 273.735 21.5092C274.138 21.1861 274.441 20.7461 274.645 20.1893C274.854 19.6275 274.958 18.9886 274.958 18.2727C274.958 17.5618 274.856 16.9304 274.653 16.3786C274.449 15.8267 274.145 15.3942 273.743 15.081C273.34 14.7678 272.838 14.6112 272.236 14.6112C271.66 14.6112 271.17 14.7628 270.767 15.0661C270.365 15.3693 270.059 15.7944 269.85 16.3413C269.646 16.8881 269.544 17.532 269.544 18.2727ZM285.018 24.2237C283.9 24.2237 282.93 23.9776 282.11 23.4854C281.29 22.9933 280.653 22.3047 280.201 21.4197C279.753 20.5348 279.53 19.5007 279.53 18.3175C279.53 17.1342 279.753 16.0977 280.201 15.2077C280.653 14.3178 281.29 13.6268 282.11 13.1346C282.93 12.6424 283.9 12.3963 285.018 12.3963C286.137 12.3963 287.106 12.6424 287.927 13.1346C288.747 13.6268 289.381 14.3178 289.828 15.2077C290.281 16.0977 290.507 17.1342 290.507 18.3175C290.507 19.5007 290.281 20.5348 289.828 21.4197C289.381 22.3047 288.747 22.9933 287.927 23.4854C287.106 23.9776 286.137 24.2237 285.018 24.2237ZM285.033 22.0611C285.64 22.0611 286.147 21.8945 286.555 21.5614C286.962 21.2234 287.265 20.771 287.464 20.2042C287.668 19.6374 287.77 19.006 287.77 18.31C287.77 17.609 287.668 16.9751 287.464 16.4084C287.265 15.8366 286.962 15.3817 286.555 15.0437C286.147 14.7056 285.64 14.5366 285.033 14.5366C284.412 14.5366 283.895 14.7056 283.482 15.0437C283.074 15.3817 282.769 15.8366 282.565 16.4084C282.366 16.9751 282.267 17.609 282.267 18.31C282.267 19.006 282.366 19.6374 282.565 20.2042C282.769 20.771 283.074 21.2234 283.482 21.5614C283.895 21.8945 284.412 22.0611 285.033 22.0611ZM69.6378 49.2013C68.7379 49.2013 67.9325 48.9702 67.2216 48.5078C66.5107 48.0455 65.9489 47.3743 65.5362 46.4943C65.1236 45.6143 64.9173 44.5455 64.9173 43.2876C64.9173 42.0149 65.1261 40.9411 65.5437 40.0661C65.9663 39.1861 66.5355 38.5224 67.2514 38.0749C67.9673 37.6225 68.7653 37.3963 69.6452 37.3963C70.3164 37.3963 70.8683 37.5107 71.3008 37.7393C71.7333 37.9631 72.0763 38.234 72.3299 38.5522C72.5835 38.8654 72.7798 39.1612 72.919 39.4396H73.0309V33.7273H75.7379V49H73.0831V47.1953H72.919C72.7798 47.4737 72.5785 47.7695 72.315 48.0827C72.0515 48.391 71.7035 48.6545 71.271 48.8732C70.8384 49.092 70.294 49.2013 69.6378 49.2013ZM70.391 46.9865C70.9627 46.9865 71.4499 46.8324 71.8526 46.5241C72.2553 46.2109 72.5611 45.7759 72.7699 45.2191C72.9787 44.6623 73.0831 44.0135 73.0831 43.2727C73.0831 42.532 72.9787 41.8881 72.7699 41.3413C72.5661 40.7944 72.2628 40.3693 71.8601 40.0661C71.4624 39.7628 70.9727 39.6112 70.391 39.6112C69.7894 39.6112 69.2873 39.7678 68.8846 40.081C68.4819 40.3942 68.1786 40.8267 67.9748 41.3786C67.771 41.9304 67.669 42.5618 67.669 43.2727C67.669 43.9886 67.771 44.6275 67.9748 45.1893C68.1836 45.7461 68.4893 46.1861 68.892 46.5092C69.2997 46.8274 69.7994 46.9865 70.391 46.9865ZM83.6856 49.2237C82.5372 49.2237 81.5454 48.9851 80.7101 48.5078C79.8799 48.0256 79.241 47.3445 78.7936 46.4645C78.3461 45.5795 78.1224 44.538 78.1224 43.3398C78.1224 42.1616 78.3461 41.1275 78.7936 40.2376C79.246 39.3427 79.8774 38.6467 80.6878 38.1495C81.4981 37.6474 82.4502 37.3963 83.5439 37.3963C84.2499 37.3963 84.9161 37.5107 85.5425 37.7393C86.1739 37.9631 86.7307 38.3111 87.213 38.7834C87.7002 39.2557 88.083 39.8572 88.3614 40.5881C88.6398 41.3139 88.779 42.179 88.779 43.1832V44.011H79.3902V42.1914H86.1913C86.1863 41.6744 86.0745 41.2145 85.8557 40.8118C85.637 40.4041 85.3312 40.0835 84.9385 39.8498C84.5507 39.6161 84.0983 39.4993 83.5812 39.4993C83.0294 39.4993 82.5447 39.6335 82.127 39.902C81.7094 40.1655 81.3838 40.5135 81.1501 40.946C80.9214 41.3736 80.8046 41.8434 80.7996 42.3555V43.9439C80.7996 44.6101 80.9214 45.1818 81.165 45.6591C81.4086 46.1314 81.7492 46.4943 82.1867 46.7479C82.6242 46.9964 83.1363 47.1207 83.7229 47.1207C84.1157 47.1207 84.4711 47.0661 84.7893 46.9567C85.1075 46.8423 85.3834 46.6758 85.6171 46.457C85.8508 46.2383 86.0273 45.9673 86.1466 45.6442L88.6672 45.9276C88.5081 46.5937 88.2048 47.1754 87.7574 47.6726C87.3149 48.1648 86.7481 48.5476 86.0571 48.821C85.366 49.0895 84.5756 49.2237 83.6856 49.2237ZM96.3912 49V33.7273H106.175V36.0465H99.1578V40.1928H105.504V42.5121H99.1578V49H96.3912ZM108.412 49V37.5455H111.03V39.4545H111.149C111.358 38.7933 111.716 38.2837 112.223 37.9258C112.735 37.5629 113.319 37.3814 113.976 37.3814C114.125 37.3814 114.291 37.3888 114.475 37.4038C114.664 37.4137 114.821 37.4311 114.945 37.456V39.9393C114.831 39.8995 114.649 39.8647 114.401 39.8349C114.157 39.8001 113.921 39.7827 113.692 39.7827C113.2 39.7827 112.758 39.8896 112.365 40.1033C111.977 40.3121 111.671 40.603 111.448 40.9759C111.224 41.3487 111.112 41.7788 111.112 42.266V49H108.412ZM121.338 49.2237C120.19 49.2237 119.198 48.9851 118.362 48.5078C117.532 48.0256 116.893 47.3445 116.446 46.4645C115.998 45.5795 115.775 44.538 115.775 43.3398C115.775 42.1616 115.998 41.1275 116.446 40.2376C116.898 39.3427 117.53 38.6467 118.34 38.1495C119.15 37.6474 120.103 37.3963 121.196 37.3963C121.902 37.3963 122.568 37.5107 123.195 37.7393C123.826 37.9631 124.383 38.3111 124.865 38.7834C125.353 39.2557 125.735 39.8572 126.014 40.5881C126.292 41.3139 126.431 42.179 126.431 43.1832V44.011H117.043V42.1914H123.844C123.839 41.6744 123.727 41.2145 123.508 40.8118C123.289 40.4041 122.984 40.0835 122.591 39.8498C122.203 39.6161 121.751 39.4993 121.234 39.4993C120.682 39.4993 120.197 39.6335 119.779 39.902C119.362 40.1655 119.036 40.5135 118.802 40.946C118.574 41.3736 118.457 41.8434 118.452 42.3555V43.9439C118.452 44.6101 118.574 45.1818 118.817 45.6591C119.061 46.1314 119.402 46.4943 119.839 46.7479C120.277 46.9964 120.789 47.1207 121.375 47.1207C121.768 47.1207 122.123 47.0661 122.442 46.9567C122.76 46.8423 123.036 46.6758 123.269 46.457C123.503 46.2383 123.68 45.9673 123.799 45.6442L126.32 45.9276C126.16 46.5937 125.857 47.1754 125.41 47.6726C124.967 48.1648 124.4 48.5476 123.709 48.821C123.018 49.0895 122.228 49.2237 121.338 49.2237ZM136.016 44.1825V37.5455H138.716V49H136.098V46.9641H135.979C135.72 47.6055 135.295 48.13 134.703 48.5376C134.117 48.9453 133.393 49.1491 132.533 49.1491C131.783 49.1491 131.119 48.9826 130.542 48.6495C129.971 48.3114 129.523 47.8217 129.2 47.1804C128.877 46.5341 128.715 45.7536 128.715 44.8388V37.5455H131.415V44.4212C131.415 45.147 131.614 45.7237 132.011 46.1513C132.409 46.5788 132.931 46.7926 133.577 46.7926C133.975 46.7926 134.36 46.6957 134.733 46.5018C135.106 46.3079 135.412 46.0195 135.651 45.6367C135.894 45.2489 136.016 44.7642 136.016 44.1825ZM145.742 49.2013C144.842 49.2013 144.037 48.9702 143.326 48.5078C142.615 48.0455 142.053 47.3743 141.641 46.4943C141.228 45.6143 141.022 44.5455 141.022 43.2876C141.022 42.0149 141.231 40.9411 141.648 40.0661C142.071 39.1861 142.64 38.5224 143.356 38.0749C144.072 37.6225 144.87 37.3963 145.75 37.3963C146.421 37.3963 146.973 37.5107 147.405 37.7393C147.838 37.9631 148.181 38.234 148.434 38.5522C148.688 38.8654 148.884 39.1612 149.024 39.4396H149.135V33.7273H151.842V49H149.188V47.1953H149.024C148.884 47.4737 148.683 47.7695 148.419 48.0827C148.156 48.391 147.808 48.6545 147.375 48.8732C146.943 49.092 146.399 49.2013 145.742 49.2013ZM146.495 46.9865C147.067 46.9865 147.554 46.8324 147.957 46.5241C148.36 46.2109 148.666 45.7759 148.874 45.2191C149.083 44.6623 149.188 44.0135 149.188 43.2727C149.188 42.532 149.083 41.8881 148.874 41.3413C148.671 40.7944 148.367 40.3693 147.965 40.0661C147.567 39.7628 147.077 39.6112 146.495 39.6112C145.894 39.6112 145.392 39.7678 144.989 40.081C144.586 40.3942 144.283 40.8267 144.079 41.3786C143.875 41.9304 143.774 42.5618 143.774 43.2727C143.774 43.9886 143.875 44.6275 144.079 45.1893C144.288 45.7461 144.594 46.1861 144.997 46.5092C145.404 46.8274 145.904 46.9865 146.495 46.9865ZM164.999 49.2237C163.851 49.2237 162.859 48.9851 162.024 48.5078C161.193 48.0256 160.555 47.3445 160.107 46.4645C159.66 45.5795 159.436 44.538 159.436 43.3398C159.436 42.1616 159.66 41.1275 160.107 40.2376C160.559 39.3427 161.191 38.6467 162.001 38.1495C162.812 37.6474 163.764 37.3963 164.857 37.3963C165.563 37.3963 166.23 37.5107 166.856 37.7393C167.487 37.9631 168.044 38.3111 168.526 38.7834C169.014 39.2557 169.396 39.8572 169.675 40.5881C169.953 41.3139 170.093 42.179 170.093 43.1832V44.011H160.704V42.1914H167.505C167.5 41.6744 167.388 41.2145 167.169 40.8118C166.95 40.4041 166.645 40.0835 166.252 39.8498C165.864 39.6161 165.412 39.4993 164.895 39.4993C164.343 39.4993 163.858 39.6335 163.441 39.902C163.023 40.1655 162.697 40.5135 162.464 40.946C162.235 41.3736 162.118 41.8434 162.113 42.3555V43.9439C162.113 44.6101 162.235 45.1818 162.479 45.6591C162.722 46.1314 163.063 46.4943 163.5 46.7479C163.938 46.9964 164.45 47.1207 165.036 47.1207C165.429 47.1207 165.785 47.0661 166.103 46.9567C166.421 46.8423 166.697 46.6758 166.931 46.457C167.164 46.2383 167.341 45.9673 167.46 45.6442L169.981 45.9276C169.822 46.5937 169.518 47.1754 169.071 47.6726C168.628 48.1648 168.062 48.5476 167.371 48.821C166.68 49.0895 165.889 49.2237 164.999 49.2237ZM177.705 49V33.7273H180.471V46.6808H187.198V49H177.705ZM192.776 49.2312C192.05 49.2312 191.396 49.1019 190.815 48.8434C190.238 48.5799 189.781 48.1921 189.443 47.68C189.109 47.168 188.943 46.5366 188.943 45.7859C188.943 45.1396 189.062 44.6051 189.301 44.1825C189.54 43.7599 189.865 43.4219 190.278 43.1683C190.69 42.9148 191.155 42.7234 191.672 42.5941C192.194 42.4599 192.734 42.3629 193.291 42.3033C193.962 42.2337 194.506 42.1715 194.924 42.1168C195.341 42.0572 195.645 41.9677 195.834 41.8484C196.027 41.7241 196.124 41.5327 196.124 41.2741V41.2294C196.124 40.6676 195.958 40.2326 195.625 39.9244C195.292 39.6161 194.812 39.462 194.185 39.462C193.524 39.462 193 39.6062 192.612 39.8945C192.229 40.1829 191.971 40.5234 191.836 40.9162L189.316 40.5582C189.515 39.8622 189.843 39.2805 190.3 38.8132C190.758 38.3409 191.317 37.9879 191.978 37.7543C192.639 37.5156 193.37 37.3963 194.171 37.3963C194.722 37.3963 195.272 37.4609 195.819 37.5902C196.366 37.7195 196.865 37.9332 197.318 38.2315C197.77 38.5249 198.133 38.9251 198.406 39.4322C198.685 39.9393 198.824 40.5732 198.824 41.3338V49H196.229V47.4265H196.139C195.975 47.7447 195.744 48.043 195.446 48.3214C195.152 48.5948 194.782 48.8161 194.335 48.9851C193.892 49.1491 193.373 49.2312 192.776 49.2312ZM193.477 47.2475C194.019 47.2475 194.489 47.1406 194.886 46.9268C195.284 46.7081 195.59 46.4197 195.804 46.0618C196.022 45.7038 196.132 45.3136 196.132 44.891V43.5412C196.047 43.6108 195.903 43.6754 195.699 43.7351C195.5 43.7947 195.277 43.8469 195.028 43.8917C194.78 43.9364 194.533 43.9762 194.29 44.011C194.046 44.0458 193.835 44.0756 193.656 44.1005C193.253 44.1552 192.893 44.2447 192.575 44.369C192.256 44.4933 192.005 44.6673 191.821 44.891C191.638 45.1097 191.546 45.3931 191.546 45.7411C191.546 46.2383 191.727 46.6136 192.09 46.8672C192.453 47.1207 192.915 47.2475 193.477 47.2475ZM206.535 49.2237C205.391 49.2237 204.41 48.9727 203.589 48.4705C202.774 47.9684 202.145 47.2749 201.703 46.3899C201.265 45.5 201.046 44.4759 201.046 43.3175C201.046 42.1541 201.27 41.1275 201.717 40.2376C202.165 39.3427 202.796 38.6467 203.612 38.1495C204.432 37.6474 205.401 37.3963 206.52 37.3963C207.45 37.3963 208.272 37.5678 208.988 37.9109C209.709 38.2489 210.283 38.7287 210.711 39.3501C211.139 39.9666 211.382 40.6875 211.442 41.5128H208.862C208.757 40.9609 208.509 40.5011 208.116 40.1332C207.728 39.7603 207.209 39.5739 206.557 39.5739C206.005 39.5739 205.521 39.723 205.103 40.0213C204.685 40.3146 204.36 40.7372 204.126 41.2891C203.897 41.8409 203.783 42.5021 203.783 43.2727C203.783 44.0533 203.897 44.7244 204.126 45.2862C204.355 45.843 204.676 46.2731 205.088 46.5763C205.506 46.8746 205.995 47.0238 206.557 47.0238C206.955 47.0238 207.31 46.9492 207.624 46.8001C207.942 46.646 208.208 46.4247 208.422 46.1364C208.635 45.848 208.782 45.4975 208.862 45.0849H211.442C211.377 45.8952 211.139 46.6136 210.726 47.2401C210.313 47.8615 209.752 48.3487 209.041 48.7017C208.33 49.0497 207.494 49.2237 206.535 49.2237ZM216.955 49.2312C216.229 49.2312 215.575 49.1019 214.993 48.8434C214.417 48.5799 213.959 48.1921 213.621 47.68C213.288 47.168 213.122 46.5366 213.122 45.7859C213.122 45.1396 213.241 44.6051 213.48 44.1825C213.718 43.7599 214.044 43.4219 214.456 43.1683C214.869 42.9148 215.334 42.7234 215.851 42.5941C216.373 42.4599 216.912 42.3629 217.469 42.3033C218.14 42.2337 218.685 42.1715 219.102 42.1168C219.52 42.0572 219.823 41.9677 220.012 41.8484C220.206 41.7241 220.303 41.5327 220.303 41.2741V41.2294C220.303 40.6676 220.137 40.2326 219.803 39.9244C219.47 39.6161 218.991 39.462 218.364 39.462C217.703 39.462 217.178 39.6062 216.791 39.8945C216.408 40.1829 216.149 40.5234 216.015 40.9162L213.494 40.5582C213.693 39.8622 214.021 39.2805 214.479 38.8132C214.936 38.3409 215.496 37.9879 216.157 37.7543C216.818 37.5156 217.549 37.3963 218.349 37.3963C218.901 37.3963 219.45 37.4609 219.997 37.5902C220.544 37.7195 221.044 37.9332 221.496 38.2315C221.949 38.5249 222.312 38.9251 222.585 39.4322C222.863 39.9393 223.003 40.5732 223.003 41.3338V49H220.407V47.4265H220.318C220.154 47.7447 219.923 48.043 219.624 48.3214C219.331 48.5948 218.961 48.8161 218.513 48.9851C218.071 49.1491 217.551 49.2312 216.955 49.2312ZM217.656 47.2475C218.198 47.2475 218.667 47.1406 219.065 46.9268C219.463 46.7081 219.769 46.4197 219.982 46.0618C220.201 45.7038 220.311 45.3136 220.311 44.891V43.5412C220.226 43.6108 220.082 43.6754 219.878 43.7351C219.679 43.7947 219.455 43.8469 219.207 43.8917C218.958 43.9364 218.712 43.9762 218.469 44.011C218.225 44.0458 218.014 44.0756 217.835 44.1005C217.432 44.1552 217.072 44.2447 216.753 44.369C216.435 44.4933 216.184 44.6673 216 44.891C215.816 45.1097 215.724 45.3931 215.724 45.7411C215.724 46.2383 215.906 46.6136 216.269 46.8672C216.632 47.1207 217.094 47.2475 217.656 47.2475ZM228.417 42.2884V49H225.717V37.5455H228.297V39.4918H228.432C228.695 38.8505 229.115 38.3409 229.692 37.9631C230.274 37.5852 230.992 37.3963 231.847 37.3963C232.638 37.3963 233.326 37.5653 233.913 37.9034C234.504 38.2415 234.962 38.7312 235.285 39.3725C235.613 40.0138 235.775 40.7919 235.77 41.7067V49H233.07V42.1243C233.07 41.3587 232.871 40.7596 232.474 40.3271C232.081 39.8945 231.536 39.6783 230.84 39.6783C230.368 39.6783 229.948 39.7827 229.58 39.9915C229.217 40.1953 228.931 40.4911 228.722 40.8789C228.519 41.2667 228.417 41.7365 228.417 42.2884Z" fill="white"/>
<rect width="57" height="58" rx="10" fill="#F8F8F8"/>
<path d="M23.6562 10C25.9496 10 27.8125 11.8629 27.8125 14.1562V43.8438C27.8125 46.1371 25.9496 48 23.6562 48C21.5113 48 19.7449 46.3746 19.5223 44.2816C19.1363 44.3855 18.7281 44.4375 18.3125 44.4375C15.6926 44.4375 13.5625 42.3074 13.5625 39.6875C13.5625 39.1383 13.659 38.6039 13.8297 38.1141C11.5883 37.268 10 35.1008 10 32.5625C10 30.1949 11.3879 28.1465 13.3992 27.1965C12.7535 26.3875 12.375 25.3633 12.375 24.25C12.375 21.9715 13.9781 20.0715 16.1156 19.6039C15.9969 19.1957 15.9375 18.7578 15.9375 18.3125C15.9375 16.0934 17.4664 14.223 19.5223 13.7035C19.7449 11.6254 21.5113 10 23.6562 10ZM34.3438 10C36.4887 10 38.2477 11.6254 38.4777 13.7035C40.541 14.223 42.0625 16.0859 42.0625 18.3125C42.0625 18.7578 42.0031 19.1957 41.8844 19.6039C44.0219 20.0641 45.625 21.9715 45.625 24.25C45.625 25.3633 45.2465 26.3875 44.6008 27.1965C46.6121 28.1465 48 30.1949 48 32.5625C48 35.1008 46.4117 37.268 44.1703 38.1141C44.341 38.6039 44.4375 39.1383 44.4375 39.6875C44.4375 42.3074 42.3074 44.4375 39.6875 44.4375C39.2719 44.4375 38.8637 44.3855 38.4777 44.2816C38.2551 46.3746 36.4887 48 34.3438 48C32.0504 48 30.1875 46.1371 30.1875 43.8438V14.1562C30.1875 11.8629 32.0504 10 34.3438 10Z" fill="#71B1FD"/>
</svg>
