<svg width="211" height="58" viewBox="0 0 211 58" fill="none" xmlns="http://www.w3.org/2000/svg">
<path d="M77.4677 24H74.5146L79.8913 8.72727H83.3068L88.6911 24H85.7379L81.6587 11.8594H81.5394L77.4677 24ZM77.5646 18.0117H85.6186V20.234H77.5646V18.0117ZM95.5854 12.5455V14.6335H89.0005V12.5455H95.5854ZM90.6262 9.80114H93.3258V20.5547C93.3258 20.9176 93.3805 21.196 93.4899 21.3899C93.6042 21.5788 93.7534 21.7081 93.9373 21.7777C94.1213 21.8473 94.3251 21.8821 94.5488 21.8821C94.7179 21.8821 94.872 21.8697 95.0112 21.8448C95.1554 21.82 95.2647 21.7976 95.3393 21.7777L95.7942 23.8881C95.65 23.9379 95.4437 23.9925 95.1752 24.0522C94.9118 24.1119 94.5886 24.1467 94.2058 24.1566C93.5297 24.1765 92.9206 24.0746 92.3787 23.8509C91.8368 23.6222 91.4068 23.2692 91.0886 22.7919C90.7754 22.3146 90.6213 21.718 90.6262 21.0021V9.80114ZM102.791 24.2237C101.643 24.2237 100.651 23.9851 99.8156 23.5078C98.9854 23.0256 98.3465 22.3445 97.8991 21.4645C97.4516 20.5795 97.2279 19.538 97.2279 18.3398C97.2279 17.1616 97.4516 16.1275 97.8991 15.2376C98.3515 14.3427 98.9829 13.6467 99.7932 13.1495C100.604 12.6474 101.556 12.3963 102.649 12.3963C103.355 12.3963 104.022 12.5107 104.648 12.7393C105.279 12.9631 105.836 13.3111 106.318 13.7834C106.806 14.2557 107.188 14.8572 107.467 15.5881C107.745 16.3139 107.885 17.179 107.885 18.1832V19.011H98.4956V17.1914H105.297C105.292 16.6744 105.18 16.2145 104.961 15.8118C104.742 15.4041 104.437 15.0835 104.044 14.8498C103.656 14.6161 103.204 14.4993 102.687 14.4993C102.135 14.4993 101.65 14.6335 101.233 14.902C100.815 15.1655 100.489 15.5135 100.256 15.946C100.027 16.3736 99.9101 16.8434 99.9051 17.3555V18.9439C99.9051 19.6101 100.027 20.1818 100.271 20.6591C100.514 21.1314 100.855 21.4943 101.292 21.7479C101.73 21.9964 102.242 22.1207 102.828 22.1207C103.221 22.1207 103.577 22.0661 103.895 21.9567C104.213 21.8423 104.489 21.6758 104.723 21.457C104.956 21.2383 105.133 20.9673 105.252 20.6442L107.773 20.9276C107.614 21.5937 107.31 22.1754 106.863 22.6726C106.42 23.1648 105.854 23.5476 105.163 23.821C104.472 24.0895 103.681 24.2237 102.791 24.2237ZM112.868 17.2884V24H110.168V12.5455H112.749V14.4918H112.883C113.146 13.8505 113.566 13.3409 114.143 12.9631C114.725 12.5852 115.443 12.3963 116.298 12.3963C117.089 12.3963 117.777 12.5653 118.364 12.9034C118.956 13.2415 119.413 13.7312 119.736 14.3725C120.064 15.0138 120.226 15.7919 120.221 16.7067V24H117.521V17.1243C117.521 16.3587 117.322 15.7596 116.925 15.3271C116.532 14.8945 115.988 14.6783 115.292 14.6783C114.819 14.6783 114.399 14.7827 114.031 14.9915C113.668 15.1953 113.382 15.4911 113.174 15.8789C112.97 16.2667 112.868 16.7365 112.868 17.2884ZM127.216 24.2013C126.316 24.2013 125.511 23.9702 124.8 23.5078C124.089 23.0455 123.527 22.3743 123.114 21.4943C122.702 20.6143 122.495 19.5455 122.495 18.2876C122.495 17.0149 122.704 15.9411 123.122 15.0661C123.544 14.1861 124.114 13.5224 124.83 13.0749C125.545 12.6225 126.343 12.3963 127.223 12.3963C127.895 12.3963 128.446 12.5107 128.879 12.7393C129.311 12.9631 129.654 13.234 129.908 13.5522C130.162 13.8654 130.358 14.1612 130.497 14.4396H130.609V8.72727H133.316V24H130.661V22.1953H130.497C130.358 22.4737 130.157 22.7695 129.893 23.0827C129.63 23.391 129.282 23.6545 128.849 23.8732C128.417 24.092 127.872 24.2013 127.216 24.2013ZM127.969 21.9865C128.541 21.9865 129.028 21.8324 129.431 21.5241C129.833 21.2109 130.139 20.7759 130.348 20.2191C130.557 19.6623 130.661 19.0135 130.661 18.2727C130.661 17.532 130.557 16.8881 130.348 16.3413C130.144 15.7944 129.841 15.3693 129.438 15.0661C129.04 14.7628 128.551 14.6112 127.969 14.6112C127.368 14.6112 126.865 14.7678 126.463 15.081C126.06 15.3942 125.757 15.8267 125.553 16.3786C125.349 16.9304 125.247 17.5618 125.247 18.2727C125.247 18.9886 125.349 19.6275 125.553 20.1893C125.762 20.7461 126.067 21.1861 126.47 21.5092C126.878 21.8274 127.377 21.9865 127.969 21.9865ZM136.193 24V12.5455H138.892V24H136.193ZM137.55 10.9197C137.122 10.9197 136.755 10.7781 136.446 10.4947C136.138 10.2063 135.984 9.86079 135.984 9.4581C135.984 9.05043 136.138 8.7049 136.446 8.42152C136.755 8.13317 137.122 7.98899 137.55 7.98899C137.983 7.98899 138.35 8.13317 138.654 8.42152C138.962 8.7049 139.116 9.05043 139.116 9.4581C139.116 9.86079 138.962 10.2063 138.654 10.4947C138.35 10.7781 137.983 10.9197 137.55 10.9197ZM141.668 24V12.5455H144.249V14.4918H144.383C144.621 13.8356 145.017 13.3235 145.569 12.9556C146.12 12.5827 146.779 12.3963 147.545 12.3963C148.32 12.3963 148.974 12.5852 149.506 12.9631C150.043 13.3359 150.421 13.8455 150.64 14.4918H150.759C151.012 13.8555 151.44 13.3484 152.042 12.9705C152.648 12.5877 153.366 12.3963 154.197 12.3963C155.251 12.3963 156.111 12.7294 156.777 13.3956C157.443 14.0618 157.776 15.0337 157.776 16.3114V24H155.069V16.729C155.069 16.0181 154.88 15.4986 154.502 15.1705C154.125 14.8374 153.662 14.6708 153.115 14.6708C152.464 14.6708 151.955 14.8746 151.587 15.2823C151.224 15.685 151.042 16.2095 151.042 16.8558V24H148.395V16.6172C148.395 16.0256 148.216 15.5533 147.858 15.2003C147.505 14.8473 147.043 14.6708 146.471 14.6708C146.083 14.6708 145.73 14.7702 145.412 14.9691C145.094 15.163 144.84 15.4389 144.651 15.7969C144.462 16.1499 144.368 16.5625 144.368 17.0348V24H141.668ZM165.586 24.2237C164.438 24.2237 163.446 23.9851 162.611 23.5078C161.78 23.0256 161.141 22.3445 160.694 21.4645C160.247 20.5795 160.023 19.538 160.023 18.3398C160.023 17.1616 160.247 16.1275 160.694 15.2376C161.146 14.3427 161.778 13.6467 162.588 13.1495C163.399 12.6474 164.351 12.3963 165.444 12.3963C166.15 12.3963 166.816 12.5107 167.443 12.7393C168.074 12.9631 168.631 13.3111 169.113 13.7834C169.601 14.2557 169.983 14.8572 170.262 15.5881C170.54 16.3139 170.679 17.179 170.679 18.1832V19.011H161.291V17.1914H168.092C168.087 16.6744 167.975 16.2145 167.756 15.8118C167.537 15.4041 167.232 15.0835 166.839 14.8498C166.451 14.6161 165.999 14.4993 165.482 14.4993C164.93 14.4993 164.445 14.6335 164.027 14.902C163.61 15.1655 163.284 15.5135 163.051 15.946C162.822 16.3736 162.705 16.8434 162.7 17.3555V18.9439C162.7 19.6101 162.822 20.1818 163.065 20.6591C163.309 21.1314 163.65 21.4943 164.087 21.7479C164.525 21.9964 165.037 22.1207 165.623 22.1207C166.016 22.1207 166.372 22.0661 166.69 21.9567C167.008 21.8423 167.284 21.6758 167.517 21.457C167.751 21.2383 167.928 20.9673 168.047 20.6442L170.568 20.9276C170.408 21.5937 170.105 22.1754 169.658 22.6726C169.215 23.1648 168.649 23.5476 167.957 23.821C167.266 24.0895 166.476 24.2237 165.586 24.2237ZM175.663 17.2884V24H172.963V12.5455H175.544V14.4918H175.678C175.941 13.8505 176.361 13.3409 176.938 12.9631C177.52 12.5852 178.238 12.3963 179.093 12.3963C179.884 12.3963 180.572 12.5653 181.159 12.9034C181.751 13.2415 182.208 13.7312 182.531 14.3725C182.859 15.0138 183.021 15.7919 183.016 16.7067V24H180.316V17.1243C180.316 16.3587 180.117 15.7596 179.72 15.3271C179.327 14.8945 178.782 14.6783 178.086 14.6783C177.614 14.6783 177.194 14.7827 176.826 14.9915C176.463 15.1953 176.177 15.4911 175.969 15.8789C175.765 16.2667 175.663 16.7365 175.663 17.2884ZM191.48 12.5455V14.6335H184.895V12.5455H191.48ZM186.521 9.80114H189.22V20.5547C189.22 20.9176 189.275 21.196 189.384 21.3899C189.499 21.5788 189.648 21.7081 189.832 21.7777C190.016 21.8473 190.22 21.8821 190.443 21.8821C190.612 21.8821 190.767 21.8697 190.906 21.8448C191.05 21.82 191.159 21.7976 191.234 21.7777L191.689 23.8881C191.545 23.9379 191.338 23.9925 191.07 24.0522C190.806 24.1119 190.483 24.1467 190.1 24.1566C189.424 24.1765 188.815 24.0746 188.273 23.8509C187.731 23.6222 187.301 23.2692 186.983 22.7919C186.67 22.3146 186.516 21.718 186.521 21.0021V9.80114ZM198.611 24.2237C197.492 24.2237 196.523 23.9776 195.703 23.4854C194.882 22.9933 194.246 22.3047 193.794 21.4197C193.346 20.5348 193.122 19.5007 193.122 18.3175C193.122 17.1342 193.346 16.0977 193.794 15.2077C194.246 14.3178 194.882 13.6268 195.703 13.1346C196.523 12.6424 197.492 12.3963 198.611 12.3963C199.73 12.3963 200.699 12.6424 201.519 13.1346C202.34 13.6268 202.974 14.3178 203.421 15.2077C203.873 16.0977 204.1 17.1342 204.1 18.3175C204.1 19.5007 203.873 20.5348 203.421 21.4197C202.974 22.3047 202.34 22.9933 201.519 23.4854C200.699 23.9776 199.73 24.2237 198.611 24.2237ZM198.626 22.0611C199.233 22.0611 199.74 21.8945 200.147 21.5614C200.555 21.2234 200.858 20.771 201.057 20.2042C201.261 19.6374 201.363 19.006 201.363 18.31C201.363 17.609 201.261 16.9751 201.057 16.4084C200.858 15.8366 200.555 15.3817 200.147 15.0437C199.74 14.7056 199.233 14.5366 198.626 14.5366C198.005 14.5366 197.487 14.7056 197.075 15.0437C196.667 15.3817 196.361 15.8366 196.158 16.4084C195.959 16.9751 195.859 17.609 195.859 18.31C195.859 19.006 195.959 19.6374 196.158 20.2042C196.361 20.771 196.667 21.2234 197.075 21.5614C197.487 21.8945 198.005 22.0611 198.626 22.0611ZM75.5064 49V33.7273H78.2731V40.1928H85.3501V33.7273H88.1243V49H85.3501V42.5121H78.2731V49H75.5064ZM98.3148 44.1825V37.5455H101.014V49H98.3968V46.9641H98.2775C98.019 47.6055 97.5939 48.13 97.0023 48.5376C96.4157 48.9453 95.6923 49.1491 94.8322 49.1491C94.0815 49.1491 93.4178 48.9826 92.8411 48.6495C92.2694 48.3114 91.8219 47.8217 91.4988 47.1804C91.1756 46.5341 91.014 45.7536 91.014 44.8388V37.5455H93.7136V44.4212C93.7136 45.147 93.9125 45.7237 94.3102 46.1513C94.7079 46.5788 95.2299 46.7926 95.8762 46.7926C96.274 46.7926 96.6593 46.6957 97.0321 46.5018C97.405 46.3079 97.7108 46.0195 97.9494 45.6367C98.193 45.2489 98.3148 44.7642 98.3148 44.1825ZM103.79 49V37.5455H106.371V39.4918H106.505C106.744 38.8356 107.139 38.3235 107.691 37.9556C108.242 37.5827 108.901 37.3963 109.667 37.3963C110.442 37.3963 111.096 37.5852 111.628 37.9631C112.165 38.3359 112.543 38.8455 112.762 39.4918H112.881C113.135 38.8555 113.562 38.3484 114.164 37.9705C114.77 37.5877 115.489 37.3963 116.319 37.3963C117.373 37.3963 118.233 37.7294 118.899 38.3956C119.565 39.0618 119.898 40.0337 119.898 41.3114V49H117.191V41.729C117.191 41.0181 117.002 40.4986 116.625 40.1705C116.247 39.8374 115.784 39.6708 115.237 39.6708C114.586 39.6708 114.077 39.8746 113.709 40.2823C113.346 40.685 113.164 41.2095 113.164 41.8558V49H110.517V41.6172C110.517 41.0256 110.338 40.5533 109.98 40.2003C109.627 39.8473 109.165 39.6708 108.593 39.6708C108.205 39.6708 107.852 39.7702 107.534 39.9691C107.216 40.163 106.962 40.4389 106.773 40.7969C106.584 41.1499 106.49 41.5625 106.49 42.0348V49H103.79ZM125.933 49.2312C125.207 49.2312 124.554 49.1019 123.972 48.8434C123.395 48.5799 122.938 48.1921 122.6 47.68C122.267 47.168 122.1 46.5366 122.1 45.7859C122.1 45.1396 122.219 44.6051 122.458 44.1825C122.697 43.7599 123.022 43.4219 123.435 43.1683C123.848 42.9148 124.313 42.7234 124.83 42.5941C125.352 42.4599 125.891 42.3629 126.448 42.3033C127.119 42.2337 127.663 42.1715 128.081 42.1168C128.499 42.0572 128.802 41.9677 128.991 41.8484C129.185 41.7241 129.282 41.5327 129.282 41.2741V41.2294C129.282 40.6676 129.115 40.2326 128.782 39.9244C128.449 39.6161 127.969 39.462 127.343 39.462C126.681 39.462 126.157 39.6062 125.769 39.8945C125.386 40.1829 125.128 40.5234 124.994 40.9162L122.473 40.5582C122.672 39.8622 123 39.2805 123.457 38.8132C123.915 38.3409 124.474 37.9879 125.135 37.7543C125.797 37.5156 126.527 37.3963 127.328 37.3963C127.88 37.3963 128.429 37.4609 128.976 37.5902C129.523 37.7195 130.022 37.9332 130.475 38.2315C130.927 38.5249 131.29 38.9251 131.564 39.4322C131.842 39.9393 131.981 40.5732 131.981 41.3338V49H129.386V47.4265H129.297C129.132 47.7447 128.901 48.043 128.603 48.3214C128.31 48.5948 127.939 48.8161 127.492 48.9851C127.049 49.1491 126.53 49.2312 125.933 49.2312ZM126.634 47.2475C127.176 47.2475 127.646 47.1406 128.044 46.9268C128.441 46.7081 128.747 46.4197 128.961 46.0618C129.18 45.7038 129.289 45.3136 129.289 44.891V43.5412C129.205 43.6108 129.06 43.6754 128.857 43.7351C128.658 43.7947 128.434 43.8469 128.185 43.8917C127.937 43.9364 127.691 43.9762 127.447 44.011C127.203 44.0458 126.992 44.0756 126.813 44.1005C126.411 44.1552 126.05 44.2447 125.732 44.369C125.414 44.4933 125.163 44.6673 124.979 44.891C124.795 45.1097 124.703 45.3931 124.703 45.7411C124.703 46.2383 124.884 46.6136 125.247 46.8672C125.61 47.1207 126.072 47.2475 126.634 47.2475ZM137.395 42.2884V49H134.696V37.5455H137.276V39.4918H137.41C137.674 38.8505 138.094 38.3409 138.67 37.9631C139.252 37.5852 139.971 37.3963 140.826 37.3963C141.616 37.3963 142.305 37.5653 142.891 37.9034C143.483 38.2415 143.94 38.7312 144.263 39.3725C144.592 40.0138 144.753 40.7919 144.748 41.7067V49H142.049V42.1243C142.049 41.3587 141.85 40.7596 141.452 40.3271C141.059 39.8945 140.515 39.6783 139.819 39.6783C139.347 39.6783 138.926 39.7827 138.559 39.9915C138.196 40.1953 137.91 40.4911 137.701 40.8789C137.497 41.2667 137.395 41.7365 137.395 42.2884ZM147.493 49V37.5455H150.192V49H147.493ZM148.85 35.9197C148.422 35.9197 148.054 35.7781 147.746 35.4947C147.438 35.2063 147.284 34.8608 147.284 34.4581C147.284 34.0504 147.438 33.7049 147.746 33.4215C148.054 33.1332 148.422 32.989 148.85 32.989C149.282 32.989 149.65 33.1332 149.953 33.4215C150.262 33.7049 150.416 34.0504 150.416 34.4581C150.416 34.8608 150.262 35.2063 149.953 35.4947C149.65 35.7781 149.282 35.9197 148.85 35.9197ZM152.819 49V47.2848L158.725 39.8796V39.7827H153.013V37.5455H162.029V39.3874L156.406 46.6658V46.7628H162.223V49H152.819ZM168.056 49.2312C167.33 49.2312 166.677 49.1019 166.095 48.8434C165.518 48.5799 165.061 48.1921 164.723 47.68C164.39 47.168 164.223 46.5366 164.223 45.7859C164.223 45.1396 164.343 44.6051 164.581 44.1825C164.82 43.7599 165.145 43.4219 165.558 43.1683C165.971 42.9148 166.436 42.7234 166.953 42.5941C167.475 42.4599 168.014 42.3629 168.571 42.3033C169.242 42.2337 169.786 42.1715 170.204 42.1168C170.622 42.0572 170.925 41.9677 171.114 41.8484C171.308 41.7241 171.405 41.5327 171.405 41.2741V41.2294C171.405 40.6676 171.238 40.2326 170.905 39.9244C170.572 39.6161 170.092 39.462 169.466 39.462C168.805 39.462 168.28 39.6062 167.892 39.8945C167.509 40.1829 167.251 40.5234 167.117 40.9162L164.596 40.5582C164.795 39.8622 165.123 39.2805 165.58 38.8132C166.038 38.3409 166.597 37.9879 167.258 37.7543C167.92 37.5156 168.65 37.3963 169.451 37.3963C170.003 37.3963 170.552 37.4609 171.099 37.5902C171.646 37.7195 172.145 37.9332 172.598 38.2315C173.05 38.5249 173.413 38.9251 173.687 39.4322C173.965 39.9393 174.104 40.5732 174.104 41.3338V49H171.509V47.4265H171.42C171.256 47.7447 171.024 48.043 170.726 48.3214C170.433 48.5948 170.062 48.8161 169.615 48.9851C169.172 49.1491 168.653 49.2312 168.056 49.2312ZM168.757 47.2475C169.299 47.2475 169.769 47.1406 170.167 46.9268C170.564 46.7081 170.87 46.4197 171.084 46.0618C171.303 45.7038 171.412 45.3136 171.412 44.891V43.5412C171.328 43.6108 171.183 43.6754 170.98 43.7351C170.781 43.7947 170.557 43.8469 170.308 43.8917C170.06 43.9364 169.814 43.9762 169.57 44.011C169.327 44.0458 169.115 44.0756 168.936 44.1005C168.534 44.1552 168.173 44.2447 167.855 44.369C167.537 44.4933 167.286 44.6673 167.102 44.891C166.918 45.1097 166.826 45.3931 166.826 45.7411C166.826 46.2383 167.007 46.6136 167.37 46.8672C167.733 47.1207 168.195 47.2475 168.757 47.2475ZM181.069 49.2013C180.17 49.2013 179.364 48.9702 178.653 48.5078C177.942 48.0455 177.381 47.3743 176.968 46.4943C176.555 45.6143 176.349 44.5455 176.349 43.2876C176.349 42.0149 176.558 40.9411 176.975 40.0661C177.398 39.1861 177.967 38.5224 178.683 38.0749C179.399 37.6225 180.197 37.3963 181.077 37.3963C181.748 37.3963 182.3 37.5107 182.732 37.7393C183.165 37.9631 183.508 38.234 183.762 38.5522C184.015 38.8654 184.211 39.1612 184.351 39.4396H184.463V33.7273H187.17V49H184.515V47.1953H184.351C184.211 47.4737 184.01 47.7695 183.747 48.0827C183.483 48.391 183.135 48.6545 182.703 48.8732C182.27 49.092 181.726 49.2013 181.069 49.2013ZM181.823 46.9865C182.394 46.9865 182.882 46.8324 183.284 46.5241C183.687 46.2109 183.993 45.7759 184.202 45.2191C184.41 44.6623 184.515 44.0135 184.515 43.2727C184.515 42.532 184.41 41.8881 184.202 41.3413C183.998 40.7944 183.694 40.3693 183.292 40.0661C182.894 39.7628 182.404 39.6112 181.823 39.6112C181.221 39.6112 180.719 39.7678 180.316 40.081C179.914 40.3942 179.61 40.8267 179.406 41.3786C179.203 41.9304 179.101 42.5618 179.101 43.2727C179.101 43.9886 179.203 44.6275 179.406 45.1893C179.615 45.7461 179.921 46.1861 180.324 46.5092C180.731 46.8274 181.231 46.9865 181.823 46.9865ZM195.043 49.2237C193.924 49.2237 192.955 48.9776 192.134 48.4854C191.314 47.9933 190.678 47.3047 190.225 46.4197C189.778 45.5348 189.554 44.5007 189.554 43.3175C189.554 42.1342 189.778 41.0977 190.225 40.2077C190.678 39.3178 191.314 38.6268 192.134 38.1346C192.955 37.6424 193.924 37.3963 195.043 37.3963C196.161 37.3963 197.131 37.6424 197.951 38.1346C198.771 38.6268 199.405 39.3178 199.853 40.2077C200.305 41.0977 200.531 42.1342 200.531 43.3175C200.531 44.5007 200.305 45.5348 199.853 46.4197C199.405 47.3047 198.771 47.9933 197.951 48.4854C197.131 48.9776 196.161 49.2237 195.043 49.2237ZM195.058 47.0611C195.664 47.0611 196.171 46.8945 196.579 46.5614C196.987 46.2234 197.29 45.771 197.489 45.2042C197.693 44.6374 197.794 44.006 197.794 43.31C197.794 42.609 197.693 41.9751 197.489 41.4084C197.29 40.8366 196.987 40.3817 196.579 40.0437C196.171 39.7056 195.664 39.5366 195.058 39.5366C194.436 39.5366 193.919 39.7056 193.506 40.0437C193.099 40.3817 192.793 40.8366 192.589 41.4084C192.39 41.9751 192.291 42.609 192.291 43.31C192.291 44.006 192.39 44.6374 192.589 45.2042C192.793 45.771 193.099 46.2234 193.506 46.5614C193.919 46.8945 194.436 47.0611 195.058 47.0611Z" fill="white"/>
<rect width="57" height="58" rx="10" fill="#F8F8F8"/>
<path d="M14.0765 31.9703L27.1127 44.2165C27.5618 44.6382 27.7862 44.8492 28.051 44.9011C28.1702 44.9245 28.2929 44.9245 28.4121 44.9011C28.6769 44.8492 28.9013 44.6382 29.3504 44.2165L42.3865 31.9703C46.0544 28.5248 46.4997 22.8548 43.4149 18.8789L42.835 18.1312C39.1446 13.3748 31.737 14.1725 29.1441 19.6056C28.7777 20.373 27.6854 20.373 27.319 19.6056C24.726 14.1725 17.3185 13.3748 13.6282 18.1313L13.0481 18.8789C9.96332 22.8548 10.4087 28.5248 14.0765 31.9703Z" fill="#71B1FD" stroke="#71B1FD" stroke-width="1.4"/>
</svg>
