<svg width="242" height="58" viewBox="0 0 242 58" fill="none" xmlns="http://www.w3.org/2000/svg">
<path d="M83.4677 24H80.5146L85.8913 8.72727H89.3068L94.6911 24H91.7379L87.6587 11.8594H87.5394L83.4677 24ZM83.5646 18.0117H91.6186V20.234H83.5646V18.0117ZM96.5834 12.5455H99.2829V24.6562C99.2829 25.4815 99.1263 26.1626 98.8131 26.6996C98.4999 27.2365 98.0475 27.6367 97.4559 27.9002C96.8643 28.1637 96.1459 28.2955 95.3007 28.2955C95.2013 28.2955 95.1093 28.293 95.0248 28.288C94.9403 28.288 94.8483 28.2855 94.7488 28.2805V26.0806C94.8234 26.0856 94.8905 26.0881 94.9502 26.0881C95.0099 26.093 95.072 26.0955 95.1366 26.0955C95.6537 26.0955 96.0241 25.9688 96.2478 25.7152C96.4715 25.4666 96.5834 25.1012 96.5834 24.619V12.5455ZM97.9257 10.9197C97.4932 10.9197 97.1228 10.7781 96.8145 10.4947C96.5113 10.2063 96.3596 9.86079 96.3596 9.4581C96.3596 9.05043 96.5113 8.7049 96.8145 8.42152C97.1228 8.13317 97.4932 7.98899 97.9257 7.98899C98.3532 7.98899 98.7187 8.13317 99.0219 8.42152C99.3302 8.7049 99.4843 9.05043 99.4843 9.4581C99.4843 9.86079 99.3302 10.2063 99.0219 10.4947C98.7187 10.7781 98.3532 10.9197 97.9257 10.9197ZM109.36 19.1825V12.5455H112.059V24H109.442V21.9641H109.322C109.064 22.6055 108.639 23.13 108.047 23.5376C107.461 23.9453 106.737 24.1491 105.877 24.1491C105.126 24.1491 104.463 23.9826 103.886 23.6495C103.314 23.3114 102.867 22.8217 102.544 22.1804C102.221 21.5341 102.059 20.7536 102.059 19.8388V12.5455H104.759V19.4212C104.759 20.147 104.957 20.7237 105.355 21.1513C105.753 21.5788 106.275 21.7926 106.921 21.7926C107.319 21.7926 107.704 21.6957 108.077 21.5018C108.45 21.3079 108.756 21.0195 108.994 20.6367C109.238 20.2489 109.36 19.7642 109.36 19.1825ZM119.086 24.2013C118.186 24.2013 117.381 23.9702 116.67 23.5078C115.959 23.0455 115.397 22.3743 114.984 21.4943C114.572 20.6143 114.366 19.5455 114.366 18.2876C114.366 17.0149 114.574 15.9411 114.992 15.0661C115.415 14.1861 115.984 13.5224 116.7 13.0749C117.416 12.6225 118.214 12.3963 119.093 12.3963C119.765 12.3963 120.316 12.5107 120.749 12.7393C121.182 12.9631 121.525 13.234 121.778 13.5522C122.032 13.8654 122.228 14.1612 122.367 14.4396H122.479V8.72727H125.186V24H122.531V22.1953H122.367C122.228 22.4737 122.027 22.7695 121.763 23.0827C121.5 23.391 121.152 23.6545 120.719 23.8732C120.287 24.092 119.742 24.2013 119.086 24.2013ZM119.839 21.9865C120.411 21.9865 120.898 21.8324 121.301 21.5241C121.704 21.2109 122.009 20.7759 122.218 20.2191C122.427 19.6623 122.531 19.0135 122.531 18.2727C122.531 17.532 122.427 16.8881 122.218 16.3413C122.014 15.7944 121.711 15.3693 121.308 15.0661C120.911 14.7628 120.421 14.6112 119.839 14.6112C119.238 14.6112 118.736 14.7678 118.333 15.081C117.93 15.3942 117.627 15.8267 117.423 16.3786C117.219 16.9304 117.117 17.5618 117.117 18.2727C117.117 18.9886 117.219 19.6275 117.423 20.1893C117.632 20.7461 117.938 21.1861 118.34 21.5092C118.748 21.8274 119.248 21.9865 119.839 21.9865ZM133.134 24.2237C131.985 24.2237 130.994 23.9851 130.158 23.5078C129.328 23.0256 128.689 22.3445 128.242 21.4645C127.794 20.5795 127.571 19.538 127.571 18.3398C127.571 17.1616 127.794 16.1275 128.242 15.2376C128.694 14.3427 129.326 13.6467 130.136 13.1495C130.946 12.6474 131.898 12.3963 132.992 12.3963C133.698 12.3963 134.364 12.5107 134.991 12.7393C135.622 12.9631 136.179 13.3111 136.661 13.7834C137.148 14.2557 137.531 14.8572 137.81 15.5881C138.088 16.3139 138.227 17.179 138.227 18.1832V19.011H128.838V17.1914H135.64C135.635 16.6744 135.523 16.2145 135.304 15.8118C135.085 15.4041 134.779 15.0835 134.387 14.8498C133.999 14.6161 133.547 14.4993 133.029 14.4993C132.478 14.4993 131.993 14.6335 131.575 14.902C131.158 15.1655 130.832 15.5135 130.598 15.946C130.37 16.3736 130.253 16.8434 130.248 17.3555V18.9439C130.248 19.6101 130.37 20.1818 130.613 20.6591C130.857 21.1314 131.197 21.4943 131.635 21.7479C132.072 21.9964 132.585 22.1207 133.171 22.1207C133.564 22.1207 133.919 22.0661 134.238 21.9567C134.556 21.8423 134.832 21.6758 135.065 21.457C135.299 21.2383 135.475 20.9673 135.595 20.6442L138.115 20.9276C137.956 21.5937 137.653 22.1754 137.206 22.6726C136.763 23.1648 136.196 23.5476 135.505 23.821C134.814 24.0895 134.024 24.2237 133.134 24.2237ZM140.511 24V12.5455H143.211V24H140.511ZM141.868 10.9197C141.441 10.9197 141.073 10.7781 140.765 10.4947C140.456 10.2063 140.302 9.86079 140.302 9.4581C140.302 9.05043 140.456 8.7049 140.765 8.42152C141.073 8.13317 141.441 7.98899 141.868 7.98899C142.301 7.98899 142.669 8.13317 142.972 8.42152C143.28 8.7049 143.434 9.05043 143.434 9.4581C143.434 9.86079 143.28 10.2063 142.972 10.4947C142.669 10.7781 142.301 10.9197 141.868 10.9197ZM151.196 24V12.5455H153.776V14.4918H153.91C154.149 13.8356 154.544 13.3235 155.096 12.9556C155.648 12.5827 156.306 12.3963 157.072 12.3963C157.848 12.3963 158.501 12.5852 159.033 12.9631C159.57 13.3359 159.948 13.8455 160.167 14.4918H160.286C160.54 13.8555 160.967 13.3484 161.569 12.9705C162.175 12.5877 162.894 12.3963 163.724 12.3963C164.778 12.3963 165.638 12.7294 166.304 13.3956C166.971 14.0618 167.304 15.0337 167.304 16.3114V24H164.597V16.729C164.597 16.0181 164.408 15.4986 164.03 15.1705C163.652 14.8374 163.19 14.6708 162.643 14.6708C161.991 14.6708 161.482 14.8746 161.114 15.2823C160.751 15.685 160.57 16.2095 160.57 16.8558V24H157.922V16.6172C157.922 16.0256 157.743 15.5533 157.385 15.2003C157.032 14.8473 156.57 14.6708 155.998 14.6708C155.61 14.6708 155.257 14.7702 154.939 14.9691C154.621 15.163 154.368 15.4389 154.179 15.7969C153.99 16.1499 153.895 16.5625 153.895 17.0348V24H151.196ZM170.042 24V12.5455H172.742V24H170.042ZM171.4 10.9197C170.972 10.9197 170.604 10.7781 170.296 10.4947C169.988 10.2063 169.834 9.86079 169.834 9.4581C169.834 9.05043 169.988 8.7049 170.296 8.42152C170.604 8.13317 170.972 7.98899 171.4 7.98899C171.832 7.98899 172.2 8.13317 172.503 8.42152C172.812 8.7049 172.966 9.05043 172.966 9.4581C172.966 9.86079 172.812 10.2063 172.503 10.4947C172.2 10.7781 171.832 10.9197 171.4 10.9197ZM178.218 8.72727V24H175.518V8.72727H178.218ZM183.693 17.2884V24H180.994V8.72727H183.633V14.4918H183.768C184.036 13.8455 184.451 13.3359 185.013 12.9631C185.58 12.5852 186.301 12.3963 187.176 12.3963C187.971 12.3963 188.665 12.5629 189.256 12.896C189.848 13.229 190.305 13.7163 190.628 14.3576C190.957 14.9989 191.121 15.782 191.121 16.7067V24H188.421V17.1243C188.421 16.3537 188.222 15.7546 187.824 15.3271C187.432 14.8945 186.88 14.6783 186.169 14.6783C185.692 14.6783 185.264 14.7827 184.886 14.9915C184.513 15.1953 184.22 15.4911 184.006 15.8789C183.797 16.2667 183.693 16.7365 183.693 17.2884ZM197.169 24.2312C196.443 24.2312 195.789 24.1019 195.207 23.8434C194.631 23.5799 194.173 23.1921 193.835 22.68C193.502 22.168 193.335 21.5366 193.335 20.7859C193.335 20.1396 193.455 19.6051 193.693 19.1825C193.932 18.7599 194.258 18.4219 194.67 18.1683C195.083 17.9148 195.548 17.7234 196.065 17.5941C196.587 17.4599 197.126 17.3629 197.683 17.3033C198.354 17.2337 198.899 17.1715 199.316 17.1168C199.734 17.0572 200.037 16.9677 200.226 16.8484C200.42 16.7241 200.517 16.5327 200.517 16.2741V16.2294C200.517 15.6676 200.35 15.2326 200.017 14.9244C199.684 14.6161 199.204 14.462 198.578 14.462C197.917 14.462 197.392 14.6062 197.005 14.8945C196.622 15.1829 196.363 15.5234 196.229 15.9162L193.708 15.5582C193.907 14.8622 194.235 14.2805 194.693 13.8132C195.15 13.3409 195.709 12.9879 196.371 12.7543C197.032 12.5156 197.763 12.3963 198.563 12.3963C199.115 12.3963 199.664 12.4609 200.211 12.5902C200.758 12.7195 201.258 12.9332 201.71 13.2315C202.163 13.5249 202.525 13.9251 202.799 14.4322C203.077 14.9393 203.217 15.5732 203.217 16.3338V24H200.621V22.4265H200.532C200.368 22.7447 200.137 23.043 199.838 23.3214C199.545 23.5948 199.175 23.8161 198.727 23.9851C198.285 24.1491 197.765 24.2312 197.169 24.2312ZM197.87 22.2475C198.411 22.2475 198.881 22.1406 199.279 21.9268C199.677 21.7081 199.983 21.4197 200.196 21.0618C200.415 20.7038 200.524 20.3136 200.524 19.891V18.5412C200.44 18.6108 200.296 18.6754 200.092 18.7351C199.893 18.7947 199.669 18.8469 199.421 18.8917C199.172 18.9364 198.926 18.9762 198.682 19.011C198.439 19.0458 198.228 19.0756 198.049 19.1005C197.646 19.1552 197.285 19.2447 196.967 19.369C196.649 19.4933 196.398 19.6673 196.214 19.891C196.03 20.1097 195.938 20.3931 195.938 20.7411C195.938 21.2383 196.12 21.6136 196.483 21.8672C196.845 22.1207 197.308 22.2475 197.87 22.2475ZM205.931 24V12.5455H208.549V14.4545H208.668C208.877 13.7933 209.235 13.2837 209.742 12.9258C210.254 12.5629 210.838 12.3814 211.494 12.3814C211.643 12.3814 211.81 12.3888 211.994 12.4038C212.183 12.4137 212.339 12.4311 212.464 12.456V14.9393C212.349 14.8995 212.168 14.8647 211.919 14.8349C211.676 14.8001 211.44 14.7827 211.211 14.7827C210.719 14.7827 210.276 14.8896 209.883 15.1033C209.496 15.3121 209.19 15.603 208.966 15.9759C208.742 16.3487 208.631 16.7788 208.631 17.266V24H205.931ZM218.857 24.2237C217.708 24.2237 216.716 23.9851 215.881 23.5078C215.051 23.0256 214.412 22.3445 213.964 21.4645C213.517 20.5795 213.293 19.538 213.293 18.3398C213.293 17.1616 213.517 16.1275 213.964 15.2376C214.417 14.3427 215.048 13.6467 215.859 13.1495C216.669 12.6474 217.621 12.3963 218.715 12.3963C219.421 12.3963 220.087 12.5107 220.713 12.7393C221.345 12.9631 221.902 13.3111 222.384 13.7834C222.871 14.2557 223.254 14.8572 223.532 15.5881C223.811 16.3139 223.95 17.179 223.95 18.1832V19.011H214.561V17.1914H221.362C221.357 16.6744 221.245 16.2145 221.027 15.8118C220.808 15.4041 220.502 15.0835 220.109 14.8498C219.722 14.6161 219.269 14.4993 218.752 14.4993C218.2 14.4993 217.716 14.6335 217.298 14.902C216.88 15.1655 216.555 15.5135 216.321 15.946C216.092 16.3736 215.975 16.8434 215.971 17.3555V18.9439C215.971 19.6101 216.092 20.1818 216.336 20.6591C216.58 21.1314 216.92 21.4943 217.358 21.7479C217.795 21.9964 218.307 22.1207 218.894 22.1207C219.287 22.1207 219.642 22.0661 219.96 21.9567C220.278 21.8423 220.554 21.6758 220.788 21.457C221.022 21.2383 221.198 20.9673 221.317 20.6442L223.838 20.9276C223.679 21.5937 223.376 22.1754 222.928 22.6726C222.486 23.1648 221.919 23.5476 221.228 23.821C220.537 24.0895 219.746 24.2237 218.857 24.2237ZM235.287 15.5732L232.826 15.8416C232.756 15.593 232.635 15.3594 232.461 15.1406C232.292 14.9219 232.063 14.7454 231.775 14.6112C231.486 14.4769 231.133 14.4098 230.716 14.4098C230.154 14.4098 229.682 14.5316 229.299 14.7752C228.921 15.0188 228.734 15.3345 228.739 15.7223C228.734 16.0554 228.856 16.3263 229.105 16.5352C229.358 16.744 229.776 16.9155 230.358 17.0497L232.312 17.4673C233.395 17.701 234.201 18.0714 234.728 18.5785C235.26 19.0856 235.528 19.7493 235.533 20.5696C235.528 21.2905 235.317 21.9268 234.899 22.4787C234.487 23.0256 233.912 23.4531 233.177 23.7614C232.441 24.0696 231.596 24.2237 230.641 24.2237C229.239 24.2237 228.111 23.9304 227.255 23.3438C226.4 22.7521 225.891 21.9293 225.727 20.8754L228.359 20.6218C228.478 21.1388 228.732 21.5291 229.12 21.7926C229.508 22.0561 230.012 22.1879 230.634 22.1879C231.275 22.1879 231.79 22.0561 232.177 21.7926C232.57 21.5291 232.766 21.2035 232.766 20.8157C232.766 20.4876 232.64 20.2166 232.386 20.0028C232.138 19.7891 231.75 19.625 231.223 19.5107L229.269 19.1005C228.17 18.8718 227.357 18.4865 226.83 17.9446C226.303 17.3977 226.042 16.7067 226.047 15.8714C226.042 15.1655 226.234 14.554 226.622 14.0369C227.014 13.5149 227.559 13.1122 228.255 12.8288C228.956 12.5405 229.764 12.3963 230.678 12.3963C232.021 12.3963 233.077 12.6822 233.848 13.2539C234.623 13.8256 235.103 14.5987 235.287 15.5732ZM85.6378 49.2013C84.7379 49.2013 83.9325 48.9702 83.2216 48.5078C82.5107 48.0455 81.9489 47.3743 81.5362 46.4943C81.1236 45.6143 80.9173 44.5455 80.9173 43.2876C80.9173 42.0149 81.1261 40.9411 81.5437 40.0661C81.9663 39.1861 82.5355 38.5224 83.2514 38.0749C83.9673 37.6225 84.7653 37.3963 85.6452 37.3963C86.3164 37.3963 86.8683 37.5107 87.3008 37.7393C87.7333 37.9631 88.0763 38.234 88.3299 38.5522C88.5835 38.8654 88.7798 39.1612 88.919 39.4396H89.0309V33.7273H91.7379V49H89.0831V47.1953H88.919C88.7798 47.4737 88.5785 47.7695 88.315 48.0827C88.0515 48.391 87.7035 48.6545 87.271 48.8732C86.8384 49.092 86.294 49.2013 85.6378 49.2013ZM86.391 46.9865C86.9627 46.9865 87.4499 46.8324 87.8526 46.5241C88.2553 46.2109 88.5611 45.7759 88.7699 45.2191C88.9787 44.6623 89.0831 44.0135 89.0831 43.2727C89.0831 42.532 88.9787 41.8881 88.7699 41.3413C88.5661 40.7944 88.2628 40.3693 87.8601 40.0661C87.4624 39.7628 86.9727 39.6112 86.391 39.6112C85.7894 39.6112 85.2873 39.7678 84.8846 40.081C84.4819 40.3942 84.1786 40.8267 83.9748 41.3786C83.771 41.9304 83.669 42.5618 83.669 43.2727C83.669 43.9886 83.771 44.6275 83.9748 45.1893C84.1836 45.7461 84.4893 46.1861 84.892 46.5092C85.2997 46.8274 85.7994 46.9865 86.391 46.9865ZM99.6856 49.2237C98.5372 49.2237 97.5454 48.9851 96.7101 48.5078C95.8799 48.0256 95.241 47.3445 94.7936 46.4645C94.3461 45.5795 94.1224 44.538 94.1224 43.3398C94.1224 42.1616 94.3461 41.1275 94.7936 40.2376C95.246 39.3427 95.8774 38.6467 96.6878 38.1495C97.4981 37.6474 98.4502 37.3963 99.5439 37.3963C100.25 37.3963 100.916 37.5107 101.543 37.7393C102.174 37.9631 102.731 38.3111 103.213 38.7834C103.7 39.2557 104.083 39.8572 104.361 40.5881C104.64 41.3139 104.779 42.179 104.779 43.1832V44.011H95.3902V42.1914H102.191C102.186 41.6744 102.074 41.2145 101.856 40.8118C101.637 40.4041 101.331 40.0835 100.938 39.8498C100.551 39.6161 100.098 39.4993 99.5812 39.4993C99.0294 39.4993 98.5447 39.6335 98.127 39.902C97.7094 40.1655 97.3838 40.5135 97.1501 40.946C96.9214 41.3736 96.8046 41.8434 96.7996 42.3555V43.9439C96.7996 44.6101 96.9214 45.1818 97.165 45.6591C97.4086 46.1314 97.7492 46.4943 98.1867 46.7479C98.6242 46.9964 99.1363 47.1207 99.7229 47.1207C100.116 47.1207 100.471 47.0661 100.789 46.9567C101.108 46.8423 101.383 46.6758 101.617 46.457C101.851 46.2383 102.027 45.9673 102.147 45.6442L104.667 45.9276C104.508 46.5937 104.205 47.1754 103.757 47.6726C103.315 48.1648 102.748 48.5476 102.057 48.821C101.366 49.0895 100.576 49.2237 99.6856 49.2237ZM112.272 53.2955V37.5455H114.927V39.4396H115.083C115.222 39.1612 115.419 38.8654 115.672 38.5522C115.926 38.234 116.269 37.9631 116.702 37.7393C117.134 37.5107 117.686 37.3963 118.357 37.3963C119.242 37.3963 120.04 37.6225 120.751 38.0749C121.467 38.5224 122.034 39.1861 122.451 40.0661C122.874 40.9411 123.085 42.0149 123.085 43.2876C123.085 44.5455 122.879 45.6143 122.466 46.4943C122.053 47.3743 121.492 48.0455 120.781 48.5078C120.07 48.9702 119.264 49.2013 118.365 49.2013C117.708 49.2013 117.164 49.092 116.731 48.8732C116.299 48.6545 115.951 48.391 115.687 48.0827C115.429 47.7695 115.227 47.4737 115.083 47.1953H114.971V53.2955H112.272ZM114.919 43.2727C114.919 44.0135 115.024 44.6623 115.232 45.2191C115.446 45.7759 115.752 46.2109 116.15 46.5241C116.552 46.8324 117.04 46.9865 117.611 46.9865C118.208 46.9865 118.708 46.8274 119.11 46.5092C119.513 46.1861 119.816 45.7461 120.02 45.1893C120.229 44.6275 120.333 43.9886 120.333 43.2727C120.333 42.5618 120.231 41.9304 120.028 41.3786C119.824 40.8267 119.52 40.3942 119.118 40.081C118.715 39.7678 118.213 39.6112 117.611 39.6112C117.035 39.6112 116.545 39.7628 116.142 40.0661C115.74 40.3693 115.434 40.7944 115.225 41.3413C115.021 41.8881 114.919 42.532 114.919 43.2727ZM128.693 49.2312C127.967 49.2312 127.313 49.1019 126.732 48.8434C126.155 48.5799 125.698 48.1921 125.36 47.68C125.026 47.168 124.86 46.5366 124.86 45.7859C124.86 45.1396 124.979 44.6051 125.218 44.1825C125.456 43.7599 125.782 43.4219 126.195 43.1683C126.607 42.9148 127.072 42.7234 127.589 42.5941C128.111 42.4599 128.651 42.3629 129.208 42.3033C129.879 42.2337 130.423 42.1715 130.841 42.1168C131.258 42.0572 131.562 41.9677 131.751 41.8484C131.944 41.7241 132.041 41.5327 132.041 41.2741V41.2294C132.041 40.6676 131.875 40.2326 131.542 39.9244C131.209 39.6161 130.729 39.462 130.102 39.462C129.441 39.462 128.917 39.6062 128.529 39.8945C128.146 40.1829 127.888 40.5234 127.753 40.9162L125.233 40.5582C125.432 39.8622 125.76 39.2805 126.217 38.8132C126.675 38.3409 127.234 37.9879 127.895 37.7543C128.556 37.5156 129.287 37.3963 130.088 37.3963C130.639 37.3963 131.189 37.4609 131.736 37.5902C132.282 37.7195 132.782 37.9332 133.235 38.2315C133.687 38.5249 134.05 38.9251 134.323 39.4322C134.602 39.9393 134.741 40.5732 134.741 41.3338V49H132.146V47.4265H132.056C131.892 47.7447 131.661 48.043 131.363 48.3214C131.069 48.5948 130.699 48.8161 130.252 48.9851C129.809 49.1491 129.29 49.2312 128.693 49.2312ZM129.394 47.2475C129.936 47.2475 130.406 47.1406 130.803 46.9268C131.201 46.7081 131.507 46.4197 131.721 46.0618C131.939 45.7038 132.049 45.3136 132.049 44.891V43.5412C131.964 43.6108 131.82 43.6754 131.616 43.7351C131.417 43.7947 131.194 43.8469 130.945 43.8917C130.697 43.9364 130.45 43.9762 130.207 44.011C129.963 44.0458 129.752 44.0756 129.573 44.1005C129.17 44.1552 128.81 44.2447 128.492 44.369C128.173 44.4933 127.922 44.6673 127.738 44.891C127.555 45.1097 127.463 45.3931 127.463 45.7411C127.463 46.2383 127.644 46.6136 128.007 46.8672C128.37 47.1207 128.832 47.2475 129.394 47.2475ZM142.452 49.2237C141.308 49.2237 140.327 48.9727 139.506 48.4705C138.691 47.9684 138.062 47.2749 137.619 46.3899C137.182 45.5 136.963 44.4759 136.963 43.3175C136.963 42.1541 137.187 41.1275 137.634 40.2376C138.082 39.3427 138.713 38.6467 139.529 38.1495C140.349 37.6474 141.318 37.3963 142.437 37.3963C143.367 37.3963 144.189 37.5678 144.905 37.9109C145.626 38.2489 146.2 38.7287 146.628 39.3501C147.056 39.9666 147.299 40.6875 147.359 41.5128H144.779C144.674 40.9609 144.426 40.5011 144.033 40.1332C143.645 39.7603 143.126 39.5739 142.474 39.5739C141.922 39.5739 141.438 39.723 141.02 40.0213C140.602 40.3146 140.277 40.7372 140.043 41.2891C139.814 41.8409 139.7 42.5021 139.7 43.2727C139.7 44.0533 139.814 44.7244 140.043 45.2862C140.272 45.843 140.593 46.2731 141.005 46.5763C141.423 46.8746 141.912 47.0238 142.474 47.0238C142.872 47.0238 143.227 46.9492 143.541 46.8001C143.859 46.646 144.125 46.4247 144.339 46.1364C144.552 45.848 144.699 45.4975 144.779 45.0849H147.359C147.294 45.8952 147.056 46.6136 146.643 47.2401C146.23 47.8615 145.669 48.3487 144.958 48.7017C144.247 49.0497 143.411 49.2237 142.452 49.2237ZM149.576 49V37.5455H152.275V49H149.576ZM150.933 35.9197C150.505 35.9197 150.137 35.7781 149.829 35.4947C149.521 35.2063 149.367 34.8608 149.367 34.4581C149.367 34.0504 149.521 33.7049 149.829 33.4215C150.137 33.1332 150.505 32.989 150.933 32.989C151.365 32.989 151.733 33.1332 152.036 33.4215C152.345 33.7049 152.499 34.0504 152.499 34.4581C152.499 34.8608 152.345 35.2063 152.036 35.4947C151.733 35.7781 151.365 35.9197 150.933 35.9197ZM160.122 49.2237C158.974 49.2237 157.982 48.9851 157.147 48.5078C156.316 48.0256 155.678 47.3445 155.23 46.4645C154.783 45.5795 154.559 44.538 154.559 43.3398C154.559 42.1616 154.783 41.1275 155.23 40.2376C155.683 39.3427 156.314 38.6467 157.124 38.1495C157.935 37.6474 158.887 37.3963 159.98 37.3963C160.686 37.3963 161.353 37.5107 161.979 37.7393C162.61 37.9631 163.167 38.3111 163.65 38.7834C164.137 39.2557 164.52 39.8572 164.798 40.5881C165.076 41.3139 165.216 42.179 165.216 43.1832V44.011H155.827V42.1914H162.628C162.623 41.6744 162.511 41.2145 162.292 40.8118C162.074 40.4041 161.768 40.0835 161.375 39.8498C160.987 39.6161 160.535 39.4993 160.018 39.4993C159.466 39.4993 158.981 39.6335 158.564 39.902C158.146 40.1655 157.82 40.5135 157.587 40.946C157.358 41.3736 157.241 41.8434 157.236 42.3555V43.9439C157.236 44.6101 157.358 45.1818 157.602 45.6591C157.845 46.1314 158.186 46.4943 158.623 46.7479C159.061 46.9964 159.573 47.1207 160.159 47.1207C160.552 47.1207 160.908 47.0661 161.226 46.9567C161.544 46.8423 161.82 46.6758 162.054 46.457C162.287 46.2383 162.464 45.9673 162.583 45.6442L165.104 45.9276C164.945 46.5937 164.641 47.1754 164.194 47.6726C163.751 48.1648 163.185 48.5476 162.494 48.821C161.803 49.0895 161.012 49.2237 160.122 49.2237ZM170.199 42.2884V49H167.499V37.5455H170.08V39.4918H170.214C170.477 38.8505 170.897 38.3409 171.474 37.9631C172.056 37.5852 172.774 37.3963 173.629 37.3963C174.42 37.3963 175.108 37.5653 175.695 37.9034C176.287 38.2415 176.744 38.7312 177.067 39.3725C177.395 40.0138 177.557 40.7919 177.552 41.7067V49H174.852V42.1243C174.852 41.3587 174.653 40.7596 174.256 40.3271C173.863 39.8945 173.319 39.6783 172.623 39.6783C172.15 39.6783 171.73 39.7827 171.362 39.9915C170.999 40.1953 170.714 40.4911 170.505 40.8789C170.301 41.2667 170.199 41.7365 170.199 42.2884ZM186.016 37.5455V39.6335H179.431V37.5455H186.016ZM181.057 34.8011H183.756V45.5547C183.756 45.9176 183.811 46.196 183.921 46.3899C184.035 46.5788 184.184 46.7081 184.368 46.7777C184.552 46.8473 184.756 46.8821 184.979 46.8821C185.149 46.8821 185.303 46.8697 185.442 46.8448C185.586 46.82 185.695 46.7976 185.77 46.7777L186.225 48.8881C186.081 48.9379 185.874 48.9925 185.606 49.0522C185.342 49.1119 185.019 49.1467 184.636 49.1566C183.96 49.1765 183.351 49.0746 182.809 48.8509C182.267 48.6222 181.837 48.2692 181.519 47.7919C181.206 47.3146 181.052 46.718 181.057 46.0021V34.8011ZM193.222 49.2237C192.073 49.2237 191.081 48.9851 190.246 48.5078C189.416 48.0256 188.777 47.3445 188.33 46.4645C187.882 45.5795 187.659 44.538 187.659 43.3398C187.659 42.1616 187.882 41.1275 188.33 40.2376C188.782 39.3427 189.414 38.6467 190.224 38.1495C191.034 37.6474 191.986 37.3963 193.08 37.3963C193.786 37.3963 194.452 37.5107 195.079 37.7393C195.71 37.9631 196.267 38.3111 196.749 38.7834C197.236 39.2557 197.619 39.8572 197.898 40.5881C198.176 41.3139 198.315 42.179 198.315 43.1832V44.011H188.926V42.1914H195.727C195.722 41.6744 195.611 41.2145 195.392 40.8118C195.173 40.4041 194.867 40.0835 194.475 39.8498C194.087 39.6161 193.634 39.4993 193.117 39.4993C192.566 39.4993 192.081 39.6335 191.663 39.902C191.246 40.1655 190.92 40.5135 190.686 40.946C190.458 41.3736 190.341 41.8434 190.336 42.3555V43.9439C190.336 44.6101 190.458 45.1818 190.701 45.6591C190.945 46.1314 191.285 46.4943 191.723 46.7479C192.16 46.9964 192.672 47.1207 193.259 47.1207C193.652 47.1207 194.007 47.0661 194.325 46.9567C194.644 46.8423 194.92 46.6758 195.153 46.457C195.387 46.2383 195.563 45.9673 195.683 45.6442L198.203 45.9276C198.044 46.5937 197.741 47.1754 197.294 47.6726C196.851 48.1648 196.284 48.5476 195.593 48.821C194.902 49.0895 194.112 49.2237 193.222 49.2237ZM209.652 40.5732L207.191 40.8416C207.122 40.593 207 40.3594 206.826 40.1406C206.657 39.9219 206.428 39.7454 206.14 39.6112C205.851 39.4769 205.498 39.4098 205.081 39.4098C204.519 39.4098 204.047 39.5316 203.664 39.7752C203.286 40.0188 203.1 40.3345 203.105 40.7223C203.1 41.0554 203.222 41.3263 203.47 41.5352C203.724 41.744 204.141 41.9155 204.723 42.0497L206.677 42.4673C207.761 42.701 208.566 43.0714 209.093 43.5785C209.625 44.0856 209.893 44.7493 209.898 45.5696C209.893 46.2905 209.682 46.9268 209.264 47.4787C208.852 48.0256 208.278 48.4531 207.542 48.7614C206.806 49.0696 205.961 49.2237 205.006 49.2237C203.604 49.2237 202.476 48.9304 201.621 48.3438C200.766 47.7521 200.256 46.9293 200.092 45.8754L202.724 45.6218C202.844 46.1388 203.097 46.5291 203.485 46.7926C203.873 47.0561 204.377 47.1879 204.999 47.1879C205.64 47.1879 206.155 47.0561 206.543 46.7926C206.935 46.5291 207.132 46.2035 207.132 45.8157C207.132 45.4876 207.005 45.2166 206.751 45.0028C206.503 44.7891 206.115 44.625 205.588 44.5107L203.634 44.1005C202.535 43.8718 201.723 43.4865 201.196 42.9446C200.669 42.3977 200.408 41.7067 200.413 40.8714C200.408 40.1655 200.599 39.554 200.987 39.0369C201.38 38.5149 201.924 38.1122 202.62 37.8288C203.321 37.5405 204.129 37.3963 205.044 37.3963C206.386 37.3963 207.442 37.6822 208.213 38.2539C208.989 38.8256 209.468 39.5987 209.652 40.5732ZM215.428 33.7273L215.182 44.5107H212.781L212.542 33.7273H215.428ZM213.981 49.1641C213.529 49.1641 213.141 49.005 212.818 48.6868C212.5 48.3686 212.341 47.9808 212.341 47.5234C212.341 47.076 212.5 46.6932 212.818 46.375C213.141 46.0568 213.529 45.8977 213.981 45.8977C214.424 45.8977 214.807 46.0568 215.13 46.375C215.458 46.6932 215.622 47.076 215.622 47.5234C215.622 47.8267 215.545 48.1026 215.391 48.3512C215.242 48.5998 215.043 48.7987 214.794 48.9478C214.551 49.092 214.28 49.1641 213.981 49.1641Z" fill="white"/>
<rect width="57" height="58" rx="10" fill="#F8F8F8"/>
<path d="M23.6562 10C25.9496 10 27.8125 11.8629 27.8125 14.1562V43.8438C27.8125 46.1371 25.9496 48 23.6562 48C21.5113 48 19.7449 46.3746 19.5223 44.2816C19.1363 44.3855 18.7281 44.4375 18.3125 44.4375C15.6926 44.4375 13.5625 42.3074 13.5625 39.6875C13.5625 39.1383 13.659 38.6039 13.8297 38.1141C11.5883 37.268 10 35.1008 10 32.5625C10 30.1949 11.3879 28.1465 13.3992 27.1965C12.7535 26.3875 12.375 25.3633 12.375 24.25C12.375 21.9715 13.9781 20.0715 16.1156 19.6039C15.9969 19.1957 15.9375 18.7578 15.9375 18.3125C15.9375 16.0934 17.4664 14.223 19.5223 13.7035C19.7449 11.6254 21.5113 10 23.6562 10ZM34.3438 10C36.4887 10 38.2477 11.6254 38.4777 13.7035C40.541 14.223 42.0625 16.0859 42.0625 18.3125C42.0625 18.7578 42.0031 19.1957 41.8844 19.6039C44.0219 20.0641 45.625 21.9715 45.625 24.25C45.625 25.3633 45.2465 26.3875 44.6008 27.1965C46.6121 28.1465 48 30.1949 48 32.5625C48 35.1008 46.4117 37.268 44.1703 38.1141C44.341 38.6039 44.4375 39.1383 44.4375 39.6875C44.4375 42.3074 42.3074 44.4375 39.6875 44.4375C39.2719 44.4375 38.8637 44.3855 38.4777 44.2816C38.2551 46.3746 36.4887 48 34.3438 48C32.0504 48 30.1875 46.1371 30.1875 43.8438V14.1562C30.1875 11.8629 32.0504 10 34.3438 10Z" fill="#71B1FD"/>
</svg>
