<svg width="512" height="512" viewBox="0 0 512 512" fill="none" xmlns="http://www.w3.org/2000/svg">
<path d="M192 96C204.73 96 216.939 90.9429 225.941 81.9411C234.943 72.9394 240 60.7304 240 48C240 35.2696 234.943 23.0606 225.941 14.0589C216.939 5.05713 204.73 0 192 0C179.27 0 167.061 5.05713 158.059 14.0589C149.057 23.0606 144 35.2696 144 48C144 60.7304 149.057 72.9394 158.059 81.9411C167.061 90.9429 179.27 96 192 96ZM120.5 247.2C132.9 242.5 139.2 228.7 134.5 216.3C129.8 203.9 116 197.6 103.6 202.3C43.1 225.1 0 283.5 0 352C0 440.4 71.6 512 160 512C221.2 512 274.3 477.7 301.2 427.3C307.4 415.6 303 401.1 291.3 394.8C279.6 388.5 265.1 393 258.8 404.7C240 440 202.8 464 160 464C98.1 464 48 413.9 48 352C48 304.1 78.1 263.2 120.5 247.2ZM259.8 176L257.9 166.3C253.4 144 233.9 128 211.1 128C181 128 158.4 155.5 164.3 185L187.4 300.5C193.4 330.4 219.6 351.9 250.2 351.9H255.3C255.7 351.9 256.1 351.9 256.6 351.9H350.7C357.4 351.9 363.3 356 365.7 362.3L402 459.2C408 475.3 425.8 483.8 442.1 478.3L490.1 462.3C506.9 456.7 515.9 438.6 510.3 421.8C504.7 405 486.6 396 469.8 401.6L451.1 407.8L425.6 339.8C413.9 308.6 384 287.9 350.7 287.9H282.2L272.6 239.9H336C353.7 239.9 368 225.6 368 207.9C368 190.2 353.7 175.9 336 175.9H259.8V176Z" fill="#3E81D1"/>
</svg>
